M48
; DRILL file {KiCad 9.0.3} date 2026-08-21T11:16:15-0300
; FORMAT={-:-/ absolute / metric / decimal}
; #@! TF.CreationDate,2026-08-21T11:16:15-03:00
; #@! TF.GenerationSoftware,Kicad,Pcbnew,9.0.3
; #@! TF.FileFunction,Plated,1,2,PTH
FMAT,2
METRIC
; #@! TA.AperFunction,Plated,PTH,ComponentDrill
T1C0.600
; #@! TA.AperFunction,Plated,PTH,ComponentDrill
T2C0.762
; #@! TA.AperFunction,Plated,PTH,ViaDrill
T3C0.800
; #@! TA.AperFunction,Plated,PTH,ComponentDrill
T4C0.800
; #@! TA.AperFunction,Plated,PTH,ComponentDrill
T5C0.900
; #@! TA.AperFunction,Plated,PTH,ComponentDrill
T6C1.000
; #@! TA.AperFunction,Plated,PTH,ComponentDrill
T7C1.100
; #@! TA.AperFunction,Plated,PTH,ComponentDrill
T8C1.190
; #@! TA.AperFunction,Plated,PTH,ComponentDrill
T9C1.400
; #@! TA.AperFunction,Plated,PTH,ComponentDrill
T10C1.600
%
G90
G05
T1
X99.735Y-131.59
X104.735Y-132.79
T2
X128.545Y-83.663
X128.545Y-106.523
X131.085Y-83.663
X131.085Y-106.523
X133.625Y-83.663
X133.625Y-106.523
X136.165Y-83.663
X136.165Y-106.523
X138.705Y-83.663
X138.705Y-106.523
X141.245Y-83.663
X141.245Y-106.523
X143.785Y-83.663
X143.785Y-106.523
X146.325Y-83.663
X146.325Y-106.523
X148.865Y-83.663
X148.865Y-106.523
X151.405Y-83.663
X151.405Y-106.523
X153.945Y-83.663
X153.945Y-106.523
X156.485Y-83.663
X156.485Y-106.523
X159.025Y-83.663
X159.025Y-106.523
X161.565Y-83.663
X161.565Y-106.523
X164.105Y-83.663
X164.105Y-106.523
X166.645Y-83.663
X166.645Y-106.523
X169.185Y-83.663
X169.185Y-106.523
X171.725Y-83.663
X171.725Y-106.523
X174.265Y-83.663
X174.265Y-106.523
T3
X107.928Y-130.959
X118.5Y-104.5
X118.652Y-101.037
X121.0Y-105.5
X123.0Y-107.25
X124.25Y-124.25
X133.35Y-71.65
X133.875Y-57.375
X138.62Y-126.174
X141.5Y-135.75
X143.4Y-87.4
X143.689Y-71.79
X143.759Y-96.741
X146.75Y-68.75
X152.0Y-97.4
X152.146Y-127.381
X152.146Y-135.75
X153.0Y-71.5
X153.75Y-100.5
X153.8Y-90.8
X158.75Y-71.5
X160.377Y-68.709
X162.0Y-91.25
X164.105Y-86.25
X165.654Y-71.54
X168.8Y-62.2
X175.26Y-110.49
T4
X93.472Y-66.147
X93.472Y-68.687
X124.75Y-111.5
X127.25Y-111.5
X168.021Y-114.681
X170.521Y-114.681
T5
X88.646Y-68.453
X88.646Y-70.993
T6
X86.395Y-77.851
X89.535Y-135.001
X90.678Y-86.36
X90.678Y-127.0
X91.395Y-77.851
X94.535Y-135.001
X108.458Y-86.36
X108.458Y-127.0
X113.7Y-89.789
X118.7Y-89.789
T7
X89.027Y-53.721
X89.027Y-56.261
X89.027Y-58.801
X102.352Y-71.08
X112.552Y-71.08
T8
X83.693Y-97.028
X83.693Y-104.775
X83.693Y-112.395
X83.693Y-120.015
X86.233Y-97.028
X86.233Y-104.775
X86.233Y-112.395
X86.233Y-120.015
X100.19Y-81.107
X102.235Y-137.27
X102.235Y-139.81
X102.235Y-142.35
X102.73Y-81.107
X111.125Y-137.27
X111.125Y-139.81
X111.125Y-142.35
X120.035Y-137.16
X120.035Y-139.7
X120.035Y-142.24
X124.67Y-119.75
X127.21Y-119.75
X128.905Y-137.16
X128.905Y-139.7
X128.905Y-142.24
X129.75Y-119.75
X132.29Y-119.75
X133.35Y-75.096
X135.89Y-75.096
X137.16Y-115.83
X138.43Y-75.096
X139.7Y-115.83
X140.843Y-127.381
X140.97Y-75.096
X142.24Y-115.83
X143.383Y-127.381
X144.78Y-115.83
X145.923Y-127.381
X146.05Y-62.23
X146.32Y-75.096
X148.463Y-127.381
X148.59Y-62.23
X148.86Y-75.096
X151.13Y-62.23
X151.4Y-75.096
X153.67Y-62.23
X153.94Y-75.096
X154.94Y-127.166
X157.48Y-127.166
X158.75Y-62.23
X158.75Y-75.096
X160.02Y-127.166
X161.29Y-62.23
X161.29Y-75.096
X162.56Y-127.166
X163.83Y-62.23
X163.83Y-75.096
X166.37Y-62.23
X166.37Y-75.096
T9
X84.368Y-48.354
X89.368Y-48.354
X92.023Y-97.409
X92.13Y-105.283
X92.166Y-112.903
X92.257Y-120.523
X94.573Y-97.409
X94.68Y-105.283
X94.716Y-112.903
X94.807Y-120.523
X97.123Y-97.409
X97.23Y-105.283
X97.266Y-112.903
X97.357Y-120.523
X107.823Y-97.409
X107.93Y-105.283
X107.966Y-112.903
X108.057Y-120.523
X110.373Y-97.409
X110.48Y-105.283
X110.516Y-112.903
X110.607Y-120.523
X112.923Y-97.409
X113.03Y-105.283
X113.066Y-112.903
X113.157Y-120.523
T10
X98.552Y-58.42
X116.352Y-48.28
X116.352Y-55.88
M30
