%TF.GenerationSoftware,KiCad,Pcbnew,9.0.3*%
%TF.CreationDate,2026-08-21T11:16:01-03:00*%
%TF.ProjectId,PCB modelo,50434220-6d6f-4646-956c-6f2e6b696361,rev?*%
%TF.SameCoordinates,Original*%
%TF.FileFunction,Copper,L2,Bot*%
%TF.FilePolarity,Positive*%
%FSLAX46Y46*%
G04 Gerber Fmt 4.6, Leading zero omitted, Abs format (unit mm)*
G04 Created by KiCad (PCBNEW 9.0.3) date 2026-08-21 11:16:01*
%MOMM*%
%LPD*%
G01*
G04 APERTURE LIST*
G04 Aperture macros list*
%AMRoundRect*
0 Rectangle with rounded corners*
0 $1 Rounding radius*
0 $2 $3 $4 $5 $6 $7 $8 $9 X,Y pos of 4 corners*
0 Add a 4 corners polygon primitive as box body*
4,1,4,$2,$3,$4,$5,$6,$7,$8,$9,$2,$3,0*
0 Add four circle primitives for the rounded corners*
1,1,$1+$1,$2,$3*
1,1,$1+$1,$4,$5*
1,1,$1+$1,$6,$7*
1,1,$1+$1,$8,$9*
0 Add four rect primitives between the rounded corners*
20,1,$1+$1,$2,$3,$4,$5,0*
20,1,$1+$1,$4,$5,$6,$7,0*
20,1,$1+$1,$6,$7,$8,$9,0*
20,1,$1+$1,$8,$9,$2,$3,0*%
G04 Aperture macros list end*
%ADD10C,0.300000*%
%TA.AperFunction,NonConductor*%
%ADD11C,0.300000*%
%TD*%
%ADD12C,0.400000*%
%TA.AperFunction,NonConductor*%
%ADD13C,0.400000*%
%TD*%
%TA.AperFunction,ComponentPad*%
%ADD14RoundRect,0.250000X-0.620000X-0.845000X0.620000X-0.845000X0.620000X0.845000X-0.620000X0.845000X0*%
%TD*%
%TA.AperFunction,ComponentPad*%
%ADD15O,1.740000X2.190000*%
%TD*%
%TA.AperFunction,ComponentPad*%
%ADD16RoundRect,0.250000X0.620000X0.845000X-0.620000X0.845000X-0.620000X-0.845000X0.620000X-0.845000X0*%
%TD*%
%TA.AperFunction,ComponentPad*%
%ADD17RoundRect,0.250000X0.750000X0.750000X-0.750000X0.750000X-0.750000X-0.750000X0.750000X-0.750000X0*%
%TD*%
%TA.AperFunction,ComponentPad*%
%ADD18C,2.000000*%
%TD*%
%TA.AperFunction,ComponentPad*%
%ADD19C,1.600000*%
%TD*%
%TA.AperFunction,ComponentPad*%
%ADD20RoundRect,0.250000X0.845000X-0.620000X0.845000X0.620000X-0.845000X0.620000X-0.845000X-0.620000X0*%
%TD*%
%TA.AperFunction,ComponentPad*%
%ADD21O,2.190000X1.740000*%
%TD*%
%TA.AperFunction,ComponentPad*%
%ADD22O,1.750000X2.250000*%
%TD*%
%TA.AperFunction,ComponentPad*%
%ADD23R,1.800000X1.800000*%
%TD*%
%TA.AperFunction,ComponentPad*%
%ADD24C,1.800000*%
%TD*%
%TA.AperFunction,ComponentPad*%
%ADD25R,2.000000X1.905000*%
%TD*%
%TA.AperFunction,ComponentPad*%
%ADD26O,2.000000X1.905000*%
%TD*%
%TA.AperFunction,ComponentPad*%
%ADD27R,2.540000X2.540000*%
%TD*%
%TA.AperFunction,ComponentPad*%
%ADD28C,2.540000*%
%TD*%
%TA.AperFunction,ComponentPad*%
%ADD29RoundRect,0.250000X0.750000X1.550000X-0.750000X1.550000X-0.750000X-1.550000X0.750000X-1.550000X0*%
%TD*%
%TA.AperFunction,ComponentPad*%
%ADD30O,2.000000X3.600000*%
%TD*%
%TA.AperFunction,ComponentPad*%
%ADD31C,3.000000*%
%TD*%
%TA.AperFunction,ComponentPad*%
%ADD32RoundRect,0.500000X-0.500000X0.500000X-0.500000X-0.500000X0.500000X-0.500000X0.500000X0.500000X0*%
%TD*%
%TA.AperFunction,ComponentPad*%
%ADD33C,1.400000*%
%TD*%
%TA.AperFunction,SMDPad,CuDef*%
%ADD34RoundRect,0.237500X-0.237500X0.300000X-0.237500X-0.300000X0.237500X-0.300000X0.237500X0.300000X0*%
%TD*%
%TA.AperFunction,SMDPad,CuDef*%
%ADD35RoundRect,0.237500X0.300000X0.237500X-0.300000X0.237500X-0.300000X-0.237500X0.300000X-0.237500X0*%
%TD*%
%TA.AperFunction,SMDPad,CuDef*%
%ADD36RoundRect,0.250000X-0.450000X0.262500X-0.450000X-0.262500X0.450000X-0.262500X0.450000X0.262500X0*%
%TD*%
%TA.AperFunction,SMDPad,CuDef*%
%ADD37RoundRect,0.250000X0.450000X-0.262500X0.450000X0.262500X-0.450000X0.262500X-0.450000X-0.262500X0*%
%TD*%
%TA.AperFunction,SMDPad,CuDef*%
%ADD38RoundRect,0.250000X1.500000X0.650000X-1.500000X0.650000X-1.500000X-0.650000X1.500000X-0.650000X0*%
%TD*%
%TA.AperFunction,SMDPad,CuDef*%
%ADD39RoundRect,0.250000X0.250000X0.475000X-0.250000X0.475000X-0.250000X-0.475000X0.250000X-0.475000X0*%
%TD*%
%TA.AperFunction,SMDPad,CuDef*%
%ADD40RoundRect,0.250000X-0.475000X0.250000X-0.475000X-0.250000X0.475000X-0.250000X0.475000X0.250000X0*%
%TD*%
%TA.AperFunction,SMDPad,CuDef*%
%ADD41RoundRect,0.250000X-0.250000X-0.475000X0.250000X-0.475000X0.250000X0.475000X-0.250000X0.475000X0*%
%TD*%
%TA.AperFunction,SMDPad,CuDef*%
%ADD42RoundRect,0.150000X0.587500X0.150000X-0.587500X0.150000X-0.587500X-0.150000X0.587500X-0.150000X0*%
%TD*%
%TA.AperFunction,SMDPad,CuDef*%
%ADD43RoundRect,0.250000X-0.450000X0.350000X-0.450000X-0.350000X0.450000X-0.350000X0.450000X0.350000X0*%
%TD*%
%TA.AperFunction,SMDPad,CuDef*%
%ADD44RoundRect,0.250000X-0.262500X-0.450000X0.262500X-0.450000X0.262500X0.450000X-0.262500X0.450000X0*%
%TD*%
%TA.AperFunction,ComponentPad*%
%ADD45C,2.800000*%
%TD*%
%TA.AperFunction,ComponentPad*%
%ADD46R,4.400000X6.000000*%
%TD*%
%TA.AperFunction,SMDPad,CuDef*%
%ADD47RoundRect,0.250000X-0.337500X-0.475000X0.337500X-0.475000X0.337500X0.475000X-0.337500X0.475000X0*%
%TD*%
%TA.AperFunction,SMDPad,CuDef*%
%ADD48RoundRect,0.250000X0.350000X0.450000X-0.350000X0.450000X-0.350000X-0.450000X0.350000X-0.450000X0*%
%TD*%
%TA.AperFunction,SMDPad,CuDef*%
%ADD49R,2.006600X4.419600*%
%TD*%
%TA.AperFunction,SMDPad,CuDef*%
%ADD50R,2.006600X0.609600*%
%TD*%
%TA.AperFunction,SMDPad,CuDef*%
%ADD51RoundRect,0.250000X0.600000X-0.400000X0.600000X0.400000X-0.600000X0.400000X-0.600000X-0.400000X0*%
%TD*%
%TA.AperFunction,SMDPad,CuDef*%
%ADD52RoundRect,0.250000X0.262500X0.450000X-0.262500X0.450000X-0.262500X-0.450000X0.262500X-0.450000X0*%
%TD*%
%TA.AperFunction,SMDPad,CuDef*%
%ADD53RoundRect,0.100000X0.400000X0.100000X-0.400000X0.100000X-0.400000X-0.100000X0.400000X-0.100000X0*%
%TD*%
%TA.AperFunction,SMDPad,CuDef*%
%ADD54RoundRect,0.100000X0.100000X-0.400000X0.100000X0.400000X-0.100000X0.400000X-0.100000X-0.400000X0*%
%TD*%
%TA.AperFunction,SMDPad,CuDef*%
%ADD55RoundRect,0.218750X-0.381250X0.218750X-0.381250X-0.218750X0.381250X-0.218750X0.381250X0.218750X0*%
%TD*%
%TA.AperFunction,SMDPad,CuDef*%
%ADD56RoundRect,0.250000X0.337500X0.475000X-0.337500X0.475000X-0.337500X-0.475000X0.337500X-0.475000X0*%
%TD*%
%TA.AperFunction,SMDPad,CuDef*%
%ADD57RoundRect,0.250000X1.500000X0.900000X-1.500000X0.900000X-1.500000X-0.900000X1.500000X-0.900000X0*%
%TD*%
%TA.AperFunction,ViaPad*%
%ADD58C,1.600000*%
%TD*%
%TA.AperFunction,Conductor*%
%ADD59C,0.500000*%
%TD*%
%TA.AperFunction,Conductor*%
%ADD60C,1.000000*%
%TD*%
%TA.AperFunction,Conductor*%
%ADD61C,1.750000*%
%TD*%
%TA.AperFunction,Conductor*%
%ADD62C,4.000000*%
%TD*%
%TA.AperFunction,Conductor*%
%ADD63C,2.000000*%
%TD*%
%TA.AperFunction,Conductor*%
%ADD64C,0.400000*%
%TD*%
%TA.AperFunction,Conductor*%
%ADD65C,3.000000*%
%TD*%
%TA.AperFunction,Conductor*%
%ADD66C,1.500000*%
%TD*%
%TA.AperFunction,Conductor*%
%ADD67C,0.600000*%
%TD*%
%TA.AperFunction,Conductor*%
%ADD68C,0.200000*%
%TD*%
%TA.AperFunction,Conductor*%
%ADD69C,0.700000*%
%TD*%
G04 APERTURE END LIST*
D10*
D11*
X167188346Y-55657971D02*
X167259774Y-55729400D01*
X167259774Y-55729400D02*
X167474060Y-55800828D01*
X167474060Y-55800828D02*
X167616917Y-55800828D01*
X167616917Y-55800828D02*
X167831203Y-55729400D01*
X167831203Y-55729400D02*
X167974060Y-55586542D01*
X167974060Y-55586542D02*
X168045489Y-55443685D01*
X168045489Y-55443685D02*
X168116917Y-55157971D01*
X168116917Y-55157971D02*
X168116917Y-54943685D01*
X168116917Y-54943685D02*
X168045489Y-54657971D01*
X168045489Y-54657971D02*
X167974060Y-54515114D01*
X167974060Y-54515114D02*
X167831203Y-54372257D01*
X167831203Y-54372257D02*
X167616917Y-54300828D01*
X167616917Y-54300828D02*
X167474060Y-54300828D01*
X167474060Y-54300828D02*
X167259774Y-54372257D01*
X167259774Y-54372257D02*
X167188346Y-54443685D01*
X165974060Y-55729400D02*
X166116917Y-55800828D01*
X166116917Y-55800828D02*
X166402632Y-55800828D01*
X166402632Y-55800828D02*
X166545489Y-55729400D01*
X166545489Y-55729400D02*
X166616917Y-55586542D01*
X166616917Y-55586542D02*
X166616917Y-55015114D01*
X166616917Y-55015114D02*
X166545489Y-54872257D01*
X166545489Y-54872257D02*
X166402632Y-54800828D01*
X166402632Y-54800828D02*
X166116917Y-54800828D01*
X166116917Y-54800828D02*
X165974060Y-54872257D01*
X165974060Y-54872257D02*
X165902632Y-55015114D01*
X165902632Y-55015114D02*
X165902632Y-55157971D01*
X165902632Y-55157971D02*
X166616917Y-55300828D01*
X164616918Y-55729400D02*
X164759775Y-55800828D01*
X164759775Y-55800828D02*
X165045489Y-55800828D01*
X165045489Y-55800828D02*
X165188346Y-55729400D01*
X165188346Y-55729400D02*
X165259775Y-55657971D01*
X165259775Y-55657971D02*
X165331203Y-55515114D01*
X165331203Y-55515114D02*
X165331203Y-55086542D01*
X165331203Y-55086542D02*
X165259775Y-54943685D01*
X165259775Y-54943685D02*
X165188346Y-54872257D01*
X165188346Y-54872257D02*
X165045489Y-54800828D01*
X165045489Y-54800828D02*
X164759775Y-54800828D01*
X164759775Y-54800828D02*
X164616918Y-54872257D01*
X163759775Y-55800828D02*
X163902632Y-55729400D01*
X163902632Y-55729400D02*
X163974061Y-55657971D01*
X163974061Y-55657971D02*
X164045489Y-55515114D01*
X164045489Y-55515114D02*
X164045489Y-55086542D01*
X164045489Y-55086542D02*
X163974061Y-54943685D01*
X163974061Y-54943685D02*
X163902632Y-54872257D01*
X163902632Y-54872257D02*
X163759775Y-54800828D01*
X163759775Y-54800828D02*
X163545489Y-54800828D01*
X163545489Y-54800828D02*
X163402632Y-54872257D01*
X163402632Y-54872257D02*
X163331204Y-54943685D01*
X163331204Y-54943685D02*
X163259775Y-55086542D01*
X163259775Y-55086542D02*
X163259775Y-55515114D01*
X163259775Y-55515114D02*
X163331204Y-55657971D01*
X163331204Y-55657971D02*
X163402632Y-55729400D01*
X163402632Y-55729400D02*
X163545489Y-55800828D01*
X163545489Y-55800828D02*
X163759775Y-55800828D01*
X162831203Y-54800828D02*
X162259775Y-54800828D01*
X162616918Y-54300828D02*
X162616918Y-55586542D01*
X162616918Y-55586542D02*
X162545489Y-55729400D01*
X162545489Y-55729400D02*
X162402632Y-55800828D01*
X162402632Y-55800828D02*
X162259775Y-55800828D01*
X161974060Y-54800828D02*
X161402632Y-54800828D01*
X161759775Y-54300828D02*
X161759775Y-55586542D01*
X161759775Y-55586542D02*
X161688346Y-55729400D01*
X161688346Y-55729400D02*
X161545489Y-55800828D01*
X161545489Y-55800828D02*
X161402632Y-55800828D01*
X160902632Y-55800828D02*
X160902632Y-54800828D01*
X160902632Y-54300828D02*
X160974060Y-54372257D01*
X160974060Y-54372257D02*
X160902632Y-54443685D01*
X160902632Y-54443685D02*
X160831203Y-54372257D01*
X160831203Y-54372257D02*
X160902632Y-54300828D01*
X160902632Y-54300828D02*
X160902632Y-54443685D01*
X160116917Y-55729400D02*
X160116917Y-55800828D01*
X160116917Y-55800828D02*
X160188346Y-55943685D01*
X160188346Y-55943685D02*
X160259774Y-56015114D01*
X157831203Y-55015114D02*
X157616917Y-55086542D01*
X157616917Y-55086542D02*
X157545488Y-55157971D01*
X157545488Y-55157971D02*
X157474060Y-55300828D01*
X157474060Y-55300828D02*
X157474060Y-55515114D01*
X157474060Y-55515114D02*
X157545488Y-55657971D01*
X157545488Y-55657971D02*
X157616917Y-55729400D01*
X157616917Y-55729400D02*
X157759774Y-55800828D01*
X157759774Y-55800828D02*
X158331203Y-55800828D01*
X158331203Y-55800828D02*
X158331203Y-54300828D01*
X158331203Y-54300828D02*
X157831203Y-54300828D01*
X157831203Y-54300828D02*
X157688346Y-54372257D01*
X157688346Y-54372257D02*
X157616917Y-54443685D01*
X157616917Y-54443685D02*
X157545488Y-54586542D01*
X157545488Y-54586542D02*
X157545488Y-54729400D01*
X157545488Y-54729400D02*
X157616917Y-54872257D01*
X157616917Y-54872257D02*
X157688346Y-54943685D01*
X157688346Y-54943685D02*
X157831203Y-55015114D01*
X157831203Y-55015114D02*
X158331203Y-55015114D01*
X156259774Y-55729400D02*
X156402631Y-55800828D01*
X156402631Y-55800828D02*
X156688346Y-55800828D01*
X156688346Y-55800828D02*
X156831203Y-55729400D01*
X156831203Y-55729400D02*
X156902631Y-55586542D01*
X156902631Y-55586542D02*
X156902631Y-55015114D01*
X156902631Y-55015114D02*
X156831203Y-54872257D01*
X156831203Y-54872257D02*
X156688346Y-54800828D01*
X156688346Y-54800828D02*
X156402631Y-54800828D01*
X156402631Y-54800828D02*
X156259774Y-54872257D01*
X156259774Y-54872257D02*
X156188346Y-55015114D01*
X156188346Y-55015114D02*
X156188346Y-55157971D01*
X156188346Y-55157971D02*
X156902631Y-55300828D01*
X156402631Y-54229400D02*
X156616917Y-54443685D01*
X155331203Y-55800828D02*
X155474060Y-55729400D01*
X155474060Y-55729400D02*
X155545489Y-55586542D01*
X155545489Y-55586542D02*
X155545489Y-54300828D01*
X154759775Y-55800828D02*
X154759775Y-54800828D01*
X154759775Y-54300828D02*
X154831203Y-54372257D01*
X154831203Y-54372257D02*
X154759775Y-54443685D01*
X154759775Y-54443685D02*
X154688346Y-54372257D01*
X154688346Y-54372257D02*
X154759775Y-54300828D01*
X154759775Y-54300828D02*
X154759775Y-54443685D01*
X153402632Y-55729400D02*
X153545489Y-55800828D01*
X153545489Y-55800828D02*
X153831203Y-55800828D01*
X153831203Y-55800828D02*
X153974060Y-55729400D01*
X153974060Y-55729400D02*
X154045489Y-55657971D01*
X154045489Y-55657971D02*
X154116917Y-55515114D01*
X154116917Y-55515114D02*
X154116917Y-55086542D01*
X154116917Y-55086542D02*
X154045489Y-54943685D01*
X154045489Y-54943685D02*
X153974060Y-54872257D01*
X153974060Y-54872257D02*
X153831203Y-54800828D01*
X153831203Y-54800828D02*
X153545489Y-54800828D01*
X153545489Y-54800828D02*
X153402632Y-54872257D01*
X152545489Y-55800828D02*
X152688346Y-55729400D01*
X152688346Y-55729400D02*
X152759775Y-55657971D01*
X152759775Y-55657971D02*
X152831203Y-55515114D01*
X152831203Y-55515114D02*
X152831203Y-55086542D01*
X152831203Y-55086542D02*
X152759775Y-54943685D01*
X152759775Y-54943685D02*
X152688346Y-54872257D01*
X152688346Y-54872257D02*
X152545489Y-54800828D01*
X152545489Y-54800828D02*
X152331203Y-54800828D01*
X152331203Y-54800828D02*
X152188346Y-54872257D01*
X152188346Y-54872257D02*
X152116918Y-54943685D01*
X152116918Y-54943685D02*
X152045489Y-55086542D01*
X152045489Y-55086542D02*
X152045489Y-55515114D01*
X152045489Y-55515114D02*
X152116918Y-55657971D01*
X152116918Y-55657971D02*
X152188346Y-55729400D01*
X152188346Y-55729400D02*
X152331203Y-55800828D01*
X152331203Y-55800828D02*
X152545489Y-55800828D01*
X151331203Y-55729400D02*
X151331203Y-55800828D01*
X151331203Y-55800828D02*
X151402632Y-55943685D01*
X151402632Y-55943685D02*
X151474060Y-56015114D01*
X149545489Y-55800828D02*
X149545489Y-54300828D01*
X149545489Y-54300828D02*
X148688346Y-55800828D01*
X148688346Y-55800828D02*
X148688346Y-54300828D01*
X147759774Y-55800828D02*
X147902631Y-55729400D01*
X147902631Y-55729400D02*
X147974060Y-55657971D01*
X147974060Y-55657971D02*
X148045488Y-55515114D01*
X148045488Y-55515114D02*
X148045488Y-55086542D01*
X148045488Y-55086542D02*
X147974060Y-54943685D01*
X147974060Y-54943685D02*
X147902631Y-54872257D01*
X147902631Y-54872257D02*
X147759774Y-54800828D01*
X147759774Y-54800828D02*
X147545488Y-54800828D01*
X147545488Y-54800828D02*
X147402631Y-54872257D01*
X147402631Y-54872257D02*
X147331203Y-54943685D01*
X147331203Y-54943685D02*
X147259774Y-55086542D01*
X147259774Y-55086542D02*
X147259774Y-55515114D01*
X147259774Y-55515114D02*
X147331203Y-55657971D01*
X147331203Y-55657971D02*
X147402631Y-55729400D01*
X147402631Y-55729400D02*
X147545488Y-55800828D01*
X147545488Y-55800828D02*
X147759774Y-55800828D01*
X147902631Y-54300828D02*
X147831203Y-54372257D01*
X147831203Y-54372257D02*
X147902631Y-54443685D01*
X147902631Y-54443685D02*
X147974060Y-54372257D01*
X147974060Y-54372257D02*
X147902631Y-54300828D01*
X147902631Y-54300828D02*
X147902631Y-54443685D01*
X147331203Y-54300828D02*
X147259774Y-54372257D01*
X147259774Y-54372257D02*
X147331203Y-54443685D01*
X147331203Y-54443685D02*
X147402631Y-54372257D01*
X147402631Y-54372257D02*
X147331203Y-54300828D01*
X147331203Y-54300828D02*
X147331203Y-54443685D01*
X146402631Y-55800828D02*
X146545488Y-55729400D01*
X146545488Y-55729400D02*
X146616917Y-55586542D01*
X146616917Y-55586542D02*
X146616917Y-54300828D01*
X145616917Y-55800828D02*
X145759774Y-55729400D01*
X145759774Y-55729400D02*
X145831203Y-55586542D01*
X145831203Y-55586542D02*
X145831203Y-54300828D01*
X145045489Y-55800828D02*
X145045489Y-54800828D01*
X145045489Y-54943685D02*
X144974060Y-54872257D01*
X144974060Y-54872257D02*
X144831203Y-54800828D01*
X144831203Y-54800828D02*
X144616917Y-54800828D01*
X144616917Y-54800828D02*
X144474060Y-54872257D01*
X144474060Y-54872257D02*
X144402632Y-55015114D01*
X144402632Y-55015114D02*
X144402632Y-55800828D01*
X144402632Y-55015114D02*
X144331203Y-54872257D01*
X144331203Y-54872257D02*
X144188346Y-54800828D01*
X144188346Y-54800828D02*
X143974060Y-54800828D01*
X143974060Y-54800828D02*
X143831203Y-54872257D01*
X143831203Y-54872257D02*
X143759774Y-55015114D01*
X143759774Y-55015114D02*
X143759774Y-55800828D01*
X142402632Y-55800828D02*
X142402632Y-55015114D01*
X142402632Y-55015114D02*
X142474060Y-54872257D01*
X142474060Y-54872257D02*
X142616917Y-54800828D01*
X142616917Y-54800828D02*
X142902632Y-54800828D01*
X142902632Y-54800828D02*
X143045489Y-54872257D01*
X142402632Y-55729400D02*
X142545489Y-55800828D01*
X142545489Y-55800828D02*
X142902632Y-55800828D01*
X142902632Y-55800828D02*
X143045489Y-55729400D01*
X143045489Y-55729400D02*
X143116917Y-55586542D01*
X143116917Y-55586542D02*
X143116917Y-55443685D01*
X143116917Y-55443685D02*
X143045489Y-55300828D01*
X143045489Y-55300828D02*
X142902632Y-55229400D01*
X142902632Y-55229400D02*
X142545489Y-55229400D01*
X142545489Y-55229400D02*
X142402632Y-55157971D01*
X141688346Y-54800828D02*
X141688346Y-55800828D01*
X141688346Y-54943685D02*
X141616917Y-54872257D01*
X141616917Y-54872257D02*
X141474060Y-54800828D01*
X141474060Y-54800828D02*
X141259774Y-54800828D01*
X141259774Y-54800828D02*
X141116917Y-54872257D01*
X141116917Y-54872257D02*
X141045489Y-55015114D01*
X141045489Y-55015114D02*
X141045489Y-55800828D01*
X140331203Y-54800828D02*
X140331203Y-55800828D01*
X140331203Y-54943685D02*
X140259774Y-54872257D01*
X140259774Y-54872257D02*
X140116917Y-54800828D01*
X140116917Y-54800828D02*
X139902631Y-54800828D01*
X139902631Y-54800828D02*
X139759774Y-54872257D01*
X139759774Y-54872257D02*
X139688346Y-55015114D01*
X139688346Y-55015114D02*
X139688346Y-55800828D01*
D12*
D13*
X167752382Y-49114550D02*
X167752382Y-47114550D01*
X167752382Y-47114550D02*
X166990477Y-47114550D01*
X166990477Y-47114550D02*
X166800001Y-47209788D01*
X166800001Y-47209788D02*
X166704763Y-47305026D01*
X166704763Y-47305026D02*
X166609525Y-47495502D01*
X166609525Y-47495502D02*
X166609525Y-47781216D01*
X166609525Y-47781216D02*
X166704763Y-47971692D01*
X166704763Y-47971692D02*
X166800001Y-48066931D01*
X166800001Y-48066931D02*
X166990477Y-48162169D01*
X166990477Y-48162169D02*
X167752382Y-48162169D01*
X164609525Y-48924073D02*
X164704763Y-49019312D01*
X164704763Y-49019312D02*
X164990477Y-49114550D01*
X164990477Y-49114550D02*
X165180953Y-49114550D01*
X165180953Y-49114550D02*
X165466668Y-49019312D01*
X165466668Y-49019312D02*
X165657144Y-48828835D01*
X165657144Y-48828835D02*
X165752382Y-48638359D01*
X165752382Y-48638359D02*
X165847620Y-48257407D01*
X165847620Y-48257407D02*
X165847620Y-47971692D01*
X165847620Y-47971692D02*
X165752382Y-47590740D01*
X165752382Y-47590740D02*
X165657144Y-47400264D01*
X165657144Y-47400264D02*
X165466668Y-47209788D01*
X165466668Y-47209788D02*
X165180953Y-47114550D01*
X165180953Y-47114550D02*
X164990477Y-47114550D01*
X164990477Y-47114550D02*
X164704763Y-47209788D01*
X164704763Y-47209788D02*
X164609525Y-47305026D01*
X163085715Y-48066931D02*
X162800001Y-48162169D01*
X162800001Y-48162169D02*
X162704763Y-48257407D01*
X162704763Y-48257407D02*
X162609525Y-48447883D01*
X162609525Y-48447883D02*
X162609525Y-48733597D01*
X162609525Y-48733597D02*
X162704763Y-48924073D01*
X162704763Y-48924073D02*
X162800001Y-49019312D01*
X162800001Y-49019312D02*
X162990477Y-49114550D01*
X162990477Y-49114550D02*
X163752382Y-49114550D01*
X163752382Y-49114550D02*
X163752382Y-47114550D01*
X163752382Y-47114550D02*
X163085715Y-47114550D01*
X163085715Y-47114550D02*
X162895239Y-47209788D01*
X162895239Y-47209788D02*
X162800001Y-47305026D01*
X162800001Y-47305026D02*
X162704763Y-47495502D01*
X162704763Y-47495502D02*
X162704763Y-47685978D01*
X162704763Y-47685978D02*
X162800001Y-47876454D01*
X162800001Y-47876454D02*
X162895239Y-47971692D01*
X162895239Y-47971692D02*
X163085715Y-48066931D01*
X163085715Y-48066931D02*
X163752382Y-48066931D01*
X159085715Y-49114550D02*
X159752382Y-48162169D01*
X160228572Y-49114550D02*
X160228572Y-47114550D01*
X160228572Y-47114550D02*
X159466667Y-47114550D01*
X159466667Y-47114550D02*
X159276191Y-47209788D01*
X159276191Y-47209788D02*
X159180953Y-47305026D01*
X159180953Y-47305026D02*
X159085715Y-47495502D01*
X159085715Y-47495502D02*
X159085715Y-47781216D01*
X159085715Y-47781216D02*
X159180953Y-47971692D01*
X159180953Y-47971692D02*
X159276191Y-48066931D01*
X159276191Y-48066931D02*
X159466667Y-48162169D01*
X159466667Y-48162169D02*
X160228572Y-48162169D01*
X157942858Y-49114550D02*
X158133334Y-49019312D01*
X158133334Y-49019312D02*
X158228572Y-48924073D01*
X158228572Y-48924073D02*
X158323810Y-48733597D01*
X158323810Y-48733597D02*
X158323810Y-48162169D01*
X158323810Y-48162169D02*
X158228572Y-47971692D01*
X158228572Y-47971692D02*
X158133334Y-47876454D01*
X158133334Y-47876454D02*
X157942858Y-47781216D01*
X157942858Y-47781216D02*
X157657143Y-47781216D01*
X157657143Y-47781216D02*
X157466667Y-47876454D01*
X157466667Y-47876454D02*
X157371429Y-47971692D01*
X157371429Y-47971692D02*
X157276191Y-48162169D01*
X157276191Y-48162169D02*
X157276191Y-48733597D01*
X157276191Y-48733597D02*
X157371429Y-48924073D01*
X157371429Y-48924073D02*
X157466667Y-49019312D01*
X157466667Y-49019312D02*
X157657143Y-49114550D01*
X157657143Y-49114550D02*
X157942858Y-49114550D01*
X156609524Y-47781216D02*
X156133334Y-49114550D01*
X156133334Y-49114550D02*
X155657143Y-47781216D01*
X154133333Y-49019312D02*
X154323809Y-49114550D01*
X154323809Y-49114550D02*
X154704762Y-49114550D01*
X154704762Y-49114550D02*
X154895238Y-49019312D01*
X154895238Y-49019312D02*
X154990476Y-48828835D01*
X154990476Y-48828835D02*
X154990476Y-48066931D01*
X154990476Y-48066931D02*
X154895238Y-47876454D01*
X154895238Y-47876454D02*
X154704762Y-47781216D01*
X154704762Y-47781216D02*
X154323809Y-47781216D01*
X154323809Y-47781216D02*
X154133333Y-47876454D01*
X154133333Y-47876454D02*
X154038095Y-48066931D01*
X154038095Y-48066931D02*
X154038095Y-48257407D01*
X154038095Y-48257407D02*
X154990476Y-48447883D01*
X153180952Y-49114550D02*
X153180952Y-47781216D01*
X153180952Y-48162169D02*
X153085714Y-47971692D01*
X153085714Y-47971692D02*
X152990476Y-47876454D01*
X152990476Y-47876454D02*
X152800000Y-47781216D01*
X152800000Y-47781216D02*
X152609523Y-47781216D01*
X150419047Y-49114550D02*
X150419047Y-47114550D01*
X149466666Y-48066931D02*
X148799999Y-48066931D01*
X148514285Y-49114550D02*
X149466666Y-49114550D01*
X149466666Y-49114550D02*
X149466666Y-47114550D01*
X149466666Y-47114550D02*
X148514285Y-47114550D01*
X147657142Y-48066931D02*
X146990475Y-48066931D01*
X146704761Y-49114550D02*
X147657142Y-49114550D01*
X147657142Y-49114550D02*
X147657142Y-47114550D01*
X147657142Y-47114550D02*
X146704761Y-47114550D01*
X145847618Y-48066931D02*
X145180951Y-48066931D01*
X144895237Y-49114550D02*
X145847618Y-49114550D01*
X145847618Y-49114550D02*
X145847618Y-47114550D01*
X145847618Y-47114550D02*
X144895237Y-47114550D01*
X142799998Y-47114550D02*
X142133332Y-49114550D01*
X142133332Y-49114550D02*
X141466665Y-47114550D01*
X139752379Y-49114550D02*
X140895236Y-49114550D01*
X140323808Y-49114550D02*
X140323808Y-47114550D01*
X140323808Y-47114550D02*
X140514284Y-47400264D01*
X140514284Y-47400264D02*
X140704760Y-47590740D01*
X140704760Y-47590740D02*
X140895236Y-47685978D01*
X160990476Y-52334438D02*
X160990476Y-50334438D01*
X160323809Y-50334438D02*
X159180952Y-50334438D01*
X159752381Y-52334438D02*
X159752381Y-50334438D01*
X157847618Y-51286819D02*
X157561904Y-51382057D01*
X157561904Y-51382057D02*
X157466666Y-51477295D01*
X157466666Y-51477295D02*
X157371428Y-51667771D01*
X157371428Y-51667771D02*
X157371428Y-51953485D01*
X157371428Y-51953485D02*
X157466666Y-52143961D01*
X157466666Y-52143961D02*
X157561904Y-52239200D01*
X157561904Y-52239200D02*
X157752380Y-52334438D01*
X157752380Y-52334438D02*
X158514285Y-52334438D01*
X158514285Y-52334438D02*
X158514285Y-50334438D01*
X158514285Y-50334438D02*
X157847618Y-50334438D01*
X157847618Y-50334438D02*
X157657142Y-50429676D01*
X157657142Y-50429676D02*
X157561904Y-50524914D01*
X157561904Y-50524914D02*
X157466666Y-50715390D01*
X157466666Y-50715390D02*
X157466666Y-50905866D01*
X157466666Y-50905866D02*
X157561904Y-51096342D01*
X157561904Y-51096342D02*
X157657142Y-51191580D01*
X157657142Y-51191580D02*
X157847618Y-51286819D01*
X157847618Y-51286819D02*
X158514285Y-51286819D01*
X156609523Y-51763009D02*
X155657142Y-51763009D01*
X156799999Y-52334438D02*
X156133333Y-50334438D01*
X156133333Y-50334438D02*
X155466666Y-52334438D01*
X153371427Y-50524914D02*
X153276189Y-50429676D01*
X153276189Y-50429676D02*
X153085713Y-50334438D01*
X153085713Y-50334438D02*
X152609522Y-50334438D01*
X152609522Y-50334438D02*
X152419046Y-50429676D01*
X152419046Y-50429676D02*
X152323808Y-50524914D01*
X152323808Y-50524914D02*
X152228570Y-50715390D01*
X152228570Y-50715390D02*
X152228570Y-50905866D01*
X152228570Y-50905866D02*
X152323808Y-51191580D01*
X152323808Y-51191580D02*
X153466665Y-52334438D01*
X153466665Y-52334438D02*
X152228570Y-52334438D01*
X150990475Y-50334438D02*
X150799998Y-50334438D01*
X150799998Y-50334438D02*
X150609522Y-50429676D01*
X150609522Y-50429676D02*
X150514284Y-50524914D01*
X150514284Y-50524914D02*
X150419046Y-50715390D01*
X150419046Y-50715390D02*
X150323808Y-51096342D01*
X150323808Y-51096342D02*
X150323808Y-51572533D01*
X150323808Y-51572533D02*
X150419046Y-51953485D01*
X150419046Y-51953485D02*
X150514284Y-52143961D01*
X150514284Y-52143961D02*
X150609522Y-52239200D01*
X150609522Y-52239200D02*
X150799998Y-52334438D01*
X150799998Y-52334438D02*
X150990475Y-52334438D01*
X150990475Y-52334438D02*
X151180951Y-52239200D01*
X151180951Y-52239200D02*
X151276189Y-52143961D01*
X151276189Y-52143961D02*
X151371427Y-51953485D01*
X151371427Y-51953485D02*
X151466665Y-51572533D01*
X151466665Y-51572533D02*
X151466665Y-51096342D01*
X151466665Y-51096342D02*
X151371427Y-50715390D01*
X151371427Y-50715390D02*
X151276189Y-50524914D01*
X151276189Y-50524914D02*
X151180951Y-50429676D01*
X151180951Y-50429676D02*
X150990475Y-50334438D01*
X149561903Y-50524914D02*
X149466665Y-50429676D01*
X149466665Y-50429676D02*
X149276189Y-50334438D01*
X149276189Y-50334438D02*
X148799998Y-50334438D01*
X148799998Y-50334438D02*
X148609522Y-50429676D01*
X148609522Y-50429676D02*
X148514284Y-50524914D01*
X148514284Y-50524914D02*
X148419046Y-50715390D01*
X148419046Y-50715390D02*
X148419046Y-50905866D01*
X148419046Y-50905866D02*
X148514284Y-51191580D01*
X148514284Y-51191580D02*
X149657141Y-52334438D01*
X149657141Y-52334438D02*
X148419046Y-52334438D01*
X146704760Y-50334438D02*
X147085713Y-50334438D01*
X147085713Y-50334438D02*
X147276189Y-50429676D01*
X147276189Y-50429676D02*
X147371427Y-50524914D01*
X147371427Y-50524914D02*
X147561903Y-50810628D01*
X147561903Y-50810628D02*
X147657141Y-51191580D01*
X147657141Y-51191580D02*
X147657141Y-51953485D01*
X147657141Y-51953485D02*
X147561903Y-52143961D01*
X147561903Y-52143961D02*
X147466665Y-52239200D01*
X147466665Y-52239200D02*
X147276189Y-52334438D01*
X147276189Y-52334438D02*
X146895236Y-52334438D01*
X146895236Y-52334438D02*
X146704760Y-52239200D01*
X146704760Y-52239200D02*
X146609522Y-52143961D01*
X146609522Y-52143961D02*
X146514284Y-51953485D01*
X146514284Y-51953485D02*
X146514284Y-51477295D01*
X146514284Y-51477295D02*
X146609522Y-51286819D01*
X146609522Y-51286819D02*
X146704760Y-51191580D01*
X146704760Y-51191580D02*
X146895236Y-51096342D01*
X146895236Y-51096342D02*
X147276189Y-51096342D01*
X147276189Y-51096342D02*
X147466665Y-51191580D01*
X147466665Y-51191580D02*
X147561903Y-51286819D01*
X147561903Y-51286819D02*
X147657141Y-51477295D01*
D14*
%TO.P,J9,1,Pin_1*%
%TO.N,GND*%
X124670000Y-119750000D03*
D15*
%TO.P,J9,2,Pin_2*%
%TO.N,+3.3V*%
X127210000Y-119750000D03*
%TO.P,J9,3,Pin_3*%
%TO.N,Encoder_FR_A*%
X129750000Y-119750000D03*
%TO.P,J9,4,Pin_4*%
%TO.N,Encoder_FR_B*%
X132290000Y-119750000D03*
%TD*%
D16*
%TO.P,J6,1,Pin_1*%
%TO.N,Net-(J6-Pin_1)*%
X86233000Y-104775000D03*
D15*
%TO.P,J6,2,Pin_2*%
%TO.N,GND*%
X83693000Y-104775000D03*
%TD*%
D17*
%TO.P,C2,1*%
%TO.N,+12V*%
X118699677Y-89789000D03*
D18*
%TO.P,C2,2*%
%TO.N,GND*%
X113699677Y-89789000D03*
%TD*%
D17*
%TO.P,C1,1*%
%TO.N,Net-(J12-Pin_2)*%
X94535000Y-135001000D03*
D18*
%TO.P,C1,2*%
%TO.N,GND*%
X89535000Y-135001000D03*
%TD*%
D19*
%TO.P,C15,1*%
%TO.N,+3.3V*%
X127250000Y-111500000D03*
%TO.P,C15,2*%
%TO.N,GND*%
X124750000Y-111500000D03*
%TD*%
D20*
%TO.P,J14,1,Pin_1*%
%TO.N,GND*%
X111125000Y-142350000D03*
D21*
%TO.P,J14,2,Pin_2*%
%TO.N,Net-(J12-Pin_2)*%
X111125000Y-139810000D03*
%TO.P,J14,3,Pin_3*%
%TO.N,Servo2*%
X111125000Y-137270000D03*
%TD*%
D22*
%TO.P,ESP1,1,3V3*%
%TO.N,+3.3V*%
X128545250Y-106522750D03*
%TO.P,ESP1,2,EN*%
%TO.N,unconnected-(ESP1-EN-Pad2)*%
X131085250Y-106522750D03*
%TO.P,ESP1,3,IO36*%
%TO.N,Encoder_FR_A*%
X133625250Y-106522750D03*
%TO.P,ESP1,4,IO39*%
%TO.N,Encoder_FR_B*%
X136165250Y-106522750D03*
%TO.P,ESP1,5,IO34*%
%TO.N,Encoder_FL_A*%
X138705250Y-106522750D03*
%TO.P,ESP1,6,IO35*%
%TO.N,Encoder_FL_B*%
X141245250Y-106522750D03*
%TO.P,ESP1,7,IO32*%
%TO.N,/V_bat*%
X143785250Y-106522750D03*
%TO.P,ESP1,8,IO33*%
%TO.N,/Vout_CS*%
X146325250Y-106522750D03*
%TO.P,ESP1,9,IO25*%
%TO.N,R_PWM_1*%
X148865250Y-106522750D03*
%TO.P,ESP1,10,IO26*%
%TO.N,L_PWM_1*%
X151405250Y-106522750D03*
%TO.P,ESP1,11,IO27*%
%TO.N,R_PWM_2*%
X153945250Y-106522750D03*
%TO.P,ESP1,12,IO14*%
%TO.N,L_PWM_2*%
X156485250Y-106522750D03*
%TO.P,ESP1,13,IO12*%
%TO.N,Servo4*%
X159025250Y-106522750D03*
%TO.P,ESP1,14,GND1*%
%TO.N,GND*%
X161565250Y-106522750D03*
%TO.P,ESP1,15,IO13*%
%TO.N,R_PWM_3*%
X164105250Y-106522750D03*
%TO.P,ESP1,16,SD2*%
%TO.N,unconnected-(ESP1-SD2-Pad16)*%
X166645250Y-106522750D03*
%TO.P,ESP1,17,SD3*%
%TO.N,unconnected-(ESP1-SD3-Pad17)*%
X169185250Y-106522750D03*
%TO.P,ESP1,18,CMD*%
%TO.N,unconnected-(ESP1-CMD-Pad18)*%
X171725250Y-106522750D03*
%TO.P,ESP1,19,EXT_5V*%
%TO.N,+5V*%
X174265250Y-106522750D03*
%TO.P,ESP1,20,CLK*%
%TO.N,unconnected-(ESP1-CLK-Pad20)*%
X174265250Y-83662750D03*
%TO.P,ESP1,21,SD0*%
%TO.N,unconnected-(ESP1-SD0-Pad21)*%
X171725250Y-83662750D03*
%TO.P,ESP1,22,SD1*%
%TO.N,unconnected-(ESP1-SD1-Pad22)*%
X169185250Y-83662750D03*
%TO.P,ESP1,23,IO15*%
%TO.N,Net-(ESP1-IO15)*%
X166645250Y-83662750D03*
%TO.P,ESP1,24,IO2*%
%TO.N,Servo2*%
X164105250Y-83662750D03*
%TO.P,ESP1,25,IO0*%
%TO.N,Net-(ESP1-IO0)*%
X161565250Y-83662750D03*
%TO.P,ESP1,26,IO4*%
%TO.N,L_PWM_3*%
X159025250Y-83662750D03*
%TO.P,ESP1,27,IO16*%
%TO.N,Encoder_RL_A*%
X156485250Y-83662750D03*
%TO.P,ESP1,28,IO17*%
%TO.N,Encoder_RL_B*%
X153945250Y-83662750D03*
%TO.P,ESP1,29,IO5*%
%TO.N,Net-(ESP1-IO5)*%
X151405250Y-83662750D03*
%TO.P,ESP1,30,IO18*%
%TO.N,Encoder_RR_A*%
X148865250Y-83662750D03*
%TO.P,ESP1,31,IO19*%
%TO.N,Encoder_RR_B*%
X146325250Y-83662750D03*
%TO.P,ESP1,32,GND2*%
%TO.N,GND*%
X143785250Y-83662750D03*
%TO.P,ESP1,33,IO21*%
%TO.N,SDA*%
X141245250Y-83662750D03*
%TO.P,ESP1,34,RXD0*%
%TO.N,unconnected-(ESP1-RXD0-Pad34)*%
X138705250Y-83662750D03*
%TO.P,ESP1,35,TXD0*%
%TO.N,unconnected-(ESP1-TXD0-Pad35)*%
X136165250Y-83662750D03*
%TO.P,ESP1,36,IO22*%
%TO.N,SCL*%
X133625250Y-83662750D03*
%TO.P,ESP1,37,IO23*%
%TO.N,L_PWM_4*%
X131085250Y-83662750D03*
%TO.P,ESP1,38,GND3*%
%TO.N,GND*%
X128545250Y-83662750D03*
%TD*%
D14*
%TO.P,J15,1,Pin_1*%
%TO.N,L_PWM_3*%
X158750000Y-62230000D03*
D15*
%TO.P,J15,2,Pin_2*%
%TO.N,R_PWM_3*%
X161290000Y-62230000D03*
%TO.P,J15,3,Pin_3*%
%TO.N,+3.3V*%
X163830000Y-62230000D03*
%TO.P,J15,4,Pin_4*%
%TO.N,GND*%
X166370000Y-62230000D03*
%TD*%
D23*
%TO.P,D5,1,K*%
%TO.N,Net-(D5-K)*%
X88646000Y-70993000D03*
D24*
%TO.P,D5,2,A*%
%TO.N,Net-(D1-A1)*%
X88646000Y-68453000D03*
%TD*%
D20*
%TO.P,J13,1,Pin_1*%
%TO.N,GND*%
X120035000Y-142240000D03*
D21*
%TO.P,J13,2,Pin_2*%
%TO.N,Net-(J12-Pin_2)*%
X120035000Y-139700000D03*
%TO.P,J13,3,Pin_3*%
%TO.N,Servo3*%
X120035000Y-137160000D03*
%TD*%
D25*
%TO.P,Q1,1,G*%
%TO.N,Net-(D4-A)*%
X89027000Y-53721000D03*
D26*
%TO.P,Q1,2,D*%
%TO.N,Net-(J1-Pin_1)*%
X89027000Y-56261000D03*
%TO.P,Q1,3,S*%
%TO.N,Net-(D1-A1)*%
X89027000Y-58801000D03*
%TD*%
D16*
%TO.P,J11,1,Pin_1*%
%TO.N,L_PWM_2*%
X162560000Y-127166000D03*
D15*
%TO.P,J11,2,Pin_2*%
%TO.N,R_PWM_2*%
X160020000Y-127166000D03*
%TO.P,J11,3,Pin_3*%
%TO.N,+3.3V*%
X157480000Y-127166000D03*
%TO.P,J11,4,Pin_4*%
%TO.N,GND*%
X154940000Y-127166000D03*
%TD*%
D20*
%TO.P,J12,1,Pin_1*%
%TO.N,GND*%
X102235000Y-142350000D03*
D21*
%TO.P,J12,2,Pin_2*%
%TO.N,Net-(J12-Pin_2)*%
X102235000Y-139810000D03*
%TO.P,J12,3,Pin_3*%
%TO.N,Servo1*%
X102235000Y-137270000D03*
%TD*%
D19*
%TO.P,F2,1*%
%TO.N,Net-(J12-Pin_2)*%
X99735000Y-131590000D03*
%TO.P,F2,2*%
%TO.N,+5V*%
X104735000Y-132790000D03*
%TD*%
D17*
%TO.P,C7,1*%
%TO.N,Net-(J2-Pin_1)*%
X91394677Y-77851000D03*
D18*
%TO.P,C7,2*%
%TO.N,GND*%
X86394677Y-77851000D03*
%TD*%
D27*
%TO.P,U2,1,Vin*%
%TO.N,Net-(J2-Pin_1)*%
X108458000Y-86360000D03*
D28*
%TO.P,U2,2,GND*%
%TO.N,GND*%
X90678000Y-86360000D03*
%TO.P,U2,3,GND*%
X90678000Y-127000000D03*
%TO.P,U2,4,Vout*%
%TO.N,+5V*%
X108458000Y-127000000D03*
%TD*%
D14*
%TO.P,J3,1,Pin_1*%
%TO.N,+3.3V*%
X133350000Y-75096000D03*
D15*
%TO.P,J3,2,Pin_2*%
%TO.N,GND*%
X135890000Y-75096000D03*
%TO.P,J3,3,Pin_3*%
%TO.N,SCL*%
X138430000Y-75096000D03*
%TO.P,J3,4,Pin_4*%
%TO.N,SDA*%
X140970000Y-75096000D03*
%TD*%
D16*
%TO.P,J10,1,Pin_1*%
%TO.N,L_PWM_1*%
X148463000Y-127381000D03*
D15*
%TO.P,J10,2,Pin_2*%
%TO.N,R_PWM_1*%
X145923000Y-127381000D03*
%TO.P,J10,3,Pin_3*%
%TO.N,+3.3V*%
X143383000Y-127381000D03*
%TO.P,J10,4,Pin_4*%
%TO.N,GND*%
X140843000Y-127381000D03*
%TD*%
D20*
%TO.P,J17,1,Pin_1*%
%TO.N,GND*%
X128905000Y-142240000D03*
D21*
%TO.P,J17,2,Pin_2*%
%TO.N,Net-(J12-Pin_2)*%
X128905000Y-139700000D03*
%TO.P,J17,3,Pin_3*%
%TO.N,Servo4*%
X128905000Y-137160000D03*
%TD*%
D14*
%TO.P,J16,1,Pin_1*%
%TO.N,GND*%
X137160000Y-115830000D03*
D15*
%TO.P,J16,2,Pin_2*%
%TO.N,+3.3V*%
X139700000Y-115830000D03*
%TO.P,J16,3,Pin_3*%
%TO.N,Encoder_FL_A*%
X142240000Y-115830000D03*
%TO.P,J16,4,Pin_4*%
%TO.N,Encoder_FL_B*%
X144780000Y-115830000D03*
%TD*%
D19*
%TO.P,C9,1*%
%TO.N,+5V*%
X170521000Y-114681000D03*
%TO.P,C9,2*%
%TO.N,GND*%
X168021000Y-114681000D03*
%TD*%
D16*
%TO.P,J4,1,Pin_1*%
%TO.N,Net-(J4-Pin_1)*%
X86233000Y-97028000D03*
D15*
%TO.P,J4,2,Pin_2*%
%TO.N,GND*%
X83693000Y-97028000D03*
%TD*%
D16*
%TO.P,J18,1,Pin_1*%
%TO.N,GND*%
X166370000Y-75096000D03*
D15*
%TO.P,J18,2,Pin_2*%
%TO.N,+3.3V*%
X163830000Y-75096000D03*
%TO.P,J18,3,Pin_3*%
%TO.N,Encoder_RL_A*%
X161290000Y-75096000D03*
%TO.P,J18,4,Pin_4*%
%TO.N,Encoder_RL_B*%
X158750000Y-75096000D03*
%TD*%
D16*
%TO.P,J5,1,Pin_1*%
%TO.N,Net-(J5-Pin_1)*%
X86233000Y-112395000D03*
D15*
%TO.P,J5,2,Pin_2*%
%TO.N,GND*%
X83693000Y-112395000D03*
%TD*%
D16*
%TO.P,J8,1,Pin_1*%
%TO.N,GND*%
X153940000Y-75096000D03*
D15*
%TO.P,J8,2,Pin_2*%
%TO.N,+3.3V*%
X151400000Y-75096000D03*
%TO.P,J8,3,Pin_3*%
%TO.N,Encoder_RR_A*%
X148860000Y-75096000D03*
%TO.P,J8,4,Pin_4*%
%TO.N,Encoder_RR_B*%
X146320000Y-75096000D03*
%TD*%
D14*
%TO.P,J19,1,Pin_1*%
%TO.N,L_PWM_4*%
X146050000Y-62230000D03*
D15*
%TO.P,J19,2,Pin_2*%
%TO.N,R_PWM_4*%
X148590000Y-62230000D03*
%TO.P,J19,3,Pin_3*%
%TO.N,+3.3V*%
X151130000Y-62230000D03*
%TO.P,J19,4,Pin_4*%
%TO.N,GND*%
X153670000Y-62230000D03*
%TD*%
D29*
%TO.P,J1,1,Pin_1*%
%TO.N,Net-(J1-Pin_1)*%
X89368000Y-48354500D03*
D30*
%TO.P,J1,2,Pin_2*%
%TO.N,GND*%
X84368000Y-48354500D03*
%TD*%
D16*
%TO.P,J2,1,Pin_1*%
%TO.N,Net-(J2-Pin_1)*%
X102730049Y-81107345D03*
D15*
%TO.P,J2,2,Pin_2*%
%TO.N,Net-(D3-K)*%
X100190049Y-81107345D03*
%TD*%
D31*
%TO.P,K1,11*%
%TO.N,Net-(D1-A1)*%
X98552000Y-58420000D03*
%TO.P,K1,12*%
%TO.N,unconnected-(K1-Pad12)*%
X116352000Y-48280000D03*
%TO.P,K1,14*%
%TO.N,Net-(U3-IN-)*%
X116352000Y-55880000D03*
D32*
%TO.P,K1,A1*%
%TO.N,GND*%
X102352000Y-71080000D03*
D18*
%TO.P,K1,A2*%
%TO.N,Net-(D3-K)*%
X112552000Y-71080000D03*
%TD*%
D33*
%TO.P,JP1,1,A*%
%TO.N,Net-(J2-Pin_1)*%
X93472000Y-68687000D03*
%TO.P,JP1,2,B*%
%TO.N,Net-(D1-A1)*%
X93472000Y-66147000D03*
%TD*%
D16*
%TO.P,J7,1,Pin_1*%
%TO.N,Net-(J7-Pin_1)*%
X86233000Y-120015000D03*
D15*
%TO.P,J7,2,Pin_2*%
%TO.N,GND*%
X83693000Y-120015000D03*
%TD*%
D34*
%TO.P,C13,1*%
%TO.N,+3.3V*%
X162250000Y-87887500D03*
%TO.P,C13,2*%
%TO.N,GND*%
X162250000Y-89612500D03*
%TD*%
D35*
%TO.P,C14,1*%
%TO.N,+3.3V*%
X159612500Y-99000000D03*
%TO.P,C14,2*%
%TO.N,GND*%
X157887500Y-99000000D03*
%TD*%
D36*
%TO.P,R22,1*%
%TO.N,GND*%
X159250000Y-102000000D03*
%TO.P,R22,2*%
%TO.N,Servo4*%
X159250000Y-103825000D03*
%TD*%
D37*
%TO.P,R7,1*%
%TO.N,Encoder_FR_B*%
X136250000Y-103759000D03*
%TO.P,R7,2*%
%TO.N,+3.3V*%
X136250000Y-101934000D03*
%TD*%
D38*
%TO.P,D3,1,K*%
%TO.N,Net-(D3-K)*%
X109942000Y-71120000D03*
%TO.P,D3,2,A*%
%TO.N,GND*%
X104942000Y-71120000D03*
%TD*%
D39*
%TO.P,C11,1*%
%TO.N,+3.3V*%
X126700000Y-114500000D03*
%TO.P,C11,2*%
%TO.N,GND*%
X124800000Y-114500000D03*
%TD*%
D40*
%TO.P,C4,1*%
%TO.N,+3.3V*%
X131250000Y-56300000D03*
%TO.P,C4,2*%
%TO.N,GND*%
X131250000Y-58200000D03*
%TD*%
D41*
%TO.P,C3,1*%
%TO.N,Net-(U3-VS)*%
X129050000Y-60500000D03*
%TO.P,C3,2*%
%TO.N,GND*%
X130950000Y-60500000D03*
%TD*%
D42*
%TO.P,D2,1,A*%
%TO.N,GND*%
X141630149Y-98086833D03*
%TO.P,D2,2,K*%
%TO.N,+3.3V*%
X141630149Y-99986833D03*
%TO.P,D2,3,COM*%
%TO.N,/V_bat*%
X139755149Y-99036833D03*
%TD*%
D43*
%TO.P,R15,1*%
%TO.N,Net-(U3-VOUT)*%
X148082000Y-98695000D03*
%TO.P,R15,2*%
%TO.N,/Vout_CS*%
X148082000Y-100695000D03*
%TD*%
D37*
%TO.P,R21,1*%
%TO.N,GND*%
X164750000Y-89912500D03*
%TO.P,R21,2*%
%TO.N,Servo2*%
X164750000Y-88087500D03*
%TD*%
D44*
%TO.P,R14,1*%
%TO.N,GND*%
X84685500Y-52705000D03*
%TO.P,R14,2*%
%TO.N,Net-(D4-A)*%
X86510500Y-52705000D03*
%TD*%
D45*
%TO.P,F3,1*%
%TO.N,Net-(J4-Pin_1)*%
X92023000Y-97409000D03*
D46*
X94573000Y-97409000D03*
D45*
X97123000Y-97409000D03*
%TO.P,F3,2*%
%TO.N,+12V*%
X107823000Y-97409000D03*
D46*
X110373000Y-97409000D03*
D45*
X112923000Y-97409000D03*
%TD*%
D41*
%TO.P,C5,1*%
%TO.N,Net-(U3-VOC)*%
X129300000Y-63000000D03*
%TO.P,C5,2*%
%TO.N,GND*%
X131200000Y-63000000D03*
%TD*%
D45*
%TO.P,F6,1*%
%TO.N,Net-(J7-Pin_1)*%
X92257000Y-120523000D03*
D46*
X94807000Y-120523000D03*
D45*
X97357000Y-120523000D03*
%TO.P,F6,2*%
%TO.N,+12V*%
X108057000Y-120523000D03*
D46*
X110607000Y-120523000D03*
D45*
X113157000Y-120523000D03*
%TD*%
D37*
%TO.P,R1,1*%
%TO.N,Encoder_FR_A*%
X133731000Y-103782500D03*
%TO.P,R1,2*%
%TO.N,+3.3V*%
X133731000Y-101957500D03*
%TD*%
D47*
%TO.P,C8,1*%
%TO.N,GND*%
X145901500Y-103124000D03*
%TO.P,C8,2*%
%TO.N,/Vout_CS*%
X147976500Y-103124000D03*
%TD*%
D44*
%TO.P,R16,1*%
%TO.N,GND*%
X84789000Y-71120000D03*
%TO.P,R16,2*%
%TO.N,Net-(D5-K)*%
X86614000Y-71120000D03*
%TD*%
D36*
%TO.P,R2,1*%
%TO.N,GND*%
X126750000Y-55837500D03*
%TO.P,R2,2*%
%TO.N,/OC*%
X126750000Y-57662500D03*
%TD*%
D37*
%TO.P,R11,1*%
%TO.N,Encoder_FL_B*%
X141224000Y-103806000D03*
%TO.P,R11,2*%
%TO.N,+3.3V*%
X141224000Y-101981000D03*
%TD*%
D44*
%TO.P,R3,1*%
%TO.N,Net-(U3-VOC)*%
X122837500Y-57250000D03*
%TO.P,R3,2*%
%TO.N,Net-(U3-VS)*%
X124662500Y-57250000D03*
%TD*%
D37*
%TO.P,R10,1*%
%TO.N,Encoder_FL_A*%
X138750000Y-103806000D03*
%TO.P,R10,2*%
%TO.N,+3.3V*%
X138750000Y-101981000D03*
%TD*%
D48*
%TO.P,R5,1*%
%TO.N,GND*%
X145764000Y-99060000D03*
%TO.P,R5,2*%
%TO.N,/V_bat*%
X143764000Y-99060000D03*
%TD*%
D49*
%TO.P,U3,1,IN+*%
%TO.N,+12V*%
X117319024Y-66675000D03*
%TO.P,U3,2,IN-*%
%TO.N,Net-(U3-IN-)*%
X117319024Y-61595000D03*
D50*
%TO.P,U3,3,\u002AOC*%
%TO.N,/OC*%
X126619000Y-59690000D03*
%TO.P,U3,4,VS*%
%TO.N,Net-(U3-VS)*%
X126619000Y-60960000D03*
%TO.P,U3,5,VOC*%
%TO.N,Net-(U3-VOC)*%
X126619000Y-62230000D03*
%TO.P,U3,6,VOUT*%
%TO.N,Net-(U3-VOUT)*%
X126619000Y-63500000D03*
%TO.P,U3,7,VREF*%
%TO.N,/Vref_CS*%
X126619000Y-64770000D03*
%TO.P,U3,8,NC*%
%TO.N,unconnected-(U3-NC-Pad8)*%
X126619000Y-66040000D03*
%TO.P,U3,9,GND*%
%TO.N,GND*%
X126619000Y-67310000D03*
%TO.P,U3,10,NC*%
%TO.N,unconnected-(U3-NC-Pad10)*%
X126619000Y-68580000D03*
%TD*%
D51*
%TO.P,D4,1,K*%
%TO.N,Net-(D1-A1)*%
X86614000Y-58138000D03*
%TO.P,D4,2,A*%
%TO.N,Net-(D4-A)*%
X86614000Y-54638000D03*
%TD*%
D52*
%TO.P,R4,1*%
%TO.N,GND*%
X131162500Y-65000000D03*
%TO.P,R4,2*%
%TO.N,Net-(U3-VOC)*%
X129337500Y-65000000D03*
%TD*%
D53*
%TO.P,U4,1,B1*%
%TO.N,+3.3V*%
X160637500Y-87600000D03*
%TO.P,U4,2,GND*%
%TO.N,GND*%
X160637500Y-88250000D03*
%TO.P,U4,3,B0*%
X160637500Y-88900000D03*
%TO.P,U4,4,A*%
%TO.N,Servo1*%
X158362500Y-88900000D03*
%TO.P,U4,5,VCC*%
%TO.N,+3.3V*%
X158362500Y-88250000D03*
%TO.P,U4,6,S*%
%TO.N,Net-(ESP1-IO0)*%
X158362500Y-87600000D03*
%TD*%
D35*
%TO.P,C12,1*%
%TO.N,+3.3V*%
X151112500Y-68750000D03*
%TO.P,C12,2*%
%TO.N,GND*%
X149387500Y-68750000D03*
%TD*%
D54*
%TO.P,U1,1,B1*%
%TO.N,+3.3V*%
X150250000Y-67275000D03*
%TO.P,U1,2,GND*%
%TO.N,GND*%
X149600000Y-67275000D03*
%TO.P,U1,3,B0*%
X148950000Y-67275000D03*
%TO.P,U1,4,A*%
%TO.N,R_PWM_4*%
X148950000Y-65000000D03*
%TO.P,U1,5,VCC*%
%TO.N,+3.3V*%
X149600000Y-65000000D03*
%TO.P,U1,6,S*%
%TO.N,Net-(ESP1-IO5)*%
X150250000Y-65000000D03*
%TD*%
D36*
%TO.P,R9,1*%
%TO.N,Encoder_RR_B*%
X146431000Y-86313000D03*
%TO.P,R9,2*%
%TO.N,+3.3V*%
X146431000Y-88138000D03*
%TD*%
D55*
%TO.P,FB1,1*%
%TO.N,+3.3V*%
X129250000Y-56187500D03*
%TO.P,FB1,2*%
%TO.N,Net-(U3-VS)*%
X129250000Y-58312500D03*
%TD*%
D45*
%TO.P,F5,1*%
%TO.N,Net-(J6-Pin_1)*%
X92130000Y-105283000D03*
D46*
X94680000Y-105283000D03*
D45*
X97230000Y-105283000D03*
%TO.P,F5,2*%
%TO.N,+12V*%
X107930000Y-105283000D03*
D46*
X110480000Y-105283000D03*
D45*
X113030000Y-105283000D03*
%TD*%
D56*
%TO.P,C6,1*%
%TO.N,GND*%
X145801500Y-101092000D03*
%TO.P,C6,2*%
%TO.N,/V_bat*%
X143726500Y-101092000D03*
%TD*%
D36*
%TO.P,R13,1*%
%TO.N,Encoder_RL_B*%
X153500000Y-86186000D03*
%TO.P,R13,2*%
%TO.N,+3.3V*%
X153500000Y-88011000D03*
%TD*%
%TO.P,R8,1*%
%TO.N,Encoder_RR_A*%
X148942000Y-86313000D03*
%TO.P,R8,2*%
%TO.N,+3.3V*%
X148942000Y-88138000D03*
%TD*%
%TO.P,R12,1*%
%TO.N,Encoder_RL_A*%
X156167000Y-86186000D03*
%TO.P,R12,2*%
%TO.N,+3.3V*%
X156167000Y-88011000D03*
%TD*%
D39*
%TO.P,C10,1*%
%TO.N,+5V*%
X170114000Y-109982000D03*
%TO.P,C10,2*%
%TO.N,GND*%
X168214000Y-109982000D03*
%TD*%
D48*
%TO.P,R6,1*%
%TO.N,/V_bat*%
X137750000Y-99000000D03*
%TO.P,R6,2*%
%TO.N,+12V*%
X135750000Y-99000000D03*
%TD*%
D57*
%TO.P,D1,1,A1*%
%TO.N,Net-(D1-A1)*%
X89060000Y-64770000D03*
%TO.P,D1,2,A2*%
%TO.N,GND*%
X83660000Y-64770000D03*
%TD*%
D54*
%TO.P,U5,1,B1*%
%TO.N,+3.3V*%
X159650000Y-97387500D03*
%TO.P,U5,2,GND*%
%TO.N,GND*%
X159000000Y-97387500D03*
%TO.P,U5,3,B0*%
X158350000Y-97387500D03*
%TO.P,U5,4,A*%
%TO.N,Servo3*%
X158350000Y-95112500D03*
%TO.P,U5,5,VCC*%
%TO.N,+3.3V*%
X159000000Y-95112500D03*
%TO.P,U5,6,S*%
%TO.N,Net-(ESP1-IO15)*%
X159650000Y-95112500D03*
%TD*%
D45*
%TO.P,F4,1*%
%TO.N,Net-(J5-Pin_1)*%
X92166000Y-112903000D03*
D46*
X94716000Y-112903000D03*
D45*
X97266000Y-112903000D03*
%TO.P,F4,2*%
%TO.N,+12V*%
X107966000Y-112903000D03*
D46*
X110516000Y-112903000D03*
D45*
X113066000Y-112903000D03*
%TD*%
D58*
%TO.N,GND*%
X143758682Y-96741317D03*
X165653746Y-71539500D03*
X153000000Y-71500000D03*
X124250000Y-124250000D03*
X153750000Y-100500000D03*
X158750000Y-71500000D03*
X152146000Y-135750000D03*
X152146000Y-127381000D03*
X143688893Y-71790136D03*
X141500000Y-135750000D03*
X168800000Y-62200000D03*
X162000000Y-91250000D03*
X138620500Y-126174500D03*
%TO.N,+3.3V*%
X118652311Y-101037259D03*
X160376981Y-68709176D03*
X143400000Y-87400000D03*
X133350000Y-71650000D03*
X133875000Y-57375000D03*
X146750000Y-68750000D03*
%TO.N,+5V*%
X107927781Y-130959219D03*
X175260000Y-110490000D03*
%TO.N,Servo1*%
X118500000Y-104500000D03*
X153800000Y-90800000D03*
%TO.N,Servo2*%
X164105250Y-86250000D03*
X121000000Y-105500000D03*
%TO.N,Servo3*%
X152000000Y-97400000D03*
X123000000Y-107250000D03*
%TD*%
D59*
%TO.N,GND*%
X131250000Y-58200000D02*
X130998000Y-58452000D01*
D60*
X162250000Y-89612500D02*
X162250000Y-91000000D01*
D59*
X137250000Y-59750000D02*
X137250000Y-57250000D01*
D60*
X124460000Y-124040000D02*
X124250000Y-124250000D01*
X113826677Y-89662000D02*
X113826677Y-84351397D01*
D61*
X153946993Y-73628487D02*
X153946993Y-75338487D01*
D59*
X134500000Y-54500000D02*
X128087500Y-54500000D01*
D60*
X162000000Y-91250000D02*
X163412500Y-91250000D01*
D59*
X128750000Y-67310000D02*
X129815000Y-67310000D01*
D60*
X102352000Y-72876720D02*
X102352000Y-71080000D01*
D59*
X132700000Y-61500000D02*
X135500000Y-61500000D01*
D62*
X82677000Y-83947000D02*
X82677000Y-74803000D01*
D59*
X145764000Y-99060000D02*
X145764000Y-98014000D01*
D61*
X166370000Y-74221225D02*
X166370000Y-75931225D01*
D63*
X112175677Y-90297000D02*
X94615000Y-90297000D01*
D59*
X129815000Y-67310000D02*
X131125000Y-66000000D01*
D64*
X159000000Y-97387500D02*
X158350000Y-97387500D01*
D60*
X153670000Y-65420000D02*
X158750000Y-70500000D01*
D59*
X130998000Y-58452000D02*
X130998000Y-60325000D01*
D63*
X143688893Y-81715612D02*
X143688893Y-71790136D01*
D59*
X131200000Y-63000000D02*
X132700000Y-61500000D01*
D60*
X128600000Y-71000000D02*
X128600000Y-70200000D01*
X166370000Y-72370000D02*
X166370000Y-75096000D01*
X128545250Y-71054750D02*
X128600000Y-71000000D01*
D64*
X160637500Y-88250000D02*
X160637500Y-88900000D01*
D59*
X129250000Y-67810000D02*
X128750000Y-67310000D01*
X131125000Y-66000000D02*
X131162500Y-66000000D01*
D60*
X168214000Y-109982000D02*
X162052000Y-109982000D01*
X124750000Y-111500000D02*
X124750000Y-112000000D01*
X129035000Y-142130000D02*
X128925000Y-142240000D01*
D65*
X82550000Y-86387432D02*
X85117432Y-86387432D01*
D60*
X165653746Y-71539500D02*
X165653746Y-71653746D01*
X139612000Y-127166000D02*
X138620500Y-126174500D01*
D59*
X128087500Y-54500000D02*
X126750000Y-55837500D01*
D60*
X143785250Y-83662750D02*
X143800000Y-83648000D01*
X143785250Y-82014750D02*
X143800000Y-82000000D01*
D59*
X142716982Y-97000000D02*
X141630149Y-98086833D01*
D60*
X166400000Y-62200000D02*
X166370000Y-62230000D01*
X163412500Y-91250000D02*
X164750000Y-89912500D01*
D62*
X82550000Y-84074000D02*
X82677000Y-83947000D01*
X82550000Y-86387432D02*
X82550000Y-84074000D01*
D61*
X143800000Y-83648000D02*
X143800000Y-82000000D01*
D66*
X161565250Y-109495250D02*
X162052000Y-109982000D01*
D60*
X113826677Y-84351397D02*
X102352000Y-72876720D01*
X157887500Y-99000000D02*
X157887500Y-100637500D01*
X113699677Y-89789000D02*
X113826677Y-89662000D01*
D59*
X135500000Y-61500000D02*
X137250000Y-59750000D01*
D61*
X124607308Y-110710494D02*
X124607308Y-112420494D01*
D63*
X82931000Y-77851000D02*
X82931000Y-74549000D01*
D66*
X128925000Y-142240000D02*
X95250000Y-142240000D01*
D65*
X85117432Y-86387432D02*
X85217000Y-86487000D01*
D59*
X129315000Y-67810000D02*
X129815000Y-67310000D01*
X131200000Y-64000000D02*
X131200000Y-63000000D01*
D66*
X89662000Y-136652000D02*
X89662000Y-128016000D01*
D64*
X149600000Y-67275000D02*
X148950000Y-67275000D01*
D60*
X143688893Y-71790136D02*
X143298757Y-71400000D01*
X129200000Y-67860000D02*
X129250000Y-67810000D01*
X128545250Y-83662750D02*
X128545250Y-71054750D01*
X155250000Y-102000000D02*
X159250000Y-102000000D01*
D62*
X82677000Y-50045500D02*
X83448573Y-49273927D01*
X82677000Y-74803000D02*
X82677000Y-50045500D01*
D60*
X153670000Y-62230000D02*
X153670000Y-65420000D01*
X158750000Y-70500000D02*
X158750000Y-71500000D01*
X128600000Y-70200000D02*
X129200000Y-69600000D01*
D64*
X161350000Y-89612500D02*
X160637500Y-88900000D01*
D63*
X94615000Y-90297000D02*
X90678000Y-86360000D01*
D59*
X131162500Y-64037500D02*
X131200000Y-64000000D01*
D65*
X82550000Y-85271864D02*
X82550000Y-86387432D01*
D60*
X129200000Y-69600000D02*
X129200000Y-67860000D01*
D63*
X112683677Y-89789000D02*
X112175677Y-90297000D01*
D65*
X85217000Y-86487000D02*
X90551000Y-86487000D01*
D60*
X168800000Y-62200000D02*
X166400000Y-62200000D01*
X124750000Y-112000000D02*
X124460000Y-112290000D01*
X137160000Y-124714000D02*
X137160000Y-115830000D01*
D59*
X130998000Y-60000000D02*
X130998000Y-62798000D01*
D61*
X135890000Y-73835888D02*
X135890000Y-75545888D01*
D66*
X132500000Y-142240000D02*
X129145000Y-142240000D01*
X167750000Y-133240000D02*
X165240000Y-135750000D01*
D63*
X82931000Y-74549000D02*
X82677000Y-74803000D01*
D60*
X143298757Y-71400000D02*
X137850000Y-71400000D01*
X140970000Y-127166000D02*
X139612000Y-127166000D01*
D64*
X157887500Y-99000000D02*
X157887500Y-97850000D01*
D66*
X162052000Y-109982000D02*
X167750000Y-115680000D01*
D60*
X137850000Y-71400000D02*
X135890000Y-73360000D01*
D59*
X145901500Y-99197500D02*
X145764000Y-99060000D01*
D60*
X124460000Y-112290000D02*
X124460000Y-124040000D01*
D59*
X137250000Y-57250000D02*
X134500000Y-54500000D01*
D60*
X157887500Y-100637500D02*
X159250000Y-102000000D01*
D65*
X82804000Y-85017864D02*
X82550000Y-85271864D01*
D64*
X152000000Y-70500000D02*
X150750000Y-70500000D01*
D59*
X129250000Y-67810000D02*
X129315000Y-67810000D01*
D66*
X141500000Y-135750000D02*
X138990000Y-135750000D01*
D59*
X130998000Y-62798000D02*
X131200000Y-63000000D01*
X144750000Y-97000000D02*
X142716982Y-97000000D01*
D63*
X113699677Y-89789000D02*
X112683677Y-89789000D01*
D67*
X126619000Y-67310000D02*
X128750000Y-67310000D01*
D60*
X165653746Y-71653746D02*
X166370000Y-72370000D01*
X160750000Y-102000000D02*
X161565250Y-102815250D01*
X145901500Y-103124000D02*
X145901500Y-99197500D01*
D64*
X149600000Y-69350000D02*
X149600000Y-67275000D01*
D59*
X131162500Y-66000000D02*
X131162500Y-64037500D01*
D66*
X129145000Y-142240000D02*
X129035000Y-142130000D01*
D59*
X145764000Y-98014000D02*
X144750000Y-97000000D01*
D66*
X95250000Y-142240000D02*
X89662000Y-136652000D01*
D64*
X153000000Y-71500000D02*
X152000000Y-70500000D01*
D62*
X82550000Y-119606568D02*
X82550000Y-86387432D01*
D66*
X138990000Y-135750000D02*
X132500000Y-142240000D01*
D60*
X138620500Y-126174500D02*
X137160000Y-124714000D01*
D61*
X153670000Y-61471410D02*
X153670000Y-63181410D01*
D64*
X162250000Y-89612500D02*
X161350000Y-89612500D01*
D63*
X86394677Y-77851000D02*
X82931000Y-77851000D01*
D60*
X152361000Y-127166000D02*
X152146000Y-127381000D01*
X135890000Y-73360000D02*
X135890000Y-75096000D01*
X153670000Y-72170000D02*
X153670000Y-75096000D01*
D64*
X150750000Y-70500000D02*
X149600000Y-69350000D01*
D60*
X160750000Y-102000000D02*
X159250000Y-102000000D01*
D66*
X89662000Y-128016000D02*
X90678000Y-127000000D01*
D60*
X153750000Y-100500000D02*
X155250000Y-102000000D01*
X153000000Y-71500000D02*
X153670000Y-72170000D01*
D64*
X157887500Y-97850000D02*
X158350000Y-97387500D01*
D66*
X161565250Y-106522750D02*
X161565250Y-109495250D01*
D60*
X161565250Y-102815250D02*
X161565250Y-106522750D01*
D66*
X165240000Y-135750000D02*
X141500000Y-135750000D01*
D64*
X162250000Y-91000000D02*
X162000000Y-91250000D01*
D66*
X167750000Y-115680000D02*
X167750000Y-133240000D01*
D60*
X154940000Y-127166000D02*
X152361000Y-127166000D01*
%TO.N,+12V*%
X115234000Y-98400000D02*
X114574000Y-99060000D01*
D63*
X110373000Y-97409000D02*
X110373000Y-120289000D01*
D59*
X114574000Y-99060000D02*
X112923000Y-97409000D01*
D62*
X113157000Y-97175000D02*
X113157000Y-120396000D01*
D68*
X110373000Y-120289000D02*
X110607000Y-120523000D01*
D62*
X117319024Y-66675000D02*
X118826677Y-68182653D01*
X118826677Y-91505323D02*
X113157000Y-97175000D01*
D63*
X117314769Y-66679255D02*
X117319024Y-66675000D01*
D60*
X135690000Y-99060000D02*
X135030000Y-98400000D01*
D59*
X135750000Y-99000000D02*
X135690000Y-99060000D01*
D62*
X118826677Y-68182653D02*
X118826677Y-91505323D01*
D60*
X135030000Y-98400000D02*
X115234000Y-98400000D01*
D64*
%TO.N,+3.3V*%
X149600000Y-64150000D02*
X151130000Y-62620000D01*
D60*
X143510000Y-127508000D02*
X143510000Y-129540000D01*
X151500000Y-93500000D02*
X159000000Y-93500000D01*
X127750000Y-111010000D02*
X127750000Y-112000000D01*
X139700000Y-121920000D02*
X143510000Y-125730000D01*
D61*
X163830000Y-60947451D02*
X163830000Y-62657451D01*
D64*
X150250000Y-67275000D02*
X150250000Y-66375000D01*
D60*
X163000000Y-58750000D02*
X163830000Y-59580000D01*
X160709176Y-68709176D02*
X161500000Y-69500000D01*
X132800000Y-56300000D02*
X131250000Y-56300000D01*
D64*
X159000000Y-95112500D02*
X159000000Y-95838104D01*
D60*
X163830000Y-73705000D02*
X163830000Y-75096000D01*
X130519000Y-101981000D02*
X128545250Y-103954750D01*
X151130000Y-59870000D02*
X152250000Y-58750000D01*
D64*
X149600000Y-65725000D02*
X149600000Y-65000000D01*
D60*
X146750000Y-70500000D02*
X148500000Y-72250000D01*
X156591000Y-88011000D02*
X146558000Y-88011000D01*
X156250000Y-58750000D02*
X163000000Y-58750000D01*
X128545250Y-106522750D02*
X128545250Y-107750000D01*
D61*
X127195975Y-118990050D02*
X127195975Y-120700050D01*
D60*
X128545250Y-110214750D02*
X127750000Y-111010000D01*
D64*
X150250000Y-67500000D02*
X151112500Y-68362500D01*
D60*
X127210000Y-122210000D02*
X135810000Y-130810000D01*
D64*
X159000000Y-93500000D02*
X159000000Y-95112500D01*
D60*
X160376981Y-68709176D02*
X160709176Y-68709176D01*
D64*
X158362500Y-88250000D02*
X156830000Y-88250000D01*
D60*
X157480000Y-127166000D02*
X157480000Y-129540000D01*
D64*
X160637500Y-87600000D02*
X161962500Y-87600000D01*
X159428424Y-87928424D02*
X159756849Y-87600000D01*
X159000000Y-95838104D02*
X159650000Y-96488104D01*
X156830000Y-88250000D02*
X156591000Y-88011000D01*
X159650000Y-96488104D02*
X159650000Y-97387500D01*
X151112500Y-68362500D02*
X151112500Y-68750000D01*
D60*
X161500000Y-69500000D02*
X161500000Y-71375000D01*
X156250000Y-64250000D02*
X156250000Y-58750000D01*
X118652311Y-101037259D02*
X118689570Y-101000000D01*
X163830000Y-59580000D02*
X163830000Y-62230000D01*
D59*
X129250000Y-56187500D02*
X129362500Y-56300000D01*
D60*
X160376981Y-68709176D02*
X160376981Y-68376981D01*
D64*
X150250000Y-66375000D02*
X149600000Y-65725000D01*
D60*
X148942000Y-88138000D02*
X148942000Y-90942000D01*
X152250000Y-58750000D02*
X156250000Y-58750000D01*
D64*
X149600000Y-65000000D02*
X149600000Y-64150000D01*
D60*
X139700000Y-115830000D02*
X139700000Y-121920000D01*
X129362500Y-56300000D02*
X131250000Y-56300000D01*
X146750000Y-68750000D02*
X146750000Y-70500000D01*
D64*
X151130000Y-62620000D02*
X151130000Y-62230000D01*
D60*
X151130000Y-73380000D02*
X151130000Y-75096000D01*
X135810000Y-130810000D02*
X142240000Y-130810000D01*
X143510000Y-125730000D02*
X143510000Y-127254000D01*
X156210000Y-130810000D02*
X142240000Y-130810000D01*
X150000000Y-72250000D02*
X151130000Y-73380000D01*
X143383000Y-127381000D02*
X143510000Y-127508000D01*
X121795250Y-101000000D02*
X128545250Y-107750000D01*
D64*
X159106849Y-88250000D02*
X159428424Y-87928424D01*
D60*
X127210000Y-112540000D02*
X127210000Y-122210000D01*
D61*
X127554579Y-110655915D02*
X127554579Y-112365915D01*
X151414523Y-74294352D02*
X151414523Y-76004352D01*
D60*
X148500000Y-72250000D02*
X150000000Y-72250000D01*
X133350000Y-75096000D02*
X133350000Y-71650000D01*
X128545250Y-107750000D02*
X128545250Y-110214750D01*
D64*
X159756849Y-87600000D02*
X160637500Y-87600000D01*
X158362500Y-88250000D02*
X159106849Y-88250000D01*
D60*
X148942000Y-90942000D02*
X151500000Y-93500000D01*
X144138000Y-88138000D02*
X143400000Y-87400000D01*
X143510000Y-127254000D02*
X143383000Y-127381000D01*
D61*
X143383000Y-126526000D02*
X143383000Y-128236000D01*
D60*
X127750000Y-112000000D02*
X127210000Y-112540000D01*
D59*
X146558000Y-88011000D02*
X146431000Y-88138000D01*
D60*
X133875000Y-57375000D02*
X132800000Y-56300000D01*
D64*
X159650000Y-97387500D02*
X159650000Y-98962500D01*
D59*
X156500000Y-88102000D02*
X156591000Y-88011000D01*
D61*
X139700000Y-114975000D02*
X139700000Y-116685000D01*
X157480000Y-126488848D02*
X157480000Y-128198848D01*
X163830000Y-74241000D02*
X163830000Y-75951000D01*
D60*
X128545250Y-103954750D02*
X128545250Y-106522750D01*
X161500000Y-71375000D02*
X163830000Y-73705000D01*
D61*
X151130000Y-61253094D02*
X151130000Y-62963094D01*
D64*
X159650000Y-98962500D02*
X159612500Y-99000000D01*
X161962500Y-87600000D02*
X162250000Y-87887500D01*
D61*
X133350000Y-74228857D02*
X133350000Y-75938857D01*
D60*
X141224000Y-101981000D02*
X130519000Y-101981000D01*
D59*
X141630149Y-101574851D02*
X141224000Y-101981000D01*
D60*
X146431000Y-88138000D02*
X144138000Y-88138000D01*
X136250000Y-68750000D02*
X133350000Y-71650000D01*
X157480000Y-129540000D02*
X156210000Y-130810000D01*
D64*
X150250000Y-67275000D02*
X150250000Y-67500000D01*
D60*
X151130000Y-62230000D02*
X151130000Y-59870000D01*
X118689570Y-101000000D02*
X121795250Y-101000000D01*
X143510000Y-129540000D02*
X142240000Y-130810000D01*
X146750000Y-68750000D02*
X136250000Y-68750000D01*
X160376981Y-68376981D02*
X156250000Y-64250000D01*
X141462542Y-100266436D02*
X141462542Y-101854454D01*
%TO.N,Net-(D3-K)*%
X99060000Y-79977296D02*
X99060000Y-68580000D01*
D61*
X100189617Y-80251913D02*
X100189617Y-81961913D01*
D60*
X112512000Y-71120000D02*
X112552000Y-71080000D01*
D61*
X112552000Y-70225000D02*
X112552000Y-71935000D01*
D60*
X100190049Y-81107345D02*
X99060000Y-79977296D01*
X109942000Y-71120000D02*
X112512000Y-71120000D01*
X99060000Y-68580000D02*
X100330000Y-67310000D01*
X108782000Y-67310000D02*
X112552000Y-71080000D01*
X100330000Y-67310000D02*
X108782000Y-67310000D01*
%TO.N,R_PWM_3*%
X164105250Y-104626750D02*
X178750000Y-89982000D01*
X161290000Y-63090000D02*
X161290000Y-62690000D01*
X164105250Y-106522750D02*
X164105250Y-104626750D01*
X178750000Y-76750000D02*
X167800000Y-65800000D01*
X178750000Y-89982000D02*
X178750000Y-76750000D01*
D61*
X161303068Y-61087773D02*
X161303068Y-62797773D01*
D60*
X167800000Y-65800000D02*
X164000000Y-65800000D01*
D59*
X161290000Y-62690000D02*
X161290000Y-62230000D01*
D60*
X164000000Y-65800000D02*
X161290000Y-63090000D01*
D61*
%TO.N,Encoder_FL_B*%
X144780000Y-114884639D02*
X144780000Y-116594639D01*
D60*
X141245250Y-106522750D02*
X141245250Y-108479250D01*
X141245250Y-108479250D02*
X144780000Y-112014000D01*
X144780000Y-112014000D02*
X144780000Y-115830000D01*
D59*
X141224000Y-106501500D02*
X141245250Y-106522750D01*
D60*
X141224000Y-103806000D02*
X141224000Y-106501500D01*
%TO.N,Net-(J4-Pin_1)*%
X91642000Y-97028000D02*
X92023000Y-97409000D01*
D65*
X87503000Y-97028000D02*
X91642000Y-97028000D01*
D60*
X86233000Y-97028000D02*
X87503000Y-97028000D01*
D61*
X86324283Y-96173000D02*
X86324283Y-97883000D01*
D66*
%TO.N,+5V*%
X174265250Y-109495250D02*
X175260000Y-110490000D01*
D60*
X170114000Y-109982000D02*
X173778500Y-109982000D01*
D66*
X174265250Y-106522750D02*
X174265250Y-109495250D01*
D63*
X107898560Y-130959219D02*
X106067779Y-132790000D01*
D60*
X170521000Y-114681000D02*
X171069000Y-114681000D01*
D63*
X107927781Y-130959219D02*
X108458000Y-130429000D01*
X107927781Y-130959219D02*
X107898560Y-130959219D01*
X108458000Y-130429000D02*
X108458000Y-127000000D01*
X171069000Y-114681000D02*
X175260000Y-110490000D01*
D60*
X173778500Y-109982000D02*
X174265250Y-109495250D01*
D63*
X106067779Y-132790000D02*
X104735000Y-132790000D01*
D60*
%TO.N,Encoder_RR_A*%
X148942000Y-86313000D02*
X148942000Y-83739500D01*
D59*
X148942000Y-83739500D02*
X148865250Y-83662750D01*
X148590000Y-83387500D02*
X148865250Y-83662750D01*
D60*
X148590000Y-75096000D02*
X148590000Y-83387500D01*
D61*
X148871137Y-74709153D02*
X148871137Y-76419153D01*
%TO.N,Net-(J5-Pin_1)*%
X86282747Y-111540000D02*
X86282747Y-113250000D01*
D65*
X87376000Y-112395000D02*
X92013000Y-112395000D01*
D60*
X92013000Y-112395000D02*
X92140000Y-112522000D01*
X86233000Y-112395000D02*
X87376000Y-112395000D01*
%TO.N,L_PWM_2*%
X156485250Y-117735250D02*
X162560000Y-123810000D01*
X162560000Y-123810000D02*
X162560000Y-127166000D01*
X156485250Y-106522750D02*
X156485250Y-117735250D01*
D61*
X162560000Y-126311000D02*
X162560000Y-128021000D01*
%TO.N,Encoder_RL_B*%
X158750000Y-74565073D02*
X158750000Y-76275073D01*
D60*
X153924000Y-85762000D02*
X153924000Y-83684000D01*
X153945250Y-83662750D02*
X153945250Y-81654750D01*
X153500000Y-86186000D02*
X153924000Y-85762000D01*
X158750000Y-76850000D02*
X158750000Y-75096000D01*
D59*
X153924000Y-83684000D02*
X153945250Y-83662750D01*
D60*
X153945250Y-81654750D02*
X158750000Y-76850000D01*
%TO.N,Net-(J6-Pin_1)*%
X86233000Y-104775000D02*
X87630000Y-104775000D01*
X91622000Y-104775000D02*
X92130000Y-105283000D01*
D61*
X86299121Y-103920000D02*
X86299121Y-105630000D01*
D65*
X87630000Y-104775000D02*
X91622000Y-104775000D01*
D60*
%TO.N,R_PWM_1*%
X148865250Y-106522750D02*
X148865250Y-121384750D01*
X145923000Y-124327000D02*
X145923000Y-126365000D01*
X148865250Y-121384750D02*
X145923000Y-124327000D01*
D59*
X145923000Y-126365000D02*
X145923000Y-127381000D01*
D61*
X145923000Y-126526000D02*
X145923000Y-128236000D01*
D60*
%TO.N,L_PWM_3*%
X167750000Y-79250000D02*
X169750000Y-77250000D01*
X159025250Y-82528750D02*
X162304000Y-79250000D01*
D59*
X158750000Y-62865000D02*
X158750000Y-62230000D01*
D60*
X164028750Y-68628750D02*
X158750000Y-63350000D01*
X166828750Y-68628750D02*
X164028750Y-68628750D01*
D61*
X158750000Y-61375000D02*
X158750000Y-63085000D01*
D60*
X162304000Y-79250000D02*
X167750000Y-79250000D01*
X169750000Y-77250000D02*
X169750000Y-71550000D01*
X159025250Y-83662750D02*
X159025250Y-82528750D01*
X158750000Y-63350000D02*
X158750000Y-62865000D01*
X169750000Y-71550000D02*
X166828750Y-68628750D01*
%TO.N,SCL*%
X133625250Y-83544750D02*
X133625250Y-81774750D01*
D59*
X133625250Y-83662750D02*
X133625250Y-83544750D01*
D61*
X138430000Y-74752816D02*
X138430000Y-76462816D01*
D60*
X133625250Y-81774750D02*
X138430000Y-76970000D01*
X138430000Y-76970000D02*
X138430000Y-75096000D01*
D65*
%TO.N,Net-(J7-Pin_1)*%
X87503000Y-120015000D02*
X91876000Y-120015000D01*
D60*
X86233000Y-120015000D02*
X87503000Y-120015000D01*
D61*
X86282747Y-119160000D02*
X86282747Y-120870000D01*
D60*
X91876000Y-120015000D02*
X92257000Y-120396000D01*
D61*
%TO.N,SDA*%
X140970000Y-74730985D02*
X140970000Y-76440985D01*
D59*
X140970000Y-83387500D02*
X141245250Y-83662750D01*
D60*
X140970000Y-75096000D02*
X140970000Y-83387500D01*
D64*
%TO.N,R_PWM_4*%
X148950000Y-62590000D02*
X148590000Y-62230000D01*
X148950000Y-65000000D02*
X148950000Y-62590000D01*
D61*
X148617946Y-60991114D02*
X148617946Y-62701114D01*
D60*
%TO.N,L_PWM_4*%
X131085250Y-83662750D02*
X131085250Y-70514750D01*
X139370000Y-62230000D02*
X146050000Y-62230000D01*
X131085250Y-70514750D02*
X139370000Y-62230000D01*
D61*
X146050000Y-61375000D02*
X146050000Y-63085000D01*
D59*
%TO.N,Encoder_RL_A*%
X156591000Y-83768500D02*
X156485250Y-83662750D01*
D61*
X161290000Y-74565073D02*
X161290000Y-76275073D01*
D60*
X156485250Y-83662750D02*
X156485250Y-81914750D01*
X156591000Y-85762000D02*
X156591000Y-83768500D01*
X156485250Y-81914750D02*
X161290000Y-77110000D01*
X156167000Y-86186000D02*
X156591000Y-85762000D01*
X161290000Y-77110000D02*
X161290000Y-75096000D01*
%TO.N,Encoder_RR_B*%
X146431000Y-86313000D02*
X146431000Y-83768500D01*
D59*
X146431000Y-83768500D02*
X146325250Y-83662750D01*
X146050000Y-83387500D02*
X146325250Y-83662750D01*
D61*
X146338667Y-74774648D02*
X146338667Y-76484648D01*
D60*
X146400000Y-75054250D02*
X146400000Y-83345750D01*
%TO.N,R_PWM_2*%
X160020000Y-125125000D02*
X153945250Y-119050250D01*
X153945250Y-119050250D02*
X153945250Y-106522750D01*
D61*
X160020000Y-126305314D02*
X160020000Y-128015314D01*
D60*
X160020000Y-127166000D02*
X160020000Y-125125000D01*
D59*
%TO.N,Net-(D4-A)*%
X86614000Y-52808500D02*
X86510500Y-52705000D01*
D60*
X86614000Y-54638000D02*
X86614000Y-52808500D01*
D59*
X88998000Y-53750000D02*
X89027000Y-53721000D01*
D60*
X87500000Y-53750000D02*
X88998000Y-53750000D01*
X86510500Y-52760500D02*
X87500000Y-53750000D01*
D59*
X86510500Y-52705000D02*
X86510500Y-52760500D01*
D60*
%TO.N,Encoder_FL_A*%
X142240000Y-115830000D02*
X142240000Y-112903000D01*
X138684000Y-109347000D02*
X138684000Y-106544000D01*
D61*
X142240000Y-114950134D02*
X142240000Y-116660134D01*
D59*
X138750000Y-106478000D02*
X138705250Y-106522750D01*
D60*
X142240000Y-112903000D02*
X138684000Y-109347000D01*
X138750000Y-103806000D02*
X138750000Y-106478000D01*
D59*
X138684000Y-106544000D02*
X138705250Y-106522750D01*
D60*
%TO.N,/V_bat*%
X143785250Y-106522750D02*
X143785250Y-99081250D01*
D59*
X139500000Y-99060000D02*
X143764000Y-99060000D01*
D67*
X137810000Y-99060000D02*
X139500000Y-99060000D01*
D59*
X143785250Y-99081250D02*
X143764000Y-99060000D01*
X137750000Y-99000000D02*
X137810000Y-99060000D01*
D60*
%TO.N,Encoder_FR_B*%
X132250000Y-119580000D02*
X132250000Y-115660000D01*
X136165250Y-111744750D02*
X136165250Y-106522750D01*
X132250000Y-115660000D02*
X136165250Y-111744750D01*
D59*
X136250000Y-106438000D02*
X136165250Y-106522750D01*
D61*
X132304579Y-118924555D02*
X132304579Y-120634555D01*
D60*
X136250000Y-103759000D02*
X136250000Y-106438000D01*
X132080000Y-119750000D02*
X132250000Y-119580000D01*
%TO.N,Encoder_FR_A*%
X133625250Y-106522750D02*
X133625250Y-110341750D01*
X129750000Y-114217000D02*
X129750000Y-119540000D01*
D59*
X133731000Y-106417000D02*
X133625250Y-106522750D01*
D60*
X133731000Y-103782500D02*
X133731000Y-106417000D01*
X129750000Y-119540000D02*
X129540000Y-119750000D01*
D61*
X129750277Y-119022798D02*
X129750277Y-120732798D01*
D60*
X133625250Y-110341750D02*
X129750000Y-114217000D01*
D59*
%TO.N,L_PWM_1*%
X148463000Y-127000000D02*
X148463000Y-127381000D01*
D60*
X151405250Y-124057750D02*
X148463000Y-127000000D01*
D61*
X148463000Y-126526000D02*
X148463000Y-128236000D01*
D60*
X151405250Y-106522750D02*
X151405250Y-124057750D01*
%TO.N,Net-(U3-VOUT)*%
X123800000Y-85600000D02*
X123800000Y-64000000D01*
D67*
X124300000Y-63500000D02*
X126619000Y-63500000D01*
D60*
X148082000Y-98695000D02*
X148082000Y-96774000D01*
D67*
X123800000Y-64000000D02*
X124300000Y-63500000D01*
D60*
X148082000Y-96774000D02*
X140508000Y-89200000D01*
X127400000Y-89200000D02*
X123800000Y-85600000D01*
X140508000Y-89200000D02*
X127400000Y-89200000D01*
%TO.N,Servo1*%
X157131250Y-90131250D02*
X156462500Y-90800000D01*
D61*
X101749671Y-137270000D02*
X103459671Y-137270000D01*
D60*
X156462500Y-90800000D02*
X153800000Y-90800000D01*
X117000000Y-126500000D02*
X106230000Y-137270000D01*
D64*
X158362500Y-88900000D02*
X157131250Y-90131250D01*
D60*
X117000000Y-106000000D02*
X117000000Y-126500000D01*
X118500000Y-104500000D02*
X117000000Y-106000000D01*
X106230000Y-137270000D02*
X102235000Y-137270000D01*
D61*
%TO.N,Servo2*%
X110270000Y-137270000D02*
X111980000Y-137270000D01*
D60*
X164750000Y-88087500D02*
X164750000Y-87250000D01*
X164000000Y-86355250D02*
X164105250Y-86250000D01*
X164000000Y-86500000D02*
X164000000Y-86355250D01*
X164750000Y-87250000D02*
X164000000Y-86500000D01*
X119400000Y-107100000D02*
X119400000Y-128995000D01*
X164105250Y-86250000D02*
X164105250Y-83662750D01*
X121000000Y-105500000D02*
X119400000Y-107100000D01*
X119400000Y-128995000D02*
X111125000Y-137270000D01*
%TO.N,Servo3*%
X123000000Y-107250000D02*
X121750000Y-108500000D01*
D61*
X119180000Y-137250000D02*
X120890000Y-137250000D01*
D60*
X121750000Y-134285000D02*
X120035000Y-136000000D01*
D64*
X156500000Y-95500000D02*
X156887500Y-95112500D01*
D60*
X120035000Y-136000000D02*
X120035000Y-137250000D01*
X121750000Y-108500000D02*
X121750000Y-134285000D01*
X156250000Y-95500000D02*
X154350000Y-97400000D01*
D64*
X156887500Y-95112500D02*
X158350000Y-95112500D01*
D60*
X154350000Y-97400000D02*
X152000000Y-97400000D01*
D59*
X120035000Y-137250000D02*
X120015000Y-137270000D01*
D60*
%TO.N,Servo4*%
X133065000Y-133000000D02*
X163545000Y-133000000D01*
X163545000Y-133000000D02*
X165100000Y-131445000D01*
X165100000Y-131445000D02*
X165100000Y-121850000D01*
X128905000Y-137160000D02*
X133065000Y-133000000D01*
X165100000Y-121850000D02*
X159025250Y-115775250D01*
X159025250Y-115775250D02*
X159025250Y-106522750D01*
D59*
X159025250Y-104049750D02*
X159250000Y-103825000D01*
D61*
X128050000Y-137160000D02*
X129760000Y-137160000D01*
D60*
X159025250Y-106522750D02*
X159025250Y-104049750D01*
D59*
%TO.N,Net-(U3-VS)*%
X129098000Y-58339500D02*
X129187500Y-58250000D01*
D67*
X126619000Y-60960000D02*
X128463000Y-60960000D01*
D60*
X129098000Y-60325000D02*
X129098000Y-58339500D01*
D67*
X126619000Y-60960000D02*
X125190250Y-60960000D01*
X128463000Y-60960000D02*
X129098000Y-60325000D01*
X124662500Y-60432250D02*
X124662500Y-57250000D01*
D59*
X129239500Y-60466500D02*
X129098000Y-60325000D01*
D67*
X125190250Y-60960000D02*
X124662500Y-60432250D01*
%TO.N,Net-(U3-VOC)*%
X128530000Y-62230000D02*
X129300000Y-63000000D01*
X122837500Y-60769650D02*
X122837500Y-57250000D01*
X124297850Y-62230000D02*
X122837500Y-60769650D01*
D59*
X129337500Y-65000000D02*
X129337500Y-63787500D01*
D67*
X126619000Y-62230000D02*
X124297850Y-62230000D01*
X126619000Y-62230000D02*
X128530000Y-62230000D01*
D61*
%TO.N,Net-(D1-A1)*%
X87791000Y-68453000D02*
X89501000Y-68453000D01*
D63*
X93472000Y-66147000D02*
X91676330Y-66147000D01*
D59*
X86614000Y-58138000D02*
X87094000Y-58138000D01*
D63*
X89027000Y-58801000D02*
X89027000Y-60579000D01*
D59*
X88646000Y-68453000D02*
X88646000Y-65184000D01*
D60*
X87630000Y-58674000D02*
X88900000Y-58674000D01*
D62*
X89662000Y-64132670D02*
X89662000Y-61214000D01*
D60*
X87094000Y-58138000D02*
X87630000Y-58674000D01*
D62*
X95758000Y-61214000D02*
X89662000Y-61214000D01*
D63*
X89027000Y-60579000D02*
X89662000Y-61214000D01*
D59*
X88900000Y-58674000D02*
X89027000Y-58801000D01*
X88646000Y-65184000D02*
X89060000Y-64770000D01*
D63*
X91676330Y-66147000D02*
X89662000Y-64132670D01*
D62*
X98552000Y-58420000D02*
X95758000Y-61214000D01*
D60*
%TO.N,Net-(D5-K)*%
X86614000Y-71120000D02*
X88519000Y-71120000D01*
D59*
X88519000Y-71120000D02*
X88646000Y-70993000D01*
D61*
X87511882Y-70981529D02*
X89221882Y-70981529D01*
D63*
%TO.N,Net-(J1-Pin_1)*%
X89027000Y-56261000D02*
X91964627Y-56261000D01*
D62*
X92737977Y-55487650D02*
X93102350Y-55487650D01*
X93853000Y-51181000D02*
X91066500Y-48394500D01*
D65*
X89408000Y-48394500D02*
X89368000Y-48354500D01*
D62*
X93853000Y-54737000D02*
X93853000Y-51181000D01*
X91066500Y-48394500D02*
X89408000Y-48394500D01*
X93102350Y-55487650D02*
X93853000Y-54737000D01*
D63*
X91964627Y-56261000D02*
X92737977Y-55487650D01*
D59*
%TO.N,/OC*%
X126619000Y-57793500D02*
X126750000Y-57662500D01*
D67*
X126619000Y-59690000D02*
X126619000Y-57793500D01*
D59*
%TO.N,/Vout_CS*%
X146325250Y-105769750D02*
X146325250Y-106522750D01*
D60*
X148082000Y-100695000D02*
X148082000Y-104013000D01*
X148082000Y-104013000D02*
X146325250Y-105769750D01*
D63*
%TO.N,Net-(J2-Pin_1)*%
X93250000Y-68909000D02*
X93250000Y-76000000D01*
X96901000Y-86360000D02*
X108458000Y-86360000D01*
X92166912Y-77083088D02*
X92166912Y-81625912D01*
D61*
X102736817Y-80252345D02*
X102736817Y-81962345D01*
D60*
X103205345Y-81107345D02*
X102730049Y-81107345D01*
X108458000Y-86360000D02*
X103205345Y-81107345D01*
D63*
X92166912Y-81625912D02*
X96901000Y-86360000D01*
X93250000Y-76000000D02*
X92166912Y-77083088D01*
X93472000Y-68687000D02*
X93250000Y-68909000D01*
D62*
%TO.N,Net-(U3-IN-)*%
X117319024Y-56847024D02*
X116352000Y-55880000D01*
X117319024Y-61595000D02*
X117319024Y-56847024D01*
D66*
%TO.N,Net-(J12-Pin_2)*%
X99735000Y-132040000D02*
X99735000Y-131590000D01*
X99695000Y-139700000D02*
X98425000Y-138430000D01*
X97155000Y-134874000D02*
X98425000Y-133604000D01*
X94535000Y-135001000D02*
X94662000Y-134874000D01*
X94662000Y-134874000D02*
X97155000Y-134874000D01*
X98425000Y-138430000D02*
X98425000Y-133350000D01*
X98425000Y-133350000D02*
X99735000Y-132040000D01*
X128925000Y-139700000D02*
X99695000Y-139700000D01*
X98425000Y-133604000D02*
X98425000Y-133350000D01*
D60*
%TO.N,Net-(ESP1-IO5)*%
X151750000Y-66500000D02*
X156083000Y-70833000D01*
X156083000Y-70833000D02*
X156083000Y-76917000D01*
X151405250Y-81594750D02*
X151405250Y-83662750D01*
D64*
X150250000Y-65000000D02*
X151750000Y-66500000D01*
D60*
X156083000Y-76917000D02*
X151405250Y-81594750D01*
D59*
X151257000Y-83811000D02*
X151405250Y-83662750D01*
D69*
%TO.N,Net-(ESP1-IO0)*%
X161565250Y-85434750D02*
X161565250Y-83662750D01*
D64*
X158625000Y-86625000D02*
X158362500Y-86887500D01*
X158362500Y-86887500D02*
X158362500Y-87600000D01*
D69*
X160750000Y-86250000D02*
X161565250Y-85434750D01*
X158625000Y-86625000D02*
X159000000Y-86250000D01*
X159000000Y-86250000D02*
X160750000Y-86250000D01*
D60*
%TO.N,Net-(ESP1-IO15)*%
X161250000Y-95112500D02*
X163887500Y-95112500D01*
X163887500Y-95112500D02*
X167500000Y-91500000D01*
D64*
X161250000Y-95112500D02*
X159650000Y-95112500D01*
D60*
X166645250Y-85395250D02*
X166645250Y-83662750D01*
X167500000Y-91500000D02*
X167500000Y-86250000D01*
X167500000Y-86250000D02*
X166645250Y-85395250D01*
%TD*%
%TA.AperFunction,Conductor*%
%TO.N,GND*%
G36*
X161629695Y-107193112D02*
G01*
X161716831Y-107236083D01*
X161780890Y-107309127D01*
X161805764Y-107369179D01*
X161827191Y-107449143D01*
X161850992Y-107537971D01*
X161850993Y-107537975D01*
X161970154Y-107825655D01*
X161970159Y-107825666D01*
X162125849Y-108095329D01*
X162125856Y-108095339D01*
X162315416Y-108342380D01*
X162315425Y-108342390D01*
X162535609Y-108562574D01*
X162535619Y-108562583D01*
X162782660Y-108752143D01*
X162782670Y-108752150D01*
X163052333Y-108907840D01*
X163052336Y-108907841D01*
X163052339Y-108907843D01*
X163052344Y-108907845D01*
X163340024Y-109027006D01*
X163340025Y-109027006D01*
X163340032Y-109027009D01*
X163640819Y-109107604D01*
X163847246Y-109134781D01*
X163949551Y-109148250D01*
X163949552Y-109148250D01*
X164260949Y-109148250D01*
X164314991Y-109141135D01*
X164569681Y-109107604D01*
X164870468Y-109027009D01*
X165158161Y-108907843D01*
X165250750Y-108854386D01*
X165342747Y-108823157D01*
X165439694Y-108829510D01*
X165499748Y-108854385D01*
X165592339Y-108907843D01*
X165592344Y-108907845D01*
X165880024Y-109027006D01*
X165880025Y-109027006D01*
X165880032Y-109027009D01*
X166180819Y-109107604D01*
X166387246Y-109134781D01*
X166489551Y-109148250D01*
X166489552Y-109148250D01*
X166800949Y-109148250D01*
X166854991Y-109141135D01*
X167109681Y-109107604D01*
X167410468Y-109027009D01*
X167698161Y-108907843D01*
X167786768Y-108856685D01*
X167878765Y-108825456D01*
X167975712Y-108831809D01*
X168062848Y-108874779D01*
X168126907Y-108947823D01*
X168158137Y-109039822D01*
X168155927Y-109118616D01*
X168119630Y-109310450D01*
X168119630Y-109310454D01*
X168113500Y-109419599D01*
X168113500Y-110544400D01*
X168119630Y-110653545D01*
X168119630Y-110653546D01*
X168168405Y-110911330D01*
X168168406Y-110911333D01*
X168255055Y-111158963D01*
X168255061Y-111158978D01*
X168357845Y-111353454D01*
X168377654Y-111390933D01*
X168533450Y-111602031D01*
X168718969Y-111787550D01*
X168930067Y-111943346D01*
X169162026Y-112065941D01*
X169409667Y-112152594D01*
X169418886Y-112154338D01*
X169420353Y-112154616D01*
X169510456Y-112190954D01*
X169579795Y-112259007D01*
X169617812Y-112348415D01*
X169618721Y-112445566D01*
X169582383Y-112535669D01*
X169514330Y-112605008D01*
X169498562Y-112614915D01*
X169240177Y-112764093D01*
X169240167Y-112764100D01*
X169000926Y-112947675D01*
X169000916Y-112947684D01*
X168787684Y-113160916D01*
X168787675Y-113160926D01*
X168604100Y-113400167D01*
X168604094Y-113400177D01*
X168453319Y-113661326D01*
X168453314Y-113661337D01*
X168337913Y-113939942D01*
X168337912Y-113939945D01*
X168335081Y-113950511D01*
X168259862Y-114231232D01*
X168259861Y-114231236D01*
X168259861Y-114231238D01*
X168249726Y-114308223D01*
X168220500Y-114530217D01*
X168220500Y-114831783D01*
X168259862Y-115130768D01*
X168337913Y-115422058D01*
X168371961Y-115504256D01*
X168453314Y-115700662D01*
X168453319Y-115700673D01*
X168604094Y-115961822D01*
X168604100Y-115961832D01*
X168787675Y-116201073D01*
X168787684Y-116201083D01*
X169000916Y-116414315D01*
X169000926Y-116414324D01*
X169151629Y-116529962D01*
X169240168Y-116597900D01*
X169240177Y-116597905D01*
X169501326Y-116748680D01*
X169501329Y-116748681D01*
X169501332Y-116748683D01*
X169779942Y-116864087D01*
X169890889Y-116893815D01*
X169934479Y-116909989D01*
X170110592Y-116994801D01*
X170110595Y-116994802D01*
X170110597Y-116994803D01*
X170159455Y-117011899D01*
X170375682Y-117087560D01*
X170649491Y-117150055D01*
X170823917Y-117169708D01*
X170928562Y-117181499D01*
X170928575Y-117181500D01*
X171209425Y-117181500D01*
X171209437Y-117181499D01*
X171288711Y-117172566D01*
X171488509Y-117150055D01*
X171762318Y-117087560D01*
X171965047Y-117016622D01*
X171972618Y-117013973D01*
X172054857Y-117000000D01*
X179250500Y-117000000D01*
X179345788Y-117018954D01*
X179426570Y-117072930D01*
X179480546Y-117153712D01*
X179499500Y-117249000D01*
X179499500Y-144250500D01*
X179480546Y-144345788D01*
X179426570Y-144426570D01*
X179345788Y-144480546D01*
X179250500Y-144499500D01*
X80749500Y-144499500D01*
X80654212Y-144480546D01*
X80573430Y-144426570D01*
X80519454Y-144345788D01*
X80500500Y-144250500D01*
X80500500Y-141128712D01*
X81899500Y-141128712D01*
X81899500Y-141371287D01*
X81931162Y-141611790D01*
X81931163Y-141611795D01*
X81993940Y-141846082D01*
X81993948Y-141846105D01*
X82086770Y-142070201D01*
X82086778Y-142070217D01*
X82208058Y-142280279D01*
X82208064Y-142280289D01*
X82355729Y-142472731D01*
X82355738Y-142472741D01*
X82527258Y-142644261D01*
X82527268Y-142644270D01*
X82648491Y-142737287D01*
X82719711Y-142791936D01*
X82719720Y-142791941D01*
X82929782Y-142913221D01*
X82929798Y-142913229D01*
X83069858Y-142971242D01*
X83153900Y-143006054D01*
X83153911Y-143006057D01*
X83153917Y-143006059D01*
X83337021Y-143055121D01*
X83388211Y-143068838D01*
X83628712Y-143100500D01*
X83871288Y-143100500D01*
X84111789Y-143068838D01*
X84273275Y-143025567D01*
X84346082Y-143006059D01*
X84346084Y-143006058D01*
X84346100Y-143006054D01*
X84497766Y-142943231D01*
X84570201Y-142913229D01*
X84570206Y-142913226D01*
X84570212Y-142913224D01*
X84780289Y-142791936D01*
X84972738Y-142644265D01*
X85144265Y-142472738D01*
X85291936Y-142280289D01*
X85413224Y-142070212D01*
X85417656Y-142059514D01*
X85454959Y-141969454D01*
X85506054Y-141846100D01*
X85568838Y-141611789D01*
X85600500Y-141371288D01*
X85600500Y-141128712D01*
X85568838Y-140888211D01*
X85555121Y-140837021D01*
X85506059Y-140653917D01*
X85506057Y-140653911D01*
X85506054Y-140653900D01*
X85471242Y-140569858D01*
X85413229Y-140429798D01*
X85413221Y-140429782D01*
X85291941Y-140219720D01*
X85291935Y-140219710D01*
X85144270Y-140027268D01*
X85144261Y-140027258D01*
X84972741Y-139855738D01*
X84972731Y-139855729D01*
X84780289Y-139708064D01*
X84780279Y-139708058D01*
X84570217Y-139586778D01*
X84570201Y-139586770D01*
X84346105Y-139493948D01*
X84346103Y-139493947D01*
X84346100Y-139493946D01*
X84346096Y-139493945D01*
X84346082Y-139493940D01*
X84111795Y-139431163D01*
X84111790Y-139431162D01*
X83871288Y-139399500D01*
X83628712Y-139399500D01*
X83388209Y-139431162D01*
X83388204Y-139431163D01*
X83153917Y-139493940D01*
X83153894Y-139493948D01*
X82929798Y-139586770D01*
X82929782Y-139586778D01*
X82719720Y-139708058D01*
X82719710Y-139708064D01*
X82527268Y-139855729D01*
X82527258Y-139855738D01*
X82355738Y-140027258D01*
X82355729Y-140027268D01*
X82208064Y-140219710D01*
X82208058Y-140219720D01*
X82086778Y-140429782D01*
X82086770Y-140429798D01*
X81993948Y-140653894D01*
X81993940Y-140653917D01*
X81931163Y-140888204D01*
X81931162Y-140888209D01*
X81899500Y-141128712D01*
X80500500Y-141128712D01*
X80500500Y-125249000D01*
X80519454Y-125153712D01*
X80573430Y-125072930D01*
X80654212Y-125018954D01*
X80749500Y-125000000D01*
X92313477Y-125000000D01*
X92364575Y-125005299D01*
X92420763Y-125017081D01*
X92524158Y-125023500D01*
X94151000Y-125023500D01*
X94246288Y-125042454D01*
X94327070Y-125096430D01*
X94381046Y-125177212D01*
X94400000Y-125272500D01*
X94400000Y-132251500D01*
X94381046Y-132346788D01*
X94327070Y-132427570D01*
X94246288Y-132481546D01*
X94151000Y-132500500D01*
X93697599Y-132500500D01*
X93588454Y-132506630D01*
X93588453Y-132506630D01*
X93330669Y-132555405D01*
X93330666Y-132555406D01*
X93083036Y-132642055D01*
X93083021Y-132642061D01*
X92851067Y-132764653D01*
X92639972Y-132920447D01*
X92454447Y-133105972D01*
X92298653Y-133317067D01*
X92176061Y-133549021D01*
X92176055Y-133549036D01*
X92089406Y-133796666D01*
X92089405Y-133796669D01*
X92040630Y-134054453D01*
X92040630Y-134054454D01*
X92034500Y-134163599D01*
X92034500Y-135838400D01*
X92040630Y-135947545D01*
X92040630Y-135947546D01*
X92089405Y-136205330D01*
X92089406Y-136205333D01*
X92176055Y-136452963D01*
X92176061Y-136452978D01*
X92298653Y-136684932D01*
X92399192Y-136821158D01*
X92454450Y-136896031D01*
X92639969Y-137081550D01*
X92851067Y-137237346D01*
X93083026Y-137359941D01*
X93330667Y-137446594D01*
X93588457Y-137495370D01*
X93697608Y-137501500D01*
X93697611Y-137501500D01*
X95372389Y-137501500D01*
X95372392Y-137501500D01*
X95481543Y-137495370D01*
X95739333Y-137446594D01*
X95843261Y-137410227D01*
X95939462Y-137396647D01*
X96033537Y-137420914D01*
X96111165Y-137479335D01*
X96160527Y-137563016D01*
X96174500Y-137645255D01*
X96174500Y-138577506D01*
X96213006Y-138869993D01*
X96213006Y-138869994D01*
X96263872Y-139059825D01*
X96263872Y-139059828D01*
X96263873Y-139059828D01*
X96289362Y-139154955D01*
X96289363Y-139154958D01*
X96402253Y-139427499D01*
X96402255Y-139427503D01*
X96402257Y-139427507D01*
X96440617Y-139493948D01*
X96549759Y-139682989D01*
X96549762Y-139682994D01*
X96682313Y-139855738D01*
X96729354Y-139917042D01*
X96937958Y-140125646D01*
X96937962Y-140125649D01*
X97994473Y-141182160D01*
X97994509Y-141182198D01*
X98183599Y-141371287D01*
X98207958Y-141395646D01*
X98442006Y-141575238D01*
X98697493Y-141722743D01*
X98697498Y-141722745D01*
X98697500Y-141722746D01*
X98970042Y-141835637D01*
X98970045Y-141835637D01*
X98970048Y-141835639D01*
X99030267Y-141851774D01*
X99255007Y-141911994D01*
X99513467Y-141946020D01*
X99547493Y-141950500D01*
X99547494Y-141950500D01*
X99547495Y-141950500D01*
X99842505Y-141950500D01*
X100933681Y-141950500D01*
X101028968Y-141969453D01*
X101246393Y-142059514D01*
X101546546Y-142139940D01*
X101854629Y-142180500D01*
X102615371Y-142180500D01*
X102923454Y-142139940D01*
X103223607Y-142059514D01*
X103441031Y-141969453D01*
X103536319Y-141950500D01*
X109823681Y-141950500D01*
X109918968Y-141969453D01*
X110136393Y-142059514D01*
X110436546Y-142139940D01*
X110744629Y-142180500D01*
X111505371Y-142180500D01*
X111813454Y-142139940D01*
X112113607Y-142059514D01*
X112331031Y-141969453D01*
X112426319Y-141950500D01*
X119017293Y-141950500D01*
X119081739Y-141958985D01*
X119346546Y-142029940D01*
X119654629Y-142070500D01*
X120415371Y-142070500D01*
X120723454Y-142029940D01*
X120988261Y-141958985D01*
X121052707Y-141950500D01*
X127887293Y-141950500D01*
X127951739Y-141958985D01*
X128216546Y-142029940D01*
X128524629Y-142070500D01*
X129285371Y-142070500D01*
X129593454Y-142029940D01*
X129893607Y-141949514D01*
X130180695Y-141830598D01*
X130449805Y-141675228D01*
X130696333Y-141486060D01*
X130916060Y-141266333D01*
X131021661Y-141128712D01*
X174399500Y-141128712D01*
X174399500Y-141371287D01*
X174431162Y-141611790D01*
X174431163Y-141611795D01*
X174493940Y-141846082D01*
X174493948Y-141846105D01*
X174586770Y-142070201D01*
X174586778Y-142070217D01*
X174708058Y-142280279D01*
X174708064Y-142280289D01*
X174855729Y-142472731D01*
X174855738Y-142472741D01*
X175027258Y-142644261D01*
X175027268Y-142644270D01*
X175148491Y-142737287D01*
X175219711Y-142791936D01*
X175219720Y-142791941D01*
X175429782Y-142913221D01*
X175429798Y-142913229D01*
X175569858Y-142971242D01*
X175653900Y-143006054D01*
X175653911Y-143006057D01*
X175653917Y-143006059D01*
X175837021Y-143055121D01*
X175888211Y-143068838D01*
X176128712Y-143100500D01*
X176371288Y-143100500D01*
X176611789Y-143068838D01*
X176773275Y-143025567D01*
X176846082Y-143006059D01*
X176846084Y-143006058D01*
X176846100Y-143006054D01*
X176997766Y-142943231D01*
X177070201Y-142913229D01*
X177070206Y-142913226D01*
X177070212Y-142913224D01*
X177280289Y-142791936D01*
X177472738Y-142644265D01*
X177644265Y-142472738D01*
X177791936Y-142280289D01*
X177913224Y-142070212D01*
X177917656Y-142059514D01*
X177954959Y-141969454D01*
X178006054Y-141846100D01*
X178068838Y-141611789D01*
X178100500Y-141371288D01*
X178100500Y-141128712D01*
X178068838Y-140888211D01*
X178055121Y-140837021D01*
X178006059Y-140653917D01*
X178006057Y-140653911D01*
X178006054Y-140653900D01*
X177971242Y-140569858D01*
X177913229Y-140429798D01*
X177913221Y-140429782D01*
X177791941Y-140219720D01*
X177791935Y-140219710D01*
X177644270Y-140027268D01*
X177644261Y-140027258D01*
X177472741Y-139855738D01*
X177472731Y-139855729D01*
X177280289Y-139708064D01*
X177280279Y-139708058D01*
X177070217Y-139586778D01*
X177070201Y-139586770D01*
X176846105Y-139493948D01*
X176846103Y-139493947D01*
X176846100Y-139493946D01*
X176846096Y-139493945D01*
X176846082Y-139493940D01*
X176611795Y-139431163D01*
X176611790Y-139431162D01*
X176371288Y-139399500D01*
X176128712Y-139399500D01*
X175888209Y-139431162D01*
X175888204Y-139431163D01*
X175653917Y-139493940D01*
X175653894Y-139493948D01*
X175429798Y-139586770D01*
X175429782Y-139586778D01*
X175219720Y-139708058D01*
X175219710Y-139708064D01*
X175027268Y-139855729D01*
X175027258Y-139855738D01*
X174855738Y-140027258D01*
X174855729Y-140027268D01*
X174708064Y-140219710D01*
X174708058Y-140219720D01*
X174586778Y-140429782D01*
X174586770Y-140429798D01*
X174493948Y-140653894D01*
X174493940Y-140653917D01*
X174431163Y-140888204D01*
X174431162Y-140888209D01*
X174399500Y-141128712D01*
X131021661Y-141128712D01*
X131105228Y-141019805D01*
X131260598Y-140750695D01*
X131379514Y-140463607D01*
X131459940Y-140163454D01*
X131500500Y-139855371D01*
X131500500Y-139544629D01*
X131459940Y-139236546D01*
X131409019Y-139046509D01*
X131402666Y-138949566D01*
X131433896Y-138857567D01*
X131473461Y-138806002D01*
X131549828Y-138729637D01*
X131739394Y-138482589D01*
X131895093Y-138212911D01*
X132014259Y-137925218D01*
X132094854Y-137624431D01*
X132135500Y-137315698D01*
X132135500Y-137004302D01*
X132122947Y-136908955D01*
X132129301Y-136812009D01*
X132172271Y-136724873D01*
X132193740Y-136700392D01*
X133820705Y-135073430D01*
X133901486Y-135019454D01*
X133996774Y-135000500D01*
X163676120Y-135000500D01*
X163817056Y-134981945D01*
X163936116Y-134966271D01*
X164189419Y-134898398D01*
X164431697Y-134798043D01*
X164530866Y-134740788D01*
X164555611Y-134726502D01*
X164555614Y-134726499D01*
X164555624Y-134726494D01*
X164658803Y-134666924D01*
X164796836Y-134561007D01*
X164866851Y-134507283D01*
X166607283Y-132766851D01*
X166721441Y-132618077D01*
X166766924Y-132558803D01*
X166898043Y-132331697D01*
X166998398Y-132089419D01*
X167017710Y-132017346D01*
X167066271Y-131836116D01*
X167097316Y-131600301D01*
X167100500Y-131576120D01*
X167100500Y-121718880D01*
X167073773Y-121515870D01*
X167066271Y-121458885D01*
X166998398Y-121205581D01*
X166898043Y-120963303D01*
X166888861Y-120947400D01*
X166834911Y-120853955D01*
X166830869Y-120846954D01*
X166766924Y-120736197D01*
X166690574Y-120636697D01*
X166685570Y-120630176D01*
X166685565Y-120630168D01*
X166607287Y-120528154D01*
X166607286Y-120528153D01*
X166607283Y-120528149D01*
X161098680Y-115019546D01*
X161044704Y-114938764D01*
X161025750Y-114843476D01*
X161025750Y-108125501D01*
X161044704Y-108030213D01*
X161059106Y-108001006D01*
X161160343Y-107825661D01*
X161279509Y-107537968D01*
X161324734Y-107369181D01*
X161367705Y-107282047D01*
X161440749Y-107217988D01*
X161532748Y-107186758D01*
X161629695Y-107193112D01*
G37*
%TD.AperFunction*%
%TA.AperFunction,Conductor*%
G36*
X137191060Y-114418954D02*
G01*
X137271842Y-114472930D01*
X137325818Y-114553712D01*
X137344772Y-114649000D01*
X137342642Y-114681501D01*
X137324500Y-114819301D01*
X137324500Y-116840698D01*
X137344788Y-116994803D01*
X137365146Y-117149431D01*
X137445741Y-117450218D01*
X137445742Y-117450221D01*
X137445743Y-117450225D01*
X137564904Y-117737905D01*
X137564906Y-117737909D01*
X137564907Y-117737911D01*
X137666140Y-117913252D01*
X137697370Y-118005249D01*
X137699500Y-118037751D01*
X137699500Y-122051119D01*
X137715274Y-122170940D01*
X137715276Y-122170951D01*
X137716596Y-122180974D01*
X137733729Y-122311116D01*
X137792100Y-122528957D01*
X137793694Y-122534907D01*
X137793698Y-122534924D01*
X137801597Y-122564405D01*
X137801601Y-122564415D01*
X137801602Y-122564419D01*
X137816803Y-122601117D01*
X137901953Y-122806689D01*
X137901955Y-122806693D01*
X137901957Y-122806697D01*
X137929506Y-122854413D01*
X138024880Y-123019608D01*
X138033076Y-123033803D01*
X138102388Y-123124131D01*
X138192717Y-123241851D01*
X139605070Y-124654204D01*
X140957163Y-126006297D01*
X141011139Y-126087079D01*
X141030093Y-126182367D01*
X141027963Y-126214868D01*
X141012391Y-126333149D01*
X141007500Y-126370302D01*
X141007500Y-128391698D01*
X141025444Y-128528000D01*
X141019091Y-128624945D01*
X140976121Y-128712081D01*
X140903076Y-128776140D01*
X140811077Y-128807370D01*
X140778575Y-128809500D01*
X136741774Y-128809500D01*
X136646486Y-128790546D01*
X136565704Y-128736570D01*
X134394908Y-126565774D01*
X134340932Y-126484992D01*
X134321978Y-126389704D01*
X134340932Y-126294416D01*
X134394908Y-126213634D01*
X134475690Y-126159658D01*
X134482374Y-126158328D01*
X134499999Y-126140704D01*
X134500000Y-126140704D01*
X134500000Y-121591348D01*
X134518954Y-121496060D01*
X134558838Y-121399773D01*
X134639433Y-121098986D01*
X134680079Y-120790253D01*
X134680079Y-118768857D01*
X134639433Y-118460124D01*
X134558838Y-118159337D01*
X134558835Y-118159329D01*
X134518954Y-118063047D01*
X134500000Y-117967759D01*
X134500000Y-116342274D01*
X134518954Y-116246986D01*
X134572930Y-116166204D01*
X136266204Y-114472930D01*
X136346986Y-114418954D01*
X136442274Y-114400000D01*
X137095772Y-114400000D01*
X137191060Y-114418954D01*
G37*
%TD.AperFunction*%
%TA.AperFunction,Conductor*%
G36*
X153750038Y-121710978D02*
G01*
X153830820Y-121764954D01*
X156193387Y-124127521D01*
X156247363Y-124208303D01*
X156266317Y-124303591D01*
X156247363Y-124398879D01*
X156193387Y-124479661D01*
X156163589Y-124504117D01*
X156163877Y-124504492D01*
X155910370Y-124699014D01*
X155910359Y-124699023D01*
X155690175Y-124919207D01*
X155690166Y-124919217D01*
X155500606Y-125166258D01*
X155500599Y-125166268D01*
X155344909Y-125435931D01*
X155344904Y-125435942D01*
X155225743Y-125723622D01*
X155225742Y-125723626D01*
X155225741Y-125723630D01*
X155151689Y-126000000D01*
X155145145Y-126024421D01*
X155104500Y-126333149D01*
X155104500Y-128354545D01*
X155127336Y-128527998D01*
X155120982Y-128624945D01*
X155078011Y-128712081D01*
X155004967Y-128776140D01*
X154912968Y-128807370D01*
X154880466Y-128809500D01*
X151067425Y-128809500D01*
X150972137Y-128790546D01*
X150891355Y-128736570D01*
X150837379Y-128655788D01*
X150818425Y-128560500D01*
X150820554Y-128528006D01*
X150838500Y-128391698D01*
X150838500Y-127556774D01*
X150857454Y-127461486D01*
X150911430Y-127380704D01*
X151902430Y-126389704D01*
X152912533Y-125379601D01*
X152939630Y-125344288D01*
X153012363Y-125249501D01*
X153072168Y-125171561D01*
X153072168Y-125171560D01*
X153072174Y-125171553D01*
X153203293Y-124944447D01*
X153303648Y-124702169D01*
X153305114Y-124696697D01*
X153371521Y-124448866D01*
X153387707Y-124325920D01*
X153405750Y-124188870D01*
X153405750Y-121941024D01*
X153424704Y-121845736D01*
X153478680Y-121764954D01*
X153559462Y-121710978D01*
X153654750Y-121692024D01*
X153750038Y-121710978D01*
G37*
%TD.AperFunction*%
%TA.AperFunction,Conductor*%
G36*
X125035183Y-109754309D02*
G01*
X125057269Y-109753874D01*
X125082369Y-109763695D01*
X125108805Y-109768954D01*
X125127172Y-109781226D01*
X125147744Y-109789276D01*
X125167173Y-109807953D01*
X125189587Y-109822930D01*
X125201861Y-109841300D01*
X125217784Y-109856607D01*
X125228586Y-109881298D01*
X125243563Y-109903712D01*
X125247872Y-109925378D01*
X125256727Y-109945616D01*
X125257258Y-109972564D01*
X125262517Y-109999000D01*
X125258397Y-110030293D01*
X125258643Y-110042752D01*
X125256778Y-110053195D01*
X125219725Y-110191484D01*
X125184946Y-110455649D01*
X125183942Y-110461277D01*
X125168862Y-110512812D01*
X125066915Y-110758936D01*
X125066912Y-110758945D01*
X125055241Y-110802501D01*
X124988862Y-111050232D01*
X124988861Y-111050236D01*
X124988861Y-111050238D01*
X124949500Y-111349217D01*
X124949500Y-111650782D01*
X124988016Y-111943346D01*
X124988862Y-111949768D01*
X125038727Y-112135865D01*
X125066912Y-112241054D01*
X125066913Y-112241057D01*
X125164649Y-112477013D01*
X125181473Y-112539799D01*
X125197804Y-112663843D01*
X125191450Y-112760790D01*
X125148479Y-112847926D01*
X125127010Y-112872408D01*
X125119449Y-112879969D01*
X124963653Y-113091067D01*
X124841061Y-113323021D01*
X124841055Y-113323036D01*
X124754406Y-113570666D01*
X124754405Y-113570669D01*
X124705630Y-113828453D01*
X124705630Y-113828454D01*
X124699500Y-113937599D01*
X124699500Y-115062400D01*
X124705630Y-115171545D01*
X124705630Y-115171546D01*
X124754405Y-115429330D01*
X124754406Y-115429333D01*
X124841055Y-115676963D01*
X124841061Y-115676978D01*
X124963653Y-115908932D01*
X125119447Y-116120027D01*
X125119450Y-116120031D01*
X125136572Y-116137153D01*
X125190546Y-116217932D01*
X125209500Y-116313220D01*
X125209500Y-117613006D01*
X125190546Y-117708294D01*
X125176140Y-117737506D01*
X125060884Y-117937133D01*
X125060879Y-117937144D01*
X124941718Y-118224824D01*
X124941717Y-118224828D01*
X124941716Y-118224832D01*
X124881493Y-118449591D01*
X124861120Y-118525623D01*
X124820475Y-118834351D01*
X124820475Y-120855748D01*
X124861096Y-121164296D01*
X124861121Y-121164481D01*
X124924167Y-121399773D01*
X124941717Y-121465271D01*
X124941718Y-121465275D01*
X125060879Y-121752955D01*
X125060881Y-121752959D01*
X125060882Y-121752961D01*
X125176140Y-121952594D01*
X125179717Y-121963131D01*
X125186288Y-121972113D01*
X125192866Y-122001866D01*
X125207370Y-122044591D01*
X125209275Y-122066509D01*
X125209500Y-122071798D01*
X125209500Y-122341120D01*
X125224991Y-122458783D01*
X125226426Y-122469687D01*
X125226427Y-122469698D01*
X125243729Y-122601117D01*
X125243730Y-122601122D01*
X125298814Y-122806696D01*
X125310257Y-122849400D01*
X125311602Y-122854419D01*
X125327277Y-122892261D01*
X125411953Y-123096689D01*
X125411955Y-123096693D01*
X125411957Y-123096697D01*
X125474401Y-123204854D01*
X125517973Y-123280324D01*
X125543076Y-123323803D01*
X125591588Y-123387024D01*
X125702717Y-123531851D01*
X125736255Y-123565389D01*
X125744447Y-123575497D01*
X125761138Y-123607192D01*
X125781046Y-123636986D01*
X125783605Y-123649853D01*
X125789718Y-123661460D01*
X125793010Y-123697133D01*
X125800000Y-123732274D01*
X125800000Y-125751000D01*
X125781046Y-125846288D01*
X125727070Y-125927070D01*
X125646288Y-125981046D01*
X125551000Y-126000000D01*
X123999500Y-126000000D01*
X123904212Y-125981046D01*
X123823430Y-125927070D01*
X123769454Y-125846288D01*
X123750500Y-125751000D01*
X123750500Y-109999000D01*
X123769454Y-109903712D01*
X123823430Y-109822930D01*
X123904212Y-109768954D01*
X123999500Y-109750000D01*
X125013517Y-109750000D01*
X125035183Y-109754309D01*
G37*
%TD.AperFunction*%
%TA.AperFunction,Conductor*%
G36*
X86845694Y-45519454D02*
G01*
X86926476Y-45573430D01*
X86980452Y-45654212D01*
X86999406Y-45749500D01*
X86980452Y-45844788D01*
X86926478Y-45925566D01*
X86812873Y-46039172D01*
X86811169Y-46040876D01*
X86592987Y-46306731D01*
X86592980Y-46306740D01*
X86401901Y-46592709D01*
X86401895Y-46592720D01*
X86239773Y-46896029D01*
X86239767Y-46896040D01*
X86108153Y-47213787D01*
X86108145Y-47213808D01*
X86008312Y-47542915D01*
X86008310Y-47542922D01*
X85941211Y-47880250D01*
X85941210Y-47880257D01*
X85907500Y-48222530D01*
X85907500Y-48566469D01*
X85933196Y-48827376D01*
X85941211Y-48908750D01*
X86008310Y-49246078D01*
X86008312Y-49246084D01*
X86108145Y-49575191D01*
X86108153Y-49575212D01*
X86239767Y-49892959D01*
X86239769Y-49892963D01*
X86370897Y-50138286D01*
X86399099Y-50231257D01*
X86389576Y-50327944D01*
X86343777Y-50413627D01*
X86268675Y-50475262D01*
X86175704Y-50503464D01*
X86164089Y-50504199D01*
X86164095Y-50504304D01*
X86051454Y-50510630D01*
X86051453Y-50510630D01*
X85793669Y-50559405D01*
X85793666Y-50559406D01*
X85546036Y-50646055D01*
X85546021Y-50646061D01*
X85314067Y-50768653D01*
X85102972Y-50924447D01*
X84917447Y-51109972D01*
X84761653Y-51321067D01*
X84639061Y-51553021D01*
X84639055Y-51553036D01*
X84552406Y-51800666D01*
X84552405Y-51800669D01*
X84503630Y-52058453D01*
X84503630Y-52058454D01*
X84497500Y-52167599D01*
X84497500Y-52167608D01*
X84497500Y-53242392D01*
X84499496Y-53277950D01*
X84499646Y-53280607D01*
X84486063Y-53376807D01*
X84471182Y-53410913D01*
X84405062Y-53536019D01*
X84405056Y-53536032D01*
X84318406Y-53783666D01*
X84318405Y-53783669D01*
X84269630Y-54041453D01*
X84269630Y-54041454D01*
X84263500Y-54150599D01*
X84263500Y-55125400D01*
X84269630Y-55234545D01*
X84269630Y-55234546D01*
X84318405Y-55492330D01*
X84318406Y-55492333D01*
X84405055Y-55739963D01*
X84405061Y-55739978D01*
X84527653Y-55971932D01*
X84597353Y-56066373D01*
X84683450Y-56183031D01*
X84712352Y-56211933D01*
X84766326Y-56292712D01*
X84785280Y-56388000D01*
X84766326Y-56483288D01*
X84712352Y-56564066D01*
X84683450Y-56592969D01*
X84683447Y-56592972D01*
X84527653Y-56804067D01*
X84405061Y-57036021D01*
X84405055Y-57036036D01*
X84318406Y-57283666D01*
X84318405Y-57283669D01*
X84269630Y-57541453D01*
X84269630Y-57541454D01*
X84263500Y-57650599D01*
X84263500Y-58625400D01*
X84269630Y-58734545D01*
X84269630Y-58734546D01*
X84318405Y-58992330D01*
X84318406Y-58992333D01*
X84405055Y-59239963D01*
X84405061Y-59239978D01*
X84527653Y-59471932D01*
X84622681Y-59600691D01*
X84683450Y-59683031D01*
X84868969Y-59868550D01*
X85080067Y-60024346D01*
X85312026Y-60146941D01*
X85559667Y-60233594D01*
X85817457Y-60282370D01*
X85926608Y-60288500D01*
X85973606Y-60288500D01*
X86068894Y-60307454D01*
X86149676Y-60361430D01*
X86203652Y-60442212D01*
X86222606Y-60537500D01*
X86217822Y-60586077D01*
X86195210Y-60699755D01*
X86161500Y-61042030D01*
X86161500Y-62735103D01*
X86142546Y-62830391D01*
X86112846Y-62882962D01*
X86073656Y-62936062D01*
X86073655Y-62936065D01*
X85951061Y-63168021D01*
X85951055Y-63168036D01*
X85864406Y-63415666D01*
X85864405Y-63415669D01*
X85815630Y-63673453D01*
X85815630Y-63673454D01*
X85809500Y-63782599D01*
X85809500Y-65757400D01*
X85815630Y-65866545D01*
X85815630Y-65866546D01*
X85864405Y-66124330D01*
X85864406Y-66124333D01*
X85951059Y-66371974D01*
X86012836Y-66488861D01*
X86059340Y-66576850D01*
X86087107Y-66669952D01*
X86077133Y-66766594D01*
X86030934Y-66852062D01*
X86015269Y-66869265D01*
X86001174Y-66883360D01*
X86001169Y-66883366D01*
X85811606Y-67130410D01*
X85811599Y-67130420D01*
X85655909Y-67400083D01*
X85655904Y-67400094D01*
X85536743Y-67687774D01*
X85536742Y-67687778D01*
X85456145Y-67988573D01*
X85415500Y-68297300D01*
X85415500Y-68608698D01*
X85456145Y-68917427D01*
X85456146Y-68917433D01*
X85465395Y-68951952D01*
X85471747Y-69048899D01*
X85440515Y-69140897D01*
X85376455Y-69213941D01*
X85372739Y-69216737D01*
X85206473Y-69339446D01*
X85020947Y-69524972D01*
X84870485Y-69728844D01*
X84865154Y-69736067D01*
X84848264Y-69768025D01*
X84742561Y-69968021D01*
X84742555Y-69968036D01*
X84655906Y-70215666D01*
X84655905Y-70215669D01*
X84607130Y-70473453D01*
X84607130Y-70473454D01*
X84601000Y-70582599D01*
X84601000Y-71657400D01*
X84607130Y-71766545D01*
X84607130Y-71766546D01*
X84655905Y-72024330D01*
X84655906Y-72024333D01*
X84742555Y-72271963D01*
X84742561Y-72271978D01*
X84865153Y-72503932D01*
X84949853Y-72618697D01*
X85020950Y-72715031D01*
X85206469Y-72900550D01*
X85417567Y-73056346D01*
X85649526Y-73178941D01*
X85897167Y-73265594D01*
X86154957Y-73314370D01*
X86264108Y-73320500D01*
X86264111Y-73320500D01*
X86963889Y-73320500D01*
X86963892Y-73320500D01*
X87021078Y-73317288D01*
X87062960Y-73318467D01*
X87065204Y-73318720D01*
X87356184Y-73357029D01*
X87404623Y-73357029D01*
X87418542Y-73358600D01*
X87424700Y-73360564D01*
X87441716Y-73362329D01*
X87559751Y-73387079D01*
X87559755Y-73387079D01*
X87559763Y-73387081D01*
X87663158Y-73393500D01*
X87663165Y-73393500D01*
X89628835Y-73393500D01*
X89628842Y-73393500D01*
X89732237Y-73387081D01*
X89975614Y-73336050D01*
X90207273Y-73245656D01*
X90373041Y-73146879D01*
X90464601Y-73114385D01*
X90561626Y-73119403D01*
X90649345Y-73161169D01*
X90714404Y-73233325D01*
X90746899Y-73324885D01*
X90749500Y-73360784D01*
X90749500Y-74861119D01*
X90730546Y-74956407D01*
X90676570Y-75037189D01*
X90498087Y-75215672D01*
X90390199Y-75323558D01*
X90309420Y-75377533D01*
X90260424Y-75392146D01*
X90190346Y-75405405D01*
X90190343Y-75405406D01*
X89942713Y-75492055D01*
X89942698Y-75492061D01*
X89710744Y-75614653D01*
X89499649Y-75770447D01*
X89314124Y-75955972D01*
X89158330Y-76167067D01*
X89035738Y-76399021D01*
X89035732Y-76399036D01*
X88949083Y-76646666D01*
X88949082Y-76646669D01*
X88900307Y-76904453D01*
X88900307Y-76904454D01*
X88894177Y-77013599D01*
X88894177Y-78688400D01*
X88900307Y-78797545D01*
X88900307Y-78797546D01*
X88949082Y-79055330D01*
X88949083Y-79055333D01*
X89035732Y-79302963D01*
X89035738Y-79302978D01*
X89158330Y-79534932D01*
X89268865Y-79684703D01*
X89314127Y-79746031D01*
X89499646Y-79931550D01*
X89499649Y-79931552D01*
X89499652Y-79931555D01*
X89499651Y-79931555D01*
X89565271Y-79979983D01*
X89630685Y-80051816D01*
X89663630Y-80143215D01*
X89666412Y-80180329D01*
X89666412Y-81766349D01*
X89697857Y-82045422D01*
X89760352Y-82319230D01*
X89853107Y-82584311D01*
X89853113Y-82584325D01*
X89974968Y-82837359D01*
X89974971Y-82837365D01*
X90086473Y-83014818D01*
X90124389Y-83075160D01*
X90299496Y-83294737D01*
X95033584Y-88028825D01*
X95232175Y-88227416D01*
X95232178Y-88227418D01*
X95451752Y-88402523D01*
X95689546Y-88551940D01*
X95689553Y-88551943D01*
X95689555Y-88551945D01*
X95942592Y-88673801D01*
X96207681Y-88766560D01*
X96207693Y-88766562D01*
X96207700Y-88766565D01*
X96449734Y-88821806D01*
X96481491Y-88829055D01*
X96632662Y-88846087D01*
X96760562Y-88860499D01*
X96760575Y-88860500D01*
X97041425Y-88860500D01*
X106253161Y-88860500D01*
X106348449Y-88879454D01*
X106380615Y-88895592D01*
X106526727Y-88982656D01*
X106758386Y-89073050D01*
X106758388Y-89073050D01*
X106758390Y-89073051D01*
X107001748Y-89124078D01*
X107001749Y-89124078D01*
X107001763Y-89124081D01*
X107105158Y-89130500D01*
X107105165Y-89130500D01*
X109810835Y-89130500D01*
X109810842Y-89130500D01*
X109914237Y-89124081D01*
X110157614Y-89073050D01*
X110389273Y-88982656D01*
X110602894Y-88855366D01*
X110792650Y-88694650D01*
X110953366Y-88504894D01*
X111080656Y-88291273D01*
X111171050Y-88059614D01*
X111222081Y-87816237D01*
X111228500Y-87712842D01*
X111228500Y-85007158D01*
X111222081Y-84903763D01*
X111171050Y-84660386D01*
X111080656Y-84428727D01*
X110953366Y-84215106D01*
X110792650Y-84025350D01*
X110602894Y-83864634D01*
X110389273Y-83737344D01*
X110389272Y-83737343D01*
X110389271Y-83737343D01*
X110157618Y-83646951D01*
X110157609Y-83646948D01*
X109914251Y-83595921D01*
X109914238Y-83595919D01*
X109914237Y-83595919D01*
X109914235Y-83595918D01*
X109914229Y-83595918D01*
X109810872Y-83589501D01*
X109810847Y-83589500D01*
X109810842Y-83589500D01*
X109810835Y-83589500D01*
X108619774Y-83589500D01*
X108524486Y-83570546D01*
X108443704Y-83516570D01*
X105184794Y-80257660D01*
X105130818Y-80176878D01*
X105113979Y-80104649D01*
X105113381Y-80104728D01*
X105112580Y-80098649D01*
X105112396Y-80097857D01*
X105112317Y-80096657D01*
X105112317Y-80096647D01*
X105071671Y-79787914D01*
X104991076Y-79487127D01*
X104871910Y-79199434D01*
X104871907Y-79199428D01*
X104716217Y-78929765D01*
X104716210Y-78929755D01*
X104526650Y-78682714D01*
X104526641Y-78682704D01*
X104306457Y-78462520D01*
X104306447Y-78462511D01*
X104059406Y-78272951D01*
X104059396Y-78272944D01*
X103789733Y-78117254D01*
X103789722Y-78117249D01*
X103502042Y-77998088D01*
X103502038Y-77998087D01*
X103502036Y-77998086D01*
X103502035Y-77998086D01*
X103201248Y-77917491D01*
X103201243Y-77917490D01*
X103201244Y-77917490D01*
X102892516Y-77876845D01*
X102892515Y-77876845D01*
X102581119Y-77876845D01*
X102581118Y-77876845D01*
X102272390Y-77917490D01*
X101971595Y-77998087D01*
X101971591Y-77998088D01*
X101683911Y-78117249D01*
X101683905Y-78117252D01*
X101588090Y-78172571D01*
X101561335Y-78181652D01*
X101536448Y-78195033D01*
X101515770Y-78197119D01*
X101496091Y-78203800D01*
X101467895Y-78201951D01*
X101439784Y-78204789D01*
X101421389Y-78198903D01*
X101399144Y-78197445D01*
X101346744Y-78176812D01*
X101342886Y-78174762D01*
X101242528Y-78116820D01*
X101203182Y-78100522D01*
X101192653Y-78094927D01*
X101164085Y-78071597D01*
X101133429Y-78051113D01*
X101126735Y-78041095D01*
X101117403Y-78033474D01*
X101099941Y-78000995D01*
X101079453Y-77970332D01*
X101077102Y-77958514D01*
X101071397Y-77947902D01*
X101067694Y-77911214D01*
X101060500Y-77875045D01*
X101060500Y-69559500D01*
X101079454Y-69464212D01*
X101133430Y-69383430D01*
X101214212Y-69329454D01*
X101309500Y-69310500D01*
X106661631Y-69310500D01*
X106756919Y-69329454D01*
X106837701Y-69383430D01*
X106891677Y-69464212D01*
X106910631Y-69559500D01*
X106891677Y-69654788D01*
X106881776Y-69675850D01*
X106833059Y-69768025D01*
X106833055Y-69768036D01*
X106746406Y-70015666D01*
X106746405Y-70015669D01*
X106697630Y-70273453D01*
X106697630Y-70273454D01*
X106691500Y-70382599D01*
X106691500Y-71857400D01*
X106697630Y-71966545D01*
X106697630Y-71966546D01*
X106746405Y-72224330D01*
X106746406Y-72224333D01*
X106833055Y-72471963D01*
X106833061Y-72471978D01*
X106955653Y-72703932D01*
X107100763Y-72900550D01*
X107111450Y-72915031D01*
X107296969Y-73100550D01*
X107508067Y-73256346D01*
X107740026Y-73378941D01*
X107987667Y-73465594D01*
X108245457Y-73514370D01*
X108354608Y-73520500D01*
X110674895Y-73520500D01*
X110770183Y-73539454D01*
X110850965Y-73593430D01*
X110982359Y-73724824D01*
X110982369Y-73724833D01*
X111119323Y-73829921D01*
X111225927Y-73911721D01*
X111229410Y-73914393D01*
X111229420Y-73914400D01*
X111499083Y-74070090D01*
X111499086Y-74070091D01*
X111499089Y-74070093D01*
X111535807Y-74085302D01*
X111786774Y-74189256D01*
X111786775Y-74189256D01*
X111786782Y-74189259D01*
X112087569Y-74269854D01*
X112311018Y-74299272D01*
X112396301Y-74310500D01*
X112396302Y-74310500D01*
X112707699Y-74310500D01*
X112759153Y-74303725D01*
X113016431Y-74269854D01*
X113317218Y-74189259D01*
X113604911Y-74070093D01*
X113785609Y-73965767D01*
X113874579Y-73914400D01*
X113874580Y-73914398D01*
X113874589Y-73914394D01*
X114121637Y-73724828D01*
X114341828Y-73504637D01*
X114531394Y-73257589D01*
X114538287Y-73245651D01*
X114664652Y-73026780D01*
X114687093Y-72987911D01*
X114806259Y-72700218D01*
X114836661Y-72586752D01*
X114879632Y-72499618D01*
X114952676Y-72435559D01*
X115044675Y-72404329D01*
X115141622Y-72410683D01*
X115228758Y-72453654D01*
X115292817Y-72526698D01*
X115324047Y-72618697D01*
X115326177Y-72651199D01*
X115326177Y-89952228D01*
X115307223Y-90047516D01*
X115253247Y-90128298D01*
X112545975Y-92835570D01*
X112465193Y-92889546D01*
X112369905Y-92908500D01*
X108090158Y-92908500D01*
X108090152Y-92908500D01*
X108090127Y-92908501D01*
X107986770Y-92914918D01*
X107986748Y-92914921D01*
X107743390Y-92965948D01*
X107743375Y-92965953D01*
X107699779Y-92982965D01*
X107609264Y-93000000D01*
X97336736Y-93000000D01*
X97246221Y-92982965D01*
X97202624Y-92965953D01*
X97202609Y-92965948D01*
X96959251Y-92914921D01*
X96959238Y-92914919D01*
X96959237Y-92914919D01*
X96959235Y-92914918D01*
X96959229Y-92914918D01*
X96855872Y-92908501D01*
X96855847Y-92908500D01*
X96855842Y-92908500D01*
X92290158Y-92908500D01*
X92290152Y-92908500D01*
X92290127Y-92908501D01*
X92186770Y-92914918D01*
X92186748Y-92914921D01*
X91943390Y-92965948D01*
X91943381Y-92965951D01*
X91711728Y-93056343D01*
X91498105Y-93183634D01*
X91308351Y-93344348D01*
X91308348Y-93344351D01*
X91147634Y-93534105D01*
X91020343Y-93747728D01*
X91000922Y-93797500D01*
X90973016Y-93869016D01*
X90920723Y-93950893D01*
X90841074Y-94006528D01*
X90746198Y-94027447D01*
X90741052Y-94027500D01*
X87401598Y-94027500D01*
X87306310Y-94008546D01*
X87089507Y-93918743D01*
X87089504Y-93918742D01*
X87089502Y-93918741D01*
X87089501Y-93918741D01*
X86788714Y-93838146D01*
X86788709Y-93838145D01*
X86788710Y-93838145D01*
X86479982Y-93797500D01*
X86479981Y-93797500D01*
X86168585Y-93797500D01*
X86168584Y-93797500D01*
X85859856Y-93838145D01*
X85559061Y-93918742D01*
X85559057Y-93918743D01*
X85271377Y-94037904D01*
X85271366Y-94037909D01*
X85001703Y-94193599D01*
X85001693Y-94193606D01*
X84754652Y-94383166D01*
X84754642Y-94383175D01*
X84534458Y-94603359D01*
X84534449Y-94603369D01*
X84344889Y-94850410D01*
X84344882Y-94850420D01*
X84189193Y-95120082D01*
X84189191Y-95120086D01*
X84159060Y-95192828D01*
X84129367Y-95245389D01*
X84126662Y-95249053D01*
X84126653Y-95249068D01*
X84004061Y-95481021D01*
X84004055Y-95481036D01*
X83917406Y-95728666D01*
X83917405Y-95728669D01*
X83868630Y-95986453D01*
X83868630Y-95986454D01*
X83862500Y-96095599D01*
X83862500Y-97960400D01*
X83868630Y-98069545D01*
X83868630Y-98069546D01*
X83870616Y-98080042D01*
X83917406Y-98327333D01*
X84004059Y-98574974D01*
X84004062Y-98574981D01*
X84004064Y-98574984D01*
X84126650Y-98806928D01*
X84129361Y-98810601D01*
X84159060Y-98863172D01*
X84189187Y-98935905D01*
X84189192Y-98935916D01*
X84344882Y-99205579D01*
X84344889Y-99205589D01*
X84534449Y-99452630D01*
X84534458Y-99452640D01*
X84754642Y-99672824D01*
X84754652Y-99672833D01*
X84902581Y-99786342D01*
X84966640Y-99859386D01*
X84997870Y-99951385D01*
X85000000Y-99983887D01*
X85000000Y-101799804D01*
X84981046Y-101895092D01*
X84927070Y-101975874D01*
X84902582Y-101997349D01*
X84729484Y-102130172D01*
X84729480Y-102130175D01*
X84509296Y-102350359D01*
X84509287Y-102350369D01*
X84319727Y-102597410D01*
X84319720Y-102597420D01*
X84164029Y-102867085D01*
X84164028Y-102867087D01*
X84056898Y-103125719D01*
X84046999Y-103146776D01*
X84004059Y-103228025D01*
X83917406Y-103475666D01*
X83917405Y-103475669D01*
X83868630Y-103733453D01*
X83868630Y-103733454D01*
X83862500Y-103842599D01*
X83862500Y-105707400D01*
X83868630Y-105816545D01*
X83868630Y-105816546D01*
X83917405Y-106074330D01*
X83917406Y-106074333D01*
X84004059Y-106321977D01*
X84046996Y-106403217D01*
X84056896Y-106424276D01*
X84164029Y-106682914D01*
X84164031Y-106682917D01*
X84319720Y-106952579D01*
X84319727Y-106952589D01*
X84509287Y-107199630D01*
X84509303Y-107199648D01*
X84727069Y-107417413D01*
X84781046Y-107498194D01*
X84800000Y-107593482D01*
X84800000Y-109561150D01*
X84781046Y-109656438D01*
X84727070Y-109737220D01*
X84715181Y-109748355D01*
X84713115Y-109750166D01*
X84492922Y-109970359D01*
X84492913Y-109970369D01*
X84303353Y-110217410D01*
X84303346Y-110217420D01*
X84147656Y-110487083D01*
X84147651Y-110487094D01*
X84028489Y-110774777D01*
X84028486Y-110774786D01*
X84021060Y-110802501D01*
X84006729Y-110839032D01*
X84007783Y-110839492D01*
X84004055Y-110848036D01*
X83917406Y-111095666D01*
X83917405Y-111095669D01*
X83868630Y-111353453D01*
X83868630Y-111353454D01*
X83862500Y-111462599D01*
X83862500Y-113327400D01*
X83868630Y-113436545D01*
X83868630Y-113436546D01*
X83917405Y-113694330D01*
X83917406Y-113694333D01*
X84004058Y-113941971D01*
X84007784Y-113950511D01*
X84006729Y-113950970D01*
X84021058Y-113987494D01*
X84028485Y-114015209D01*
X84028489Y-114015222D01*
X84147651Y-114302905D01*
X84147656Y-114302916D01*
X84303346Y-114572579D01*
X84303353Y-114572589D01*
X84492913Y-114819630D01*
X84492917Y-114819634D01*
X84492919Y-114819637D01*
X84713110Y-115039828D01*
X84751308Y-115069138D01*
X84902581Y-115185214D01*
X84966640Y-115258259D01*
X84997870Y-115350258D01*
X85000000Y-115382759D01*
X85000000Y-117027240D01*
X84981046Y-117122528D01*
X84927070Y-117203310D01*
X84902582Y-117224785D01*
X84713110Y-117370172D01*
X84713106Y-117370175D01*
X84492922Y-117590359D01*
X84492913Y-117590369D01*
X84303353Y-117837410D01*
X84303346Y-117837420D01*
X84147656Y-118107083D01*
X84147651Y-118107094D01*
X84028489Y-118394777D01*
X84028486Y-118394786D01*
X84021060Y-118422501D01*
X84006729Y-118459032D01*
X84007783Y-118459492D01*
X84004055Y-118468036D01*
X83917406Y-118715666D01*
X83917405Y-118715669D01*
X83868630Y-118973453D01*
X83868630Y-118973454D01*
X83862500Y-119082599D01*
X83862500Y-120947400D01*
X83868630Y-121056545D01*
X83868630Y-121056546D01*
X83917405Y-121314330D01*
X83917406Y-121314333D01*
X83953947Y-121418761D01*
X83967528Y-121514962D01*
X83943261Y-121609037D01*
X83884840Y-121686665D01*
X83801159Y-121736027D01*
X83718920Y-121750000D01*
X80749500Y-121750000D01*
X80654212Y-121731046D01*
X80573430Y-121677070D01*
X80519454Y-121596288D01*
X80500500Y-121501000D01*
X80500500Y-45749500D01*
X80519454Y-45654212D01*
X80573430Y-45573430D01*
X80654212Y-45519454D01*
X80749500Y-45500500D01*
X86750406Y-45500500D01*
X86845694Y-45519454D01*
G37*
%TD.AperFunction*%
%TA.AperFunction,Conductor*%
G36*
X157710944Y-97031325D02*
G01*
X157744082Y-97037916D01*
X157744591Y-97036352D01*
X157760009Y-97041362D01*
X157844775Y-97088836D01*
X157859122Y-97102098D01*
X157876374Y-97119349D01*
X157876380Y-97119354D01*
X157876570Y-97119544D01*
X157930546Y-97200326D01*
X157949500Y-97295614D01*
X157949500Y-97600666D01*
X157930546Y-97695954D01*
X157901384Y-97747794D01*
X157831513Y-97843192D01*
X157831504Y-97843206D01*
X157708537Y-98080039D01*
X157708535Y-98080045D01*
X157625032Y-98327333D01*
X157623155Y-98332891D01*
X157623154Y-98332895D01*
X157577375Y-98595786D01*
X157577374Y-98595796D01*
X157577374Y-98595799D01*
X157574500Y-98655769D01*
X157574500Y-98655779D01*
X157574500Y-98655784D01*
X157574500Y-99344220D01*
X157577373Y-99404197D01*
X157588429Y-99467685D01*
X157623156Y-99667113D01*
X157688659Y-99861094D01*
X157708537Y-99919960D01*
X157831504Y-100156793D01*
X157831514Y-100156809D01*
X157989192Y-100372096D01*
X158177903Y-100560807D01*
X158393190Y-100718485D01*
X158393195Y-100718488D01*
X158393199Y-100718491D01*
X158393202Y-100718492D01*
X158393206Y-100718495D01*
X158630039Y-100841462D01*
X158630045Y-100841465D01*
X158882887Y-100926844D01*
X159040222Y-100954241D01*
X159145786Y-100972624D01*
X159145788Y-100972624D01*
X159145799Y-100972626D01*
X159205769Y-100975500D01*
X160019230Y-100975499D01*
X160079201Y-100972626D01*
X160342113Y-100926844D01*
X160513549Y-100868954D01*
X160530924Y-100863087D01*
X160610586Y-100850000D01*
X162001000Y-100850000D01*
X162096288Y-100868954D01*
X162177070Y-100922930D01*
X162231046Y-101003712D01*
X162250000Y-101099000D01*
X162250000Y-103828633D01*
X162241748Y-103892206D01*
X162237465Y-103908422D01*
X162206852Y-103982331D01*
X162138979Y-104235634D01*
X162129039Y-104311139D01*
X162126968Y-104326868D01*
X162126968Y-104326869D01*
X162104750Y-104495630D01*
X162104750Y-104919998D01*
X162085796Y-105015286D01*
X162071390Y-105044498D01*
X161970159Y-105219833D01*
X161970154Y-105219844D01*
X161850993Y-105507524D01*
X161850992Y-105507528D01*
X161805766Y-105676316D01*
X161795721Y-105696684D01*
X161790166Y-105718707D01*
X161774442Y-105739834D01*
X161762795Y-105763452D01*
X161745719Y-105778426D01*
X161732160Y-105796646D01*
X161709549Y-105810147D01*
X161689750Y-105827511D01*
X161668244Y-105834811D01*
X161648745Y-105846455D01*
X161622690Y-105850275D01*
X161597752Y-105858741D01*
X161575086Y-105857255D01*
X161552618Y-105860550D01*
X161527085Y-105854109D01*
X161500805Y-105852387D01*
X161480436Y-105842342D01*
X161458414Y-105836787D01*
X161437286Y-105821063D01*
X161413669Y-105809416D01*
X161398694Y-105792340D01*
X161380475Y-105778781D01*
X161370137Y-105759777D01*
X161349610Y-105736371D01*
X161330666Y-105695366D01*
X161327318Y-105685961D01*
X161279509Y-105507532D01*
X161167950Y-105238205D01*
X161165832Y-105232253D01*
X161159683Y-105190323D01*
X161151416Y-105148758D01*
X161152667Y-105142468D01*
X161151737Y-105136126D01*
X161162102Y-105095035D01*
X161170370Y-105053470D01*
X161174700Y-105045089D01*
X161175500Y-105041922D01*
X161178242Y-105038237D01*
X161182524Y-105029951D01*
X161181993Y-105029671D01*
X161305295Y-104796372D01*
X161308941Y-104789474D01*
X161395594Y-104541833D01*
X161444370Y-104284043D01*
X161450500Y-104174892D01*
X161450500Y-103475108D01*
X161444370Y-103365957D01*
X161395594Y-103108167D01*
X161308941Y-102860526D01*
X161186346Y-102628567D01*
X161030550Y-102417469D01*
X160845031Y-102231950D01*
X160845027Y-102231947D01*
X160633932Y-102076153D01*
X160401978Y-101953561D01*
X160401977Y-101953560D01*
X160401974Y-101953559D01*
X160364956Y-101940606D01*
X160154333Y-101866906D01*
X160154330Y-101866905D01*
X159896545Y-101818130D01*
X159787400Y-101812000D01*
X159787392Y-101812000D01*
X158712608Y-101812000D01*
X158712599Y-101812000D01*
X158603454Y-101818130D01*
X158603453Y-101818130D01*
X158345669Y-101866905D01*
X158345666Y-101866906D01*
X158098036Y-101953555D01*
X158098021Y-101953561D01*
X157866067Y-102076153D01*
X157654972Y-102231947D01*
X157469447Y-102417472D01*
X157313653Y-102628567D01*
X157191061Y-102860521D01*
X157191055Y-102860536D01*
X157104406Y-103108166D01*
X157104405Y-103108169D01*
X157055630Y-103365953D01*
X157055630Y-103365954D01*
X157049500Y-103475099D01*
X157049500Y-103667106D01*
X157030546Y-103762394D01*
X156976570Y-103843176D01*
X156895788Y-103897152D01*
X156800500Y-103916106D01*
X156768000Y-103913976D01*
X156640950Y-103897250D01*
X156640948Y-103897250D01*
X156329552Y-103897250D01*
X156329551Y-103897250D01*
X156020823Y-103937895D01*
X155720028Y-104018492D01*
X155720024Y-104018493D01*
X155432346Y-104137653D01*
X155432342Y-104137655D01*
X155393101Y-104160311D01*
X155339747Y-104191114D01*
X155247750Y-104222343D01*
X155150803Y-104215988D01*
X155090752Y-104191114D01*
X154998161Y-104137657D01*
X154998159Y-104137656D01*
X154998157Y-104137655D01*
X154998153Y-104137653D01*
X154710475Y-104018493D01*
X154710471Y-104018492D01*
X154710469Y-104018491D01*
X154710468Y-104018491D01*
X154409681Y-103937896D01*
X154409676Y-103937895D01*
X154409677Y-103937895D01*
X154100949Y-103897250D01*
X154100948Y-103897250D01*
X153789552Y-103897250D01*
X153789551Y-103897250D01*
X153480823Y-103937895D01*
X153180028Y-104018492D01*
X153180024Y-104018493D01*
X152892346Y-104137653D01*
X152892342Y-104137655D01*
X152853101Y-104160311D01*
X152799747Y-104191114D01*
X152707750Y-104222343D01*
X152610803Y-104215988D01*
X152550752Y-104191114D01*
X152458161Y-104137657D01*
X152458159Y-104137656D01*
X152458157Y-104137655D01*
X152458153Y-104137653D01*
X152170475Y-104018493D01*
X152170471Y-104018492D01*
X152170469Y-104018491D01*
X152170468Y-104018491D01*
X151869681Y-103937896D01*
X151869676Y-103937895D01*
X151869677Y-103937895D01*
X151560949Y-103897250D01*
X151560948Y-103897250D01*
X151249552Y-103897250D01*
X151249551Y-103897250D01*
X150940823Y-103937895D01*
X150640028Y-104018492D01*
X150640019Y-104018495D01*
X150426787Y-104106818D01*
X150331499Y-104125772D01*
X150236211Y-104106818D01*
X150155430Y-104052841D01*
X150101454Y-103972059D01*
X150082500Y-103876772D01*
X150082500Y-101919302D01*
X150101454Y-101824014D01*
X150111357Y-101802950D01*
X150140936Y-101746984D01*
X150140937Y-101746980D01*
X150140941Y-101746974D01*
X150227594Y-101499333D01*
X150276370Y-101241543D01*
X150282500Y-101132392D01*
X150282500Y-100257608D01*
X150276370Y-100148457D01*
X150227594Y-99890667D01*
X150187902Y-99777234D01*
X150184172Y-99750812D01*
X150175801Y-99725470D01*
X150177871Y-99706184D01*
X150174322Y-99681040D01*
X150182953Y-99628578D01*
X150185162Y-99620594D01*
X150227594Y-99499333D01*
X150246754Y-99398068D01*
X150249514Y-99388097D01*
X150266794Y-99353770D01*
X150281170Y-99318124D01*
X150288496Y-99310659D01*
X150293199Y-99301318D01*
X150322302Y-99276215D01*
X150349224Y-99248786D01*
X150358848Y-99244693D01*
X150366769Y-99237862D01*
X150403263Y-99225807D01*
X150438632Y-99210768D01*
X150449090Y-99210670D01*
X150459021Y-99207390D01*
X150497349Y-99210219D01*
X150535782Y-99209860D01*
X150545482Y-99213772D01*
X150555913Y-99214542D01*
X150590239Y-99231822D01*
X150625886Y-99246198D01*
X150641060Y-99256965D01*
X150695054Y-99298397D01*
X150719165Y-99316898D01*
X150719177Y-99316905D01*
X150980326Y-99467680D01*
X150980329Y-99467681D01*
X150980332Y-99467683D01*
X151258942Y-99583087D01*
X151550232Y-99661138D01*
X151849217Y-99700500D01*
X152150783Y-99700500D01*
X152449768Y-99661138D01*
X152741058Y-99583087D01*
X153019668Y-99467683D01*
X153078252Y-99433859D01*
X153170248Y-99402630D01*
X153202751Y-99400500D01*
X154481120Y-99400500D01*
X154611118Y-99383385D01*
X154741116Y-99366271D01*
X154994419Y-99298398D01*
X155236697Y-99198043D01*
X155248688Y-99191120D01*
X155463803Y-99066924D01*
X155558487Y-98994270D01*
X155671851Y-98907283D01*
X157484831Y-97094301D01*
X157484839Y-97094296D01*
X157484845Y-97094288D01*
X157524184Y-97068007D01*
X157565613Y-97040325D01*
X157565623Y-97040322D01*
X157565631Y-97040318D01*
X157610894Y-97031317D01*
X157660901Y-97021371D01*
X157660910Y-97021372D01*
X157660920Y-97021371D01*
X157710944Y-97031325D01*
G37*
%TD.AperFunction*%
%TA.AperFunction,Conductor*%
G36*
X143671014Y-95218954D02*
G01*
X143751796Y-95272930D01*
X145065891Y-96587025D01*
X145119867Y-96667807D01*
X145138821Y-96763095D01*
X145119867Y-96858383D01*
X145065891Y-96939165D01*
X144985109Y-96993141D01*
X144889821Y-97012095D01*
X144807582Y-96998122D01*
X144568333Y-96914406D01*
X144568330Y-96914405D01*
X144310545Y-96865630D01*
X144201400Y-96859500D01*
X144201392Y-96859500D01*
X143326608Y-96859500D01*
X143326599Y-96859500D01*
X143217454Y-96865630D01*
X143217453Y-96865630D01*
X142959669Y-96914405D01*
X142959666Y-96914406D01*
X142712036Y-97001055D01*
X142712021Y-97001061D01*
X142480067Y-97123653D01*
X142386818Y-97192474D01*
X142306689Y-97251612D01*
X142294177Y-97260846D01*
X142266777Y-97273726D01*
X142241605Y-97290546D01*
X142223219Y-97294203D01*
X142206253Y-97302179D01*
X142146317Y-97309500D01*
X142049000Y-97309500D01*
X141953712Y-97290546D01*
X141872930Y-97236570D01*
X141818954Y-97155788D01*
X141800000Y-97060500D01*
X141800000Y-95449000D01*
X141818954Y-95353712D01*
X141872930Y-95272930D01*
X141953712Y-95218954D01*
X142049000Y-95200000D01*
X143575726Y-95200000D01*
X143671014Y-95218954D01*
G37*
%TD.AperFunction*%
%TA.AperFunction,Conductor*%
G36*
X160659744Y-89319454D02*
G01*
X160740526Y-89373430D01*
X160877903Y-89510807D01*
X161093190Y-89668485D01*
X161093195Y-89668488D01*
X161093199Y-89668491D01*
X161093202Y-89668492D01*
X161093206Y-89668495D01*
X161209476Y-89728864D01*
X161330045Y-89791465D01*
X161582887Y-89876844D01*
X161740222Y-89904241D01*
X161845786Y-89922624D01*
X161845788Y-89922624D01*
X161845799Y-89922626D01*
X161905769Y-89925500D01*
X162594230Y-89925499D01*
X162654201Y-89922626D01*
X162917113Y-89876844D01*
X163139750Y-89801664D01*
X163236089Y-89789137D01*
X163329893Y-89814432D01*
X163358039Y-89831604D01*
X163358175Y-89831388D01*
X163366069Y-89836348D01*
X163529311Y-89922624D01*
X163598026Y-89958941D01*
X163845667Y-90045594D01*
X164103457Y-90094370D01*
X164212608Y-90100500D01*
X164212611Y-90100500D01*
X165250500Y-90100500D01*
X165345788Y-90119454D01*
X165426570Y-90173430D01*
X165480546Y-90254212D01*
X165499500Y-90349500D01*
X165499500Y-90568225D01*
X165480546Y-90663513D01*
X165426570Y-90744295D01*
X163131796Y-93039070D01*
X163051014Y-93093046D01*
X162955726Y-93112000D01*
X161158170Y-93112000D01*
X161062882Y-93093046D01*
X160982100Y-93039070D01*
X160928124Y-92958288D01*
X160917655Y-92927447D01*
X160898399Y-92855586D01*
X160898398Y-92855581D01*
X160798043Y-92613303D01*
X160666924Y-92386197D01*
X160666920Y-92386192D01*
X160666917Y-92386187D01*
X160507286Y-92178154D01*
X160507285Y-92178153D01*
X160507282Y-92178149D01*
X160321851Y-91992718D01*
X160321846Y-91992714D01*
X160321845Y-91992713D01*
X160113812Y-91833082D01*
X160113798Y-91833073D01*
X160052937Y-91797935D01*
X159886697Y-91701957D01*
X159886695Y-91701956D01*
X159886693Y-91701955D01*
X159886689Y-91701953D01*
X159644417Y-91601601D01*
X159534730Y-91572211D01*
X159391116Y-91533730D01*
X159391111Y-91533729D01*
X159391114Y-91533729D01*
X159131120Y-91499500D01*
X159082549Y-91499500D01*
X158987261Y-91480546D01*
X158906479Y-91426570D01*
X158852503Y-91345788D01*
X158833549Y-91250500D01*
X158852503Y-91155212D01*
X158866909Y-91126000D01*
X158905014Y-91059998D01*
X158929293Y-91017947D01*
X159029648Y-90775669D01*
X159046812Y-90711608D01*
X159089781Y-90624474D01*
X159162825Y-90560414D01*
X159229202Y-90533933D01*
X159258611Y-90526873D01*
X159491359Y-90430466D01*
X159623483Y-90349500D01*
X159706152Y-90298841D01*
X159706154Y-90298839D01*
X159706153Y-90298839D01*
X159706159Y-90298836D01*
X159897724Y-90135224D01*
X160061336Y-89943659D01*
X160061339Y-89943653D01*
X160061341Y-89943652D01*
X160127098Y-89836346D01*
X160192966Y-89728859D01*
X160287225Y-89501296D01*
X160319727Y-89452654D01*
X160341199Y-89420520D01*
X160341201Y-89420518D01*
X160388291Y-89373429D01*
X160469073Y-89319453D01*
X160564359Y-89300500D01*
X160564456Y-89300500D01*
X160659744Y-89319454D01*
G37*
%TD.AperFunction*%
%TA.AperFunction,Conductor*%
G36*
X128963552Y-69890216D02*
G01*
X129044336Y-69944189D01*
X129098315Y-70024969D01*
X129117273Y-70120256D01*
X129115143Y-70152763D01*
X129106759Y-70216453D01*
X129106759Y-70216458D01*
X129084750Y-70383630D01*
X129084750Y-82059998D01*
X129065796Y-82155286D01*
X129051390Y-82184498D01*
X128950159Y-82359833D01*
X128950154Y-82359844D01*
X128830993Y-82647524D01*
X128830992Y-82647528D01*
X128750395Y-82948323D01*
X128709750Y-83257051D01*
X128709750Y-84068448D01*
X128750395Y-84377176D01*
X128833101Y-84685842D01*
X128830659Y-84686496D01*
X128841293Y-84767295D01*
X128816144Y-84861139D01*
X128756997Y-84938214D01*
X128672856Y-84986789D01*
X128592827Y-85000000D01*
X126132274Y-85000000D01*
X126036986Y-84981046D01*
X125956204Y-84927070D01*
X125873430Y-84844296D01*
X125819454Y-84763514D01*
X125800500Y-84668226D01*
X125800500Y-70634300D01*
X125819454Y-70539012D01*
X125873430Y-70458230D01*
X125954212Y-70404254D01*
X126049500Y-70385300D01*
X127705135Y-70385300D01*
X127705142Y-70385300D01*
X127808537Y-70378881D01*
X128051914Y-70327850D01*
X128283573Y-70237456D01*
X128497194Y-70110166D01*
X128686950Y-69949450D01*
X128686961Y-69949436D01*
X128692196Y-69944203D01*
X128772976Y-69890224D01*
X128868263Y-69871266D01*
X128963552Y-69890216D01*
G37*
%TD.AperFunction*%
%TA.AperFunction,Conductor*%
G36*
X144646288Y-70769454D02*
G01*
X144727070Y-70823430D01*
X144781046Y-70904212D01*
X144800000Y-70999500D01*
X144800000Y-72850710D01*
X144781046Y-72945998D01*
X144727070Y-73026780D01*
X144548842Y-73205007D01*
X144548833Y-73205017D01*
X144359273Y-73452058D01*
X144359266Y-73452068D01*
X144203576Y-73721731D01*
X144203571Y-73721742D01*
X144084410Y-74009422D01*
X144084409Y-74009426D01*
X144084408Y-74009430D01*
X144015512Y-74266558D01*
X144003811Y-74310226D01*
X143993898Y-74385514D01*
X143991247Y-74401573D01*
X143990060Y-74407538D01*
X143967976Y-74575287D01*
X143949500Y-74715629D01*
X143949500Y-75476371D01*
X143951565Y-75492059D01*
X143961037Y-75564001D01*
X143963167Y-75596503D01*
X143963167Y-76640346D01*
X143998064Y-76905416D01*
X144003813Y-76949079D01*
X144072711Y-77206210D01*
X144084409Y-77249869D01*
X144084410Y-77249873D01*
X144203571Y-77537553D01*
X144203576Y-77537564D01*
X144363348Y-77814296D01*
X144361884Y-77815140D01*
X144394713Y-77894382D01*
X144399500Y-77942974D01*
X144399500Y-81935726D01*
X144380546Y-82031014D01*
X144350332Y-82083346D01*
X144350385Y-82083382D01*
X144349850Y-82084182D01*
X144348048Y-82087304D01*
X144345854Y-82090162D01*
X144190159Y-82359833D01*
X144190154Y-82359844D01*
X144070993Y-82647524D01*
X144070992Y-82647528D01*
X144025766Y-82816316D01*
X143982795Y-82903452D01*
X143909750Y-82967511D01*
X143817752Y-82998741D01*
X143720805Y-82992387D01*
X143633669Y-82949416D01*
X143569610Y-82876371D01*
X143544734Y-82816316D01*
X143520837Y-82727131D01*
X143499509Y-82647532D01*
X143380343Y-82359839D01*
X143380340Y-82359833D01*
X143224650Y-82090170D01*
X143224645Y-82090163D01*
X143224644Y-82090161D01*
X143035078Y-81843113D01*
X143035074Y-81843109D01*
X143032282Y-81839924D01*
X143031221Y-81838086D01*
X143030116Y-81836646D01*
X143030305Y-81836500D01*
X142983709Y-81755782D01*
X142970500Y-81675758D01*
X142970500Y-77793736D01*
X142989454Y-77698448D01*
X143003856Y-77669241D01*
X143105093Y-77493896D01*
X143224259Y-77206203D01*
X143304854Y-76905416D01*
X143345500Y-76596683D01*
X143345500Y-74575287D01*
X143304854Y-74266554D01*
X143224259Y-73965767D01*
X143201872Y-73911721D01*
X143105095Y-73678079D01*
X143105090Y-73678068D01*
X142949400Y-73408405D01*
X142949393Y-73408395D01*
X142759833Y-73161354D01*
X142759824Y-73161344D01*
X142539640Y-72941160D01*
X142539630Y-72941151D01*
X142292589Y-72751591D01*
X142292579Y-72751584D01*
X142022916Y-72595894D01*
X142022905Y-72595889D01*
X141735225Y-72476728D01*
X141735221Y-72476727D01*
X141735219Y-72476726D01*
X141735218Y-72476726D01*
X141434431Y-72396131D01*
X141434426Y-72396130D01*
X141434427Y-72396130D01*
X141125699Y-72355485D01*
X141125698Y-72355485D01*
X140814302Y-72355485D01*
X140814301Y-72355485D01*
X140505573Y-72396130D01*
X140505569Y-72396130D01*
X140505569Y-72396131D01*
X140467961Y-72406208D01*
X140204778Y-72476727D01*
X140204774Y-72476728D01*
X139917096Y-72595888D01*
X139917085Y-72595894D01*
X139805591Y-72660264D01*
X139713592Y-72691493D01*
X139616645Y-72685138D01*
X139556593Y-72660263D01*
X139482916Y-72617725D01*
X139482905Y-72617720D01*
X139195225Y-72498559D01*
X139195221Y-72498558D01*
X139195219Y-72498557D01*
X139195218Y-72498557D01*
X138894431Y-72417962D01*
X138894426Y-72417961D01*
X138894427Y-72417961D01*
X138585699Y-72377316D01*
X138585698Y-72377316D01*
X138274302Y-72377316D01*
X138274301Y-72377316D01*
X137965573Y-72417961D01*
X137664778Y-72498558D01*
X137664774Y-72498559D01*
X137377094Y-72617720D01*
X137377083Y-72617725D01*
X137107420Y-72773415D01*
X137107410Y-72773422D01*
X136860369Y-72962982D01*
X136860359Y-72962991D01*
X136640175Y-73183175D01*
X136640166Y-73183185D01*
X136450606Y-73430226D01*
X136450599Y-73430236D01*
X136294909Y-73699899D01*
X136294904Y-73699910D01*
X136181162Y-73974508D01*
X136127185Y-74055290D01*
X136046404Y-74109266D01*
X135951116Y-74128220D01*
X135855828Y-74109266D01*
X135775046Y-74055289D01*
X135721070Y-73974508D01*
X135704246Y-73911721D01*
X135684854Y-73764426D01*
X135604259Y-73463639D01*
X135599462Y-73452059D01*
X135486335Y-73178944D01*
X135485093Y-73175946D01*
X135476668Y-73161354D01*
X135383860Y-73000605D01*
X135378580Y-72985051D01*
X135369454Y-72971393D01*
X135363099Y-72939448D01*
X135352630Y-72908606D01*
X135350500Y-72876105D01*
X135350500Y-72852751D01*
X135369454Y-72757463D01*
X135383856Y-72728256D01*
X135417683Y-72669668D01*
X135533087Y-72391058D01*
X135550594Y-72325717D01*
X135593563Y-72238582D01*
X135615033Y-72214099D01*
X137005705Y-70823430D01*
X137086486Y-70769454D01*
X137181774Y-70750500D01*
X144551000Y-70750500D01*
X144646288Y-70769454D01*
G37*
%TD.AperFunction*%
%TA.AperFunction,Conductor*%
G36*
X165992264Y-70648204D02*
G01*
X166073046Y-70702180D01*
X167676570Y-72305704D01*
X167730546Y-72386486D01*
X167749500Y-72481774D01*
X167749500Y-76318226D01*
X167730546Y-76413514D01*
X167676570Y-76494296D01*
X166994296Y-77176570D01*
X166913514Y-77230546D01*
X166818226Y-77249500D01*
X166236022Y-77249500D01*
X166140734Y-77230546D01*
X166059952Y-77176570D01*
X166005976Y-77095788D01*
X165987022Y-77000500D01*
X166005976Y-76905212D01*
X166084256Y-76716225D01*
X166084255Y-76716225D01*
X166084259Y-76716218D01*
X166164854Y-76415431D01*
X166205500Y-76106698D01*
X166205500Y-74085302D01*
X166164854Y-73776569D01*
X166084259Y-73475782D01*
X166079229Y-73463639D01*
X165965095Y-73188094D01*
X165965090Y-73188083D01*
X165809400Y-72918420D01*
X165809393Y-72918410D01*
X165776931Y-72876105D01*
X165707816Y-72786032D01*
X165619833Y-72671369D01*
X165619824Y-72671359D01*
X165399640Y-72451175D01*
X165393516Y-72445805D01*
X165394009Y-72445242D01*
X165354977Y-72406208D01*
X165337287Y-72383154D01*
X165337286Y-72383153D01*
X165337283Y-72383149D01*
X164008454Y-71054320D01*
X163954478Y-70973538D01*
X163935524Y-70878250D01*
X163954478Y-70782962D01*
X164008454Y-70702180D01*
X164089236Y-70648204D01*
X164184524Y-70629250D01*
X165896976Y-70629250D01*
X165992264Y-70648204D01*
G37*
%TD.AperFunction*%
%TA.AperFunction,Conductor*%
G36*
X152757817Y-70347000D02*
G01*
X152804600Y-70383735D01*
X154009570Y-71588704D01*
X154063546Y-71669486D01*
X154082500Y-71764774D01*
X154082500Y-73276128D01*
X154063546Y-73371416D01*
X154009570Y-73452198D01*
X153928788Y-73506174D01*
X153833500Y-73525128D01*
X153738212Y-73506174D01*
X153657430Y-73452198D01*
X153603454Y-73371416D01*
X153549618Y-73241446D01*
X153549613Y-73241435D01*
X153393923Y-72971772D01*
X153393916Y-72971762D01*
X153370434Y-72941160D01*
X153241720Y-72773415D01*
X153204356Y-72724721D01*
X153204347Y-72724711D01*
X152984162Y-72504526D01*
X152984160Y-72504524D01*
X152934331Y-72466289D01*
X152879853Y-72408529D01*
X152874788Y-72401062D01*
X152796924Y-72266197D01*
X152683884Y-72118881D01*
X152679454Y-72113108D01*
X152679451Y-72113103D01*
X152637287Y-72058153D01*
X152637286Y-72058152D01*
X152637283Y-72058148D01*
X151682012Y-71102878D01*
X151628037Y-71022097D01*
X151609083Y-70926809D01*
X151628037Y-70831521D01*
X151682013Y-70750739D01*
X151762795Y-70696763D01*
X151815361Y-70681502D01*
X151842113Y-70676844D01*
X152094955Y-70591465D01*
X152331801Y-70468491D01*
X152481404Y-70358919D01*
X152569474Y-70317909D01*
X152666539Y-70313723D01*
X152757817Y-70347000D01*
G37*
%TD.AperFunction*%
%TA.AperFunction,Conductor*%
G36*
X154095788Y-60769454D02*
G01*
X154176570Y-60823430D01*
X154230546Y-60904212D01*
X154249500Y-60999500D01*
X154249500Y-64381120D01*
X154251382Y-64395419D01*
X154262649Y-64480998D01*
X154262651Y-64481007D01*
X154263959Y-64490942D01*
X154283729Y-64641116D01*
X154349007Y-64884734D01*
X154350626Y-64890779D01*
X154350628Y-64890785D01*
X154351602Y-64894422D01*
X154451444Y-65135459D01*
X154451957Y-65136697D01*
X154500107Y-65220095D01*
X154583073Y-65363798D01*
X154583083Y-65363813D01*
X154617661Y-65408876D01*
X154617670Y-65408886D01*
X154742711Y-65571844D01*
X154742720Y-65571854D01*
X158023635Y-68852769D01*
X158047774Y-68888896D01*
X158073400Y-68923960D01*
X158075091Y-68929780D01*
X158077611Y-68933551D01*
X158082119Y-68953960D01*
X158094435Y-68996337D01*
X158115842Y-69158938D01*
X158115843Y-69158944D01*
X158175160Y-69380318D01*
X158193893Y-69450230D01*
X158193896Y-69450239D01*
X158261623Y-69613748D01*
X158280577Y-69709036D01*
X158272719Y-69748537D01*
X158281134Y-69754160D01*
X158310345Y-69768565D01*
X158321176Y-69780915D01*
X158334833Y-69790041D01*
X158374403Y-69841610D01*
X158460075Y-69989998D01*
X158460081Y-69990008D01*
X158643656Y-70229249D01*
X158643665Y-70229259D01*
X158856897Y-70442491D01*
X158856907Y-70442500D01*
X158966903Y-70526902D01*
X159096149Y-70626076D01*
X159357313Y-70776859D01*
X159357332Y-70776866D01*
X159360619Y-70778488D01*
X159362086Y-70779613D01*
X159364373Y-70780934D01*
X159364199Y-70781234D01*
X159437700Y-70837629D01*
X159486282Y-70921765D01*
X159499500Y-71001815D01*
X159499500Y-71506120D01*
X159509535Y-71582342D01*
X159533729Y-71766116D01*
X159582908Y-71949654D01*
X159584507Y-71957716D01*
X159584483Y-71998228D01*
X159587133Y-72038651D01*
X159584454Y-72046540D01*
X159584450Y-72054871D01*
X159568926Y-72092286D01*
X159555904Y-72130650D01*
X159550410Y-72136914D01*
X159547218Y-72144609D01*
X159518556Y-72173237D01*
X159491845Y-72203696D01*
X159484373Y-72207380D01*
X159478479Y-72213268D01*
X159441040Y-72228749D01*
X159404710Y-72246666D01*
X159396397Y-72247210D01*
X159388698Y-72250395D01*
X159348185Y-72250371D01*
X159307763Y-72253021D01*
X159294281Y-72250339D01*
X159291543Y-72250338D01*
X159289029Y-72249294D01*
X159275821Y-72246668D01*
X159245642Y-72238582D01*
X159214431Y-72230219D01*
X159214428Y-72230218D01*
X159214426Y-72230218D01*
X158905699Y-72189573D01*
X158905698Y-72189573D01*
X158594302Y-72189573D01*
X158594301Y-72189573D01*
X158365001Y-72219761D01*
X158268054Y-72213407D01*
X158180918Y-72170436D01*
X158116860Y-72097391D01*
X158085630Y-72005392D01*
X158083500Y-71972891D01*
X158083500Y-70701880D01*
X158063965Y-70553502D01*
X158063965Y-70553500D01*
X158052774Y-70468495D01*
X158049271Y-70441884D01*
X157981398Y-70188581D01*
X157928717Y-70061398D01*
X157922363Y-70029454D01*
X157911893Y-69998611D01*
X157912967Y-69982219D01*
X157909763Y-69966109D01*
X157916117Y-69934161D01*
X157916655Y-69925962D01*
X157855507Y-69885104D01*
X157815936Y-69833534D01*
X157749924Y-69719197D01*
X157749916Y-69719186D01*
X157668219Y-69612717D01*
X157668217Y-69612715D01*
X157590287Y-69511153D01*
X157590286Y-69511152D01*
X157590283Y-69511148D01*
X153071851Y-64992717D01*
X152997356Y-64935555D01*
X152950762Y-64899802D01*
X152886703Y-64826756D01*
X152855474Y-64734757D01*
X152861829Y-64637810D01*
X152904799Y-64550675D01*
X152915144Y-64538070D01*
X152919810Y-64532748D01*
X152919828Y-64532731D01*
X153109394Y-64285683D01*
X153147259Y-64220100D01*
X153265090Y-64016010D01*
X153265089Y-64016010D01*
X153265093Y-64016005D01*
X153384259Y-63728312D01*
X153464854Y-63427525D01*
X153505500Y-63118792D01*
X153505500Y-61097396D01*
X153500892Y-61062392D01*
X153496891Y-61032000D01*
X153503246Y-60935053D01*
X153546217Y-60847918D01*
X153619262Y-60783859D01*
X153711261Y-60752630D01*
X153743761Y-60750500D01*
X154000500Y-60750500D01*
X154095788Y-60769454D01*
G37*
%TD.AperFunction*%
%TA.AperFunction,Conductor*%
G36*
X137846288Y-53018954D02*
G01*
X137927070Y-53072930D01*
X137981046Y-53153712D01*
X138000000Y-53249000D01*
X138000000Y-60667726D01*
X137981046Y-60763014D01*
X137927070Y-60843796D01*
X129577963Y-69192903D01*
X129564126Y-69210936D01*
X129491079Y-69274993D01*
X129399080Y-69306220D01*
X129302133Y-69299863D01*
X129214998Y-69256890D01*
X129150941Y-69183843D01*
X129119714Y-69091844D01*
X129118064Y-69043923D01*
X129122800Y-68967642D01*
X129122800Y-68192358D01*
X129116381Y-68088963D01*
X129116378Y-68088948D01*
X129065351Y-67845590D01*
X129065348Y-67845581D01*
X129019694Y-67728580D01*
X128974956Y-67613927D01*
X128952927Y-67576957D01*
X128920434Y-67485400D01*
X128925451Y-67388375D01*
X128967217Y-67300655D01*
X129039372Y-67235596D01*
X129130932Y-67203102D01*
X129166832Y-67200500D01*
X129687389Y-67200500D01*
X129687392Y-67200500D01*
X129796543Y-67194370D01*
X130054333Y-67145594D01*
X130301974Y-67058941D01*
X130533933Y-66936346D01*
X130745031Y-66780550D01*
X130930550Y-66595031D01*
X131086346Y-66383933D01*
X131208941Y-66151974D01*
X131295594Y-65904333D01*
X131344370Y-65646543D01*
X131350500Y-65537392D01*
X131350500Y-64462608D01*
X131344370Y-64353457D01*
X131295594Y-64095667D01*
X131295592Y-64095661D01*
X131264751Y-64007522D01*
X131251170Y-63911321D01*
X131255119Y-63878991D01*
X131257032Y-63868880D01*
X131294370Y-63671543D01*
X131300500Y-63562392D01*
X131300500Y-62437608D01*
X131294370Y-62328457D01*
X131245594Y-62070667D01*
X131158941Y-61823026D01*
X131036346Y-61591067D01*
X131036345Y-61591065D01*
X131033499Y-61586536D01*
X131032323Y-61583455D01*
X131031993Y-61582831D01*
X131032069Y-61582790D01*
X130998851Y-61495769D01*
X130999674Y-61407768D01*
X131010672Y-61349643D01*
X131044370Y-61171543D01*
X131050500Y-61062392D01*
X131050500Y-60800286D01*
X131058984Y-60735842D01*
X131064270Y-60716116D01*
X131098500Y-60456120D01*
X131098500Y-59497114D01*
X131117454Y-59401826D01*
X131126512Y-59382373D01*
X131217911Y-59206342D01*
X131302368Y-58956228D01*
X131347656Y-58696152D01*
X131350500Y-58636810D01*
X131350500Y-58549500D01*
X131369454Y-58454212D01*
X131423430Y-58373430D01*
X131504212Y-58319454D01*
X131599500Y-58300500D01*
X131609189Y-58300500D01*
X131704477Y-58319454D01*
X131785259Y-58373430D01*
X131824829Y-58425000D01*
X131958094Y-58655822D01*
X131958100Y-58655832D01*
X132141675Y-58895073D01*
X132141684Y-58895083D01*
X132354916Y-59108315D01*
X132354926Y-59108324D01*
X132482660Y-59206337D01*
X132594168Y-59291900D01*
X132671760Y-59336697D01*
X132855326Y-59442680D01*
X132855329Y-59442681D01*
X132855332Y-59442683D01*
X133133942Y-59558087D01*
X133425232Y-59636138D01*
X133724217Y-59675500D01*
X134025783Y-59675500D01*
X134324768Y-59636138D01*
X134616058Y-59558087D01*
X134894668Y-59442683D01*
X135155832Y-59291900D01*
X135395080Y-59108319D01*
X135608319Y-58895080D01*
X135791900Y-58655832D01*
X135942683Y-58394668D01*
X136058087Y-58116058D01*
X136136138Y-57824768D01*
X136175500Y-57525783D01*
X136175500Y-57224217D01*
X136136138Y-56925232D01*
X136058087Y-56633942D01*
X135942683Y-56355332D01*
X135929659Y-56332774D01*
X135791905Y-56094177D01*
X135791899Y-56094167D01*
X135608324Y-55854926D01*
X135608315Y-55854916D01*
X135395083Y-55641684D01*
X135395073Y-55641675D01*
X135155832Y-55458100D01*
X135155822Y-55458094D01*
X134894673Y-55307319D01*
X134894662Y-55307314D01*
X134718976Y-55234543D01*
X134616058Y-55191913D01*
X134616053Y-55191911D01*
X134616040Y-55191907D01*
X134550717Y-55174404D01*
X134463581Y-55131434D01*
X134439093Y-55109959D01*
X134121854Y-54792720D01*
X134121851Y-54792717D01*
X133976910Y-54681500D01*
X133913803Y-54633076D01*
X133686697Y-54501957D01*
X133686695Y-54501956D01*
X133686693Y-54501955D01*
X133686689Y-54501953D01*
X133444415Y-54401600D01*
X133423712Y-54396053D01*
X133423702Y-54396050D01*
X133417612Y-54394419D01*
X133191116Y-54333729D01*
X133050013Y-54315153D01*
X133040120Y-54313850D01*
X133040113Y-54313849D01*
X132931120Y-54299500D01*
X131812392Y-54299500D01*
X131381120Y-54299500D01*
X130088472Y-54299500D01*
X130045763Y-54295809D01*
X129796152Y-54252344D01*
X129736810Y-54249500D01*
X128763190Y-54249500D01*
X128703848Y-54252344D01*
X128703845Y-54252344D01*
X128703835Y-54252345D01*
X128443774Y-54297631D01*
X128443767Y-54297633D01*
X128193663Y-54382086D01*
X128193662Y-54382087D01*
X127959369Y-54503735D01*
X127959358Y-54503742D01*
X127746394Y-54659719D01*
X127559719Y-54846394D01*
X127403742Y-55059358D01*
X127403735Y-55059369D01*
X127282087Y-55293662D01*
X127282086Y-55293663D01*
X127219111Y-55480162D01*
X127170668Y-55564378D01*
X127093685Y-55623645D01*
X126999880Y-55648941D01*
X126983198Y-55649500D01*
X126353221Y-55649500D01*
X126315853Y-55642067D01*
X126277993Y-55637864D01*
X126269854Y-55632917D01*
X126257933Y-55630546D01*
X126192884Y-55591007D01*
X126184700Y-55584119D01*
X126070031Y-55469450D01*
X125894749Y-55340087D01*
X125888663Y-55334965D01*
X125863182Y-55303120D01*
X125835726Y-55272969D01*
X125832995Y-55265394D01*
X125827964Y-55259106D01*
X125816611Y-55219939D01*
X125802781Y-55181571D01*
X125801836Y-55168968D01*
X125800916Y-55165792D01*
X125801323Y-55162120D01*
X125800000Y-55144458D01*
X125800000Y-53249000D01*
X125818954Y-53153712D01*
X125872930Y-53072930D01*
X125953712Y-53018954D01*
X126049000Y-53000000D01*
X137751000Y-53000000D01*
X137846288Y-53018954D01*
G37*
%TD.AperFunction*%
%TA.AperFunction,Conductor*%
G36*
X170246288Y-60618954D02*
G01*
X170327070Y-60672930D01*
X170381046Y-60753712D01*
X170400000Y-60849000D01*
X170400000Y-63351000D01*
X170381046Y-63446288D01*
X170327070Y-63527070D01*
X170246288Y-63581046D01*
X170151000Y-63600000D01*
X166361246Y-63600000D01*
X166265958Y-63581046D01*
X166185176Y-63527070D01*
X166131200Y-63446288D01*
X166112246Y-63351000D01*
X166120730Y-63286555D01*
X166164854Y-63121882D01*
X166205500Y-62813149D01*
X166205500Y-60849000D01*
X166224454Y-60753712D01*
X166278430Y-60672930D01*
X166359212Y-60618954D01*
X166454500Y-60600000D01*
X170151000Y-60600000D01*
X170246288Y-60618954D01*
G37*
%TD.AperFunction*%
%TD*%
M02*
